<?xml version="1.0" encoding="utf-8" standalone="no"?>
<!DOCTYPE svg PUBLIC "-//W3C//DTD SVG 1.1//EN"
  "http://www.w3.org/Graphics/SVG/1.1/DTD/svg11.dtd">
<svg xmlns:xlink="http://www.w3.org/1999/xlink" width="1152pt" height="432pt" viewBox="0 0 1152 432" xmlns="http://www.w3.org/2000/svg" version="1.1">
 <metadata>
  <rdf:RDF xmlns:dc="http://purl.org/dc/elements/1.1/" xmlns:cc="http://creativecommons.org/ns#" xmlns:rdf="http://www.w3.org/1999/02/22-rdf-syntax-ns#">
   <cc:Work>
    <dc:type rdf:resource="http://purl.org/dc/dcmitype/StillImage"/>
    <dc:date>2023-10-14T07:48:22.308641</dc:date>
    <dc:format>image/svg+xml</dc:format>
    <dc:creator>
     <cc:Agent>
      <dc:title>Matplotlib v3.8.0, https://matplotlib.org/</dc:title>
     </cc:Agent>
    </dc:creator>
   </cc:Work>
  </rdf:RDF>
 </metadata>
 <defs>
  <style type="text/css">*{stroke-linejoin: round; stroke-linecap: butt}</style>
 </defs>
 <g id="figure_1">
  <g id="patch_1">
   <path d="M 0 432 
L 1152 432 
L 1152 0 
L 0 0 
z
" style="fill: #ffffff"/>
  </g>
  <g id="axes_1">
   <g id="patch_2">
    <path d="M 144 384.48 
L 549.818182 384.48 
L 549.818182 51.84 
L 144 51.84 
z
" style="fill: #ffffff"/>
   </g>
   <g id="matplotlib.axis_1">
    <g id="xtick_1">
     <g id="line2d_1">
      <path d="M 166.545455 384.48 
L 166.545455 51.84 
" clip-path="url(#p67dd57a6b7)" style="fill: none; stroke: #b0b0b0; stroke-width: 0.8; stroke-linecap: square"/>
     </g>
     <g id="line2d_2">
      <defs>
       <path id="m7033280b46" d="M 0 0 
L 0 3.5 
" style="stroke: #000000; stroke-width: 0.8"/>
      </defs>
      <g>
       <use xlink:href="#m7033280b46" x="166.545455" y="384.48" style="stroke: #000000; stroke-width: 0.8"/>
      </g>
     </g>
     <g id="text_1">
      <!-- −8 -->
      <g transform="translate(159.174361 399.078438) scale(0.1 -0.1)">
       <defs>
        <path id="DejaVuSans-2212" d="M 678 2272 
L 4684 2272 
L 4684 1741 
L 678 1741 
L 678 2272 
z
" transform="scale(0.015625)"/>
        <path id="DejaVuSans-38" d="M 2034 2216 
Q 1584 2216 1326 1975 
Q 1069 1734 1069 1313 
Q 1069 891 1326 650 
Q 1584 409 2034 409 
Q 2484 409 2743 651 
Q 3003 894 3003 1313 
Q 3003 1734 2745 1975 
Q 2488 2216 2034 2216 
z
M 1403 2484 
Q 997 2584 770 2862 
Q 544 3141 544 3541 
Q 544 4100 942 4425 
Q 1341 4750 2034 4750 
Q 2731 4750 3128 4425 
Q 3525 4100 3525 3541 
Q 3525 3141 3298 2862 
Q 3072 2584 2669 2484 
Q 3125 2378 3379 2068 
Q 3634 1759 3634 1313 
Q 3634 634 3220 271 
Q 2806 -91 2034 -91 
Q 1263 -91 848 271 
Q 434 634 434 1313 
Q 434 1759 690 2068 
Q 947 2378 1403 2484 
z
M 1172 3481 
Q 1172 3119 1398 2916 
Q 1625 2713 2034 2713 
Q 2441 2713 2670 2916 
Q 2900 3119 2900 3481 
Q 2900 3844 2670 4047 
Q 2441 4250 2034 4250 
Q 1625 4250 1398 4047 
Q 1172 3844 1172 3481 
z
" transform="scale(0.015625)"/>
       </defs>
       <use xlink:href="#DejaVuSans-2212"/>
       <use xlink:href="#DejaVuSans-38" x="83.789062"/>
      </g>
     </g>
    </g>
    <g id="xtick_2">
     <g id="line2d_3">
      <path d="M 211.636364 384.48 
L 211.636364 51.84 
" clip-path="url(#p67dd57a6b7)" style="fill: none; stroke: #b0b0b0; stroke-width: 0.8; stroke-linecap: square"/>
     </g>
     <g id="line2d_4">
      <g>
       <use xlink:href="#m7033280b46" x="211.636364" y="384.48" style="stroke: #000000; stroke-width: 0.8"/>
      </g>
     </g>
     <g id="text_2">
      <!-- −6 -->
      <g transform="translate(204.26527 399.078438) scale(0.1 -0.1)">
       <defs>
        <path id="DejaVuSans-36" d="M 2113 2584 
Q 1688 2584 1439 2293 
Q 1191 2003 1191 1497 
Q 1191 994 1439 701 
Q 1688 409 2113 409 
Q 2538 409 2786 701 
Q 3034 994 3034 1497 
Q 3034 2003 2786 2293 
Q 2538 2584 2113 2584 
z
M 3366 4563 
L 3366 3988 
Q 3128 4100 2886 4159 
Q 2644 4219 2406 4219 
Q 1781 4219 1451 3797 
Q 1122 3375 1075 2522 
Q 1259 2794 1537 2939 
Q 1816 3084 2150 3084 
Q 2853 3084 3261 2657 
Q 3669 2231 3669 1497 
Q 3669 778 3244 343 
Q 2819 -91 2113 -91 
Q 1303 -91 875 529 
Q 447 1150 447 2328 
Q 447 3434 972 4092 
Q 1497 4750 2381 4750 
Q 2619 4750 2861 4703 
Q 3103 4656 3366 4563 
z
" transform="scale(0.015625)"/>
       </defs>
       <use xlink:href="#DejaVuSans-2212"/>
       <use xlink:href="#DejaVuSans-36" x="83.789062"/>
      </g>
     </g>
    </g>
    <g id="xtick_3">
     <g id="line2d_5">
      <path d="M 256.727273 384.48 
L 256.727273 51.84 
" clip-path="url(#p67dd57a6b7)" style="fill: none; stroke: #b0b0b0; stroke-width: 0.8; stroke-linecap: square"/>
     </g>
     <g id="line2d_6">
      <g>
       <use xlink:href="#m7033280b46" x="256.727273" y="384.48" style="stroke: #000000; stroke-width: 0.8"/>
      </g>
     </g>
     <g id="text_3">
      <!-- −4 -->
      <g transform="translate(249.356179 399.078438) scale(0.1 -0.1)">
       <defs>
        <path id="DejaVuSans-34" d="M 2419 4116 
L 825 1625 
L 2419 1625 
L 2419 4116 
z
M 2253 4666 
L 3047 4666 
L 3047 1625 
L 3713 1625 
L 3713 1100 
L 3047 1100 
L 3047 0 
L 2419 0 
L 2419 1100 
L 313 1100 
L 313 1709 
L 2253 4666 
z
" transform="scale(0.015625)"/>
       </defs>
       <use xlink:href="#DejaVuSans-2212"/>
       <use xlink:href="#DejaVuSans-34" x="83.789062"/>
      </g>
     </g>
    </g>
    <g id="xtick_4">
     <g id="line2d_7">
      <path d="M 301.818182 384.48 
L 301.818182 51.84 
" clip-path="url(#p67dd57a6b7)" style="fill: none; stroke: #b0b0b0; stroke-width: 0.8; stroke-linecap: square"/>
     </g>
     <g id="line2d_8">
      <g>
       <use xlink:href="#m7033280b46" x="301.818182" y="384.48" style="stroke: #000000; stroke-width: 0.8"/>
      </g>
     </g>
     <g id="text_4">
      <!-- −2 -->
      <g transform="translate(294.447088 399.078438) scale(0.1 -0.1)">
       <defs>
        <path id="DejaVuSans-32" d="M 1228 531 
L 3431 531 
L 3431 0 
L 469 0 
L 469 531 
Q 828 903 1448 1529 
Q 2069 2156 2228 2338 
Q 2531 2678 2651 2914 
Q 2772 3150 2772 3378 
Q 2772 3750 2511 3984 
Q 2250 4219 1831 4219 
Q 1534 4219 1204 4116 
Q 875 4013 500 3803 
L 500 4441 
Q 881 4594 1212 4672 
Q 1544 4750 1819 4750 
Q 2544 4750 2975 4387 
Q 3406 4025 3406 3419 
Q 3406 3131 3298 2873 
Q 3191 2616 2906 2266 
Q 2828 2175 2409 1742 
Q 1991 1309 1228 531 
z
" transform="scale(0.015625)"/>
       </defs>
       <use xlink:href="#DejaVuSans-2212"/>
       <use xlink:href="#DejaVuSans-32" x="83.789062"/>
      </g>
     </g>
    </g>
    <g id="xtick_5">
     <g id="line2d_9">
      <path d="M 346.909091 384.48 
L 346.909091 51.84 
" clip-path="url(#p67dd57a6b7)" style="fill: none; stroke: #b0b0b0; stroke-width: 0.8; stroke-linecap: square"/>
     </g>
     <g id="line2d_10">
      <g>
       <use xlink:href="#m7033280b46" x="346.909091" y="384.48" style="stroke: #000000; stroke-width: 0.8"/>
      </g>
     </g>
     <g id="text_5">
      <!-- 0 -->
      <g transform="translate(343.727841 399.078438) scale(0.1 -0.1)">
       <defs>
        <path id="DejaVuSans-30" d="M 2034 4250 
Q 1547 4250 1301 3770 
Q 1056 3291 1056 2328 
Q 1056 1369 1301 889 
Q 1547 409 2034 409 
Q 2525 409 2770 889 
Q 3016 1369 3016 2328 
Q 3016 3291 2770 3770 
Q 2525 4250 2034 4250 
z
M 2034 4750 
Q 2819 4750 3233 4129 
Q 3647 3509 3647 2328 
Q 3647 1150 3233 529 
Q 2819 -91 2034 -91 
Q 1250 -91 836 529 
Q 422 1150 422 2328 
Q 422 3509 836 4129 
Q 1250 4750 2034 4750 
z
" transform="scale(0.015625)"/>
       </defs>
       <use xlink:href="#DejaVuSans-30"/>
      </g>
     </g>
    </g>
    <g id="xtick_6">
     <g id="line2d_11">
      <path d="M 392 384.48 
L 392 51.84 
" clip-path="url(#p67dd57a6b7)" style="fill: none; stroke: #b0b0b0; stroke-width: 0.8; stroke-linecap: square"/>
     </g>
     <g id="line2d_12">
      <g>
       <use xlink:href="#m7033280b46" x="392" y="384.48" style="stroke: #000000; stroke-width: 0.8"/>
      </g>
     </g>
     <g id="text_6">
      <!-- 2 -->
      <g transform="translate(388.81875 399.078438) scale(0.1 -0.1)">
       <use xlink:href="#DejaVuSans-32"/>
      </g>
     </g>
    </g>
    <g id="xtick_7">
     <g id="line2d_13">
      <path d="M 437.090909 384.48 
L 437.090909 51.84 
" clip-path="url(#p67dd57a6b7)" style="fill: none; stroke: #b0b0b0; stroke-width: 0.8; stroke-linecap: square"/>
     </g>
     <g id="line2d_14">
      <g>
       <use xlink:href="#m7033280b46" x="437.090909" y="384.48" style="stroke: #000000; stroke-width: 0.8"/>
      </g>
     </g>
     <g id="text_7">
      <!-- 4 -->
      <g transform="translate(433.909659 399.078438) scale(0.1 -0.1)">
       <use xlink:href="#DejaVuSans-34"/>
      </g>
     </g>
    </g>
    <g id="xtick_8">
     <g id="line2d_15">
      <path d="M 482.181818 384.48 
L 482.181818 51.84 
" clip-path="url(#p67dd57a6b7)" style="fill: none; stroke: #b0b0b0; stroke-width: 0.8; stroke-linecap: square"/>
     </g>
     <g id="line2d_16">
      <g>
       <use xlink:href="#m7033280b46" x="482.181818" y="384.48" style="stroke: #000000; stroke-width: 0.8"/>
      </g>
     </g>
     <g id="text_8">
      <!-- 6 -->
      <g transform="translate(479.000568 399.078438) scale(0.1 -0.1)">
       <use xlink:href="#DejaVuSans-36"/>
      </g>
     </g>
    </g>
    <g id="xtick_9">
     <g id="line2d_17">
      <path d="M 527.272727 384.48 
L 527.272727 51.84 
" clip-path="url(#p67dd57a6b7)" style="fill: none; stroke: #b0b0b0; stroke-width: 0.8; stroke-linecap: square"/>
     </g>
     <g id="line2d_18">
      <g>
       <use xlink:href="#m7033280b46" x="527.272727" y="384.48" style="stroke: #000000; stroke-width: 0.8"/>
      </g>
     </g>
     <g id="text_9">
      <!-- 8 -->
      <g transform="translate(524.091477 399.078438) scale(0.1 -0.1)">
       <use xlink:href="#DejaVuSans-38"/>
      </g>
     </g>
    </g>
    <g id="text_10">
     <!-- x -->
     <g transform="translate(343.949716 412.756563) scale(0.1 -0.1)">
      <defs>
       <path id="DejaVuSans-78" d="M 3513 3500 
L 2247 1797 
L 3578 0 
L 2900 0 
L 1881 1375 
L 863 0 
L 184 0 
L 1544 1831 
L 300 3500 
L 978 3500 
L 1906 2253 
L 2834 3500 
L 3513 3500 
z
" transform="scale(0.015625)"/>
      </defs>
      <use xlink:href="#DejaVuSans-78"/>
     </g>
    </g>
   </g>
   <g id="matplotlib.axis_2">
    <g id="ytick_1">
     <g id="line2d_19">
      <path d="M 144 336.96 
L 549.818182 336.96 
" clip-path="url(#p67dd57a6b7)" style="fill: none; stroke: #b0b0b0; stroke-width: 0.8; stroke-linecap: square"/>
     </g>
     <g id="line2d_20">
      <defs>
       <path id="m6befceaf49" d="M 0 0 
L -3.5 0 
" style="stroke: #000000; stroke-width: 0.8"/>
      </defs>
      <g>
       <use xlink:href="#m6befceaf49" x="144" y="336.96" style="stroke: #000000; stroke-width: 0.8"/>
      </g>
     </g>
     <g id="text_11">
      <!-- −10 -->
      <g transform="translate(115.895313 340.759219) scale(0.1 -0.1)">
       <defs>
        <path id="DejaVuSans-31" d="M 794 531 
L 1825 531 
L 1825 4091 
L 703 3866 
L 703 4441 
L 1819 4666 
L 2450 4666 
L 2450 531 
L 3481 531 
L 3481 0 
L 794 0 
L 794 531 
z
" transform="scale(0.015625)"/>
       </defs>
       <use xlink:href="#DejaVuSans-2212"/>
       <use xlink:href="#DejaVuSans-31" x="83.789062"/>
       <use xlink:href="#DejaVuSans-30" x="147.412109"/>
      </g>
     </g>
    </g>
    <g id="ytick_2">
     <g id="line2d_21">
      <path d="M 144 277.56 
L 549.818182 277.56 
" clip-path="url(#p67dd57a6b7)" style="fill: none; stroke: #b0b0b0; stroke-width: 0.8; stroke-linecap: square"/>
     </g>
     <g id="line2d_22">
      <g>
       <use xlink:href="#m6befceaf49" x="144" y="277.56" style="stroke: #000000; stroke-width: 0.8"/>
      </g>
     </g>
     <g id="text_12">
      <!-- −5 -->
      <g transform="translate(122.257812 281.359219) scale(0.1 -0.1)">
       <defs>
        <path id="DejaVuSans-35" d="M 691 4666 
L 3169 4666 
L 3169 4134 
L 1269 4134 
L 1269 2991 
Q 1406 3038 1543 3061 
Q 1681 3084 1819 3084 
Q 2600 3084 3056 2656 
Q 3513 2228 3513 1497 
Q 3513 744 3044 326 
Q 2575 -91 1722 -91 
Q 1428 -91 1123 -41 
Q 819 9 494 109 
L 494 744 
Q 775 591 1075 516 
Q 1375 441 1709 441 
Q 2250 441 2565 725 
Q 2881 1009 2881 1497 
Q 2881 1984 2565 2268 
Q 2250 2553 1709 2553 
Q 1456 2553 1204 2497 
Q 953 2441 691 2322 
L 691 4666 
z
" transform="scale(0.015625)"/>
       </defs>
       <use xlink:href="#DejaVuSans-2212"/>
       <use xlink:href="#DejaVuSans-35" x="83.789062"/>
      </g>
     </g>
    </g>
    <g id="ytick_3">
     <g id="line2d_23">
      <path d="M 144 218.16 
L 549.818182 218.16 
" clip-path="url(#p67dd57a6b7)" style="fill: none; stroke: #b0b0b0; stroke-width: 0.8; stroke-linecap: square"/>
     </g>
     <g id="line2d_24">
      <g>
       <use xlink:href="#m6befceaf49" x="144" y="218.16" style="stroke: #000000; stroke-width: 0.8"/>
      </g>
     </g>
     <g id="text_13">
      <!-- 0 -->
      <g transform="translate(130.6375 221.959219) scale(0.1 -0.1)">
       <use xlink:href="#DejaVuSans-30"/>
      </g>
     </g>
    </g>
    <g id="ytick_4">
     <g id="line2d_25">
      <path d="M 144 158.76 
L 549.818182 158.76 
" clip-path="url(#p67dd57a6b7)" style="fill: none; stroke: #b0b0b0; stroke-width: 0.8; stroke-linecap: square"/>
     </g>
     <g id="line2d_26">
      <g>
       <use xlink:href="#m6befceaf49" x="144" y="158.76" style="stroke: #000000; stroke-width: 0.8"/>
      </g>
     </g>
     <g id="text_14">
      <!-- 5 -->
      <g transform="translate(130.6375 162.559219) scale(0.1 -0.1)">
       <use xlink:href="#DejaVuSans-35"/>
      </g>
     </g>
    </g>
    <g id="ytick_5">
     <g id="line2d_27">
      <path d="M 144 99.36 
L 549.818182 99.36 
" clip-path="url(#p67dd57a6b7)" style="fill: none; stroke: #b0b0b0; stroke-width: 0.8; stroke-linecap: square"/>
     </g>
     <g id="line2d_28">
      <g>
       <use xlink:href="#m6befceaf49" x="144" y="99.36" style="stroke: #000000; stroke-width: 0.8"/>
      </g>
     </g>
     <g id="text_15">
      <!-- 10 -->
      <g transform="translate(124.275 103.159219) scale(0.1 -0.1)">
       <use xlink:href="#DejaVuSans-31"/>
       <use xlink:href="#DejaVuSans-30" x="63.623047"/>
      </g>
     </g>
    </g>
    <g id="text_16">
     <!-- y -->
     <g transform="translate(109.815625 221.119375) rotate(-90) scale(0.1 -0.1)">
      <defs>
       <path id="DejaVuSans-79" d="M 2059 -325 
Q 1816 -950 1584 -1140 
Q 1353 -1331 966 -1331 
L 506 -1331 
L 506 -850 
L 844 -850 
Q 1081 -850 1212 -737 
Q 1344 -625 1503 -206 
L 1606 56 
L 191 3500 
L 800 3500 
L 1894 763 
L 2988 3500 
L 3597 3500 
L 2059 -325 
z
" transform="scale(0.015625)"/>
      </defs>
      <use xlink:href="#DejaVuSans-79"/>
     </g>
    </g>
   </g>
   <g id="line2d_29">
    <path d="M 280.911897 433 
L 283.636364 397.596611 
L 286.274841 366.096556 
L 288.913319 337.222022 
L 291.450317 311.827677 
L 293.987315 288.653579 
L 296.422833 268.400973 
L 298.858351 250.011083 
L 301.192389 234.052201 
L 303.526427 219.642426 
L 305.758985 207.235772 
L 307.890063 196.584125 
L 310.021142 187.034692 
L 312.05074 178.909649 
L 314.080338 171.677743 
L 316.008457 165.587335 
L 317.936575 160.211465 
L 319.763214 155.737247 
L 321.589852 151.826407 
L 323.41649 148.441036 
L 325.141649 145.692066 
L 326.866808 143.346051 
L 328.591966 141.371055 
L 330.317125 139.735142 
L 332.042283 138.406376 
L 333.767442 137.352822 
L 335.59408 136.501773 
L 337.522199 135.857442 
L 339.551797 135.412851 
L 341.885835 135.1314 
L 344.930233 135.008033 
L 352.541226 134.814792 
L 354.875264 134.475931 
L 356.904863 133.964647 
L 358.731501 133.286999 
L 360.45666 132.422352 
L 362.181818 131.306916 
L 363.805497 129.999396 
L 365.429175 128.414809 
L 367.052854 126.52653 
L 368.676533 124.307934 
L 370.401691 121.558964 
L 372.12685 118.375105 
L 373.852008 114.724418 
L 375.678647 110.31467 
L 377.505285 105.307847 
L 379.433404 99.333225 
L 381.361522 92.606519 
L 383.289641 85.083144 
L 385.319239 76.254123 
L 387.348837 66.440961 
L 389.479915 55.021061 
L 391.610994 42.398615 
L 393.843552 27.819703 
L 396.07611 11.785707 
L 397.72108 -1 
L 397.72108 -1 
" clip-path="url(#p67dd57a6b7)" style="fill: none; stroke: #4169e1; stroke-width: 3; stroke-linecap: square"/>
   </g>
   <g id="line2d_30">
    <path d="M 280.594497 -1 
L 283.331924 34.914633 
L 285.970402 66.724985 
L 288.608879 95.896633 
L 291.145877 121.564232 
L 293.682875 144.999397 
L 296.118393 165.491161 
L 298.553911 184.108976 
L 300.887949 200.275747 
L 303.221987 214.883094 
L 305.454545 227.469077 
L 307.687104 238.769867 
L 309.818182 248.421679 
L 311.84778 256.638896 
L 313.877378 263.957776 
L 315.805497 270.125992 
L 317.733615 275.574977 
L 319.661734 280.349315 
L 321.488372 284.290459 
L 323.315011 287.704029 
L 325.040169 290.477696 
L 326.765328 292.84653 
L 328.490486 294.842467 
L 330.215645 296.497442 
L 331.940803 297.843391 
L 333.665962 298.912251 
L 335.4926 299.777457 
L 337.420719 300.434447 
L 339.450317 300.889828 
L 341.784355 301.180474 
L 344.727273 301.309233 
L 352.744186 301.52596 
L 355.078224 301.885155 
L 357.107822 302.419709 
L 358.934461 303.122747 
L 360.659619 304.015241 
L 362.384778 305.162282 
L 364.008457 306.502979 
L 365.632135 308.124071 
L 367.255814 310.052184 
L 368.879493 312.313942 
L 370.604651 315.112418 
L 372.32981 318.349541 
L 374.054968 322.057247 
L 375.881607 326.531465 
L 377.708245 331.60697 
L 379.636364 337.658659 
L 381.564482 344.467125 
L 383.59408 352.500515 
L 385.623679 361.473842 
L 387.754757 371.964344 
L 389.885835 383.608659 
L 392.118393 397.110595 
L 394.350951 412.014129 
L 396.684989 429.168836 
L 397.177279 433 
L 397.177279 433 
" clip-path="url(#p67dd57a6b7)" style="fill: none; stroke: #ff0000; stroke-width: 3; stroke-linecap: square"/>
   </g>
   <g id="line2d_31">
    <path d="M 144 218.16 
L 549.818182 218.16 
" clip-path="url(#p67dd57a6b7)" style="fill: none; stroke: #1f77b4; stroke-width: 1.5; stroke-linecap: square"/>
   </g>
   <g id="line2d_32">
    <path d="M 346.909091 384.48 
L 346.909091 51.84 
" clip-path="url(#p67dd57a6b7)" style="fill: none; stroke: #1f77b4; stroke-width: 1.5; stroke-linecap: square"/>
   </g>
   <g id="patch_3">
    <path d="M 144 384.48 
L 144 51.84 
" style="fill: none; stroke: #000000; stroke-width: 0.8; stroke-linejoin: miter; stroke-linecap: square"/>
   </g>
   <g id="patch_4">
    <path d="M 549.818182 384.48 
L 549.818182 51.84 
" style="fill: none; stroke: #000000; stroke-width: 0.8; stroke-linejoin: miter; stroke-linecap: square"/>
   </g>
   <g id="patch_5">
    <path d="M 144 384.48 
L 549.818182 384.48 
" style="fill: none; stroke: #000000; stroke-width: 0.8; stroke-linejoin: miter; stroke-linecap: square"/>
   </g>
   <g id="patch_6">
    <path d="M 144 51.84 
L 549.818182 51.84 
" style="fill: none; stroke: #000000; stroke-width: 0.8; stroke-linejoin: miter; stroke-linecap: square"/>
   </g>
   <g id="text_17">
    <!-- Cubic Curve: $y = x^3 + 7$ -->
    <g transform="translate(277.849091 45.84) scale(0.12 -0.12)">
     <defs>
      <path id="DejaVuSans-43" d="M 4122 4306 
L 4122 3641 
Q 3803 3938 3442 4084 
Q 3081 4231 2675 4231 
Q 1875 4231 1450 3742 
Q 1025 3253 1025 2328 
Q 1025 1406 1450 917 
Q 1875 428 2675 428 
Q 3081 428 3442 575 
Q 3803 722 4122 1019 
L 4122 359 
Q 3791 134 3420 21 
Q 3050 -91 2638 -91 
Q 1578 -91 968 557 
Q 359 1206 359 2328 
Q 359 3453 968 4101 
Q 1578 4750 2638 4750 
Q 3056 4750 3426 4639 
Q 3797 4528 4122 4306 
z
" transform="scale(0.015625)"/>
      <path id="DejaVuSans-75" d="M 544 1381 
L 544 3500 
L 1119 3500 
L 1119 1403 
Q 1119 906 1312 657 
Q 1506 409 1894 409 
Q 2359 409 2629 706 
Q 2900 1003 2900 1516 
L 2900 3500 
L 3475 3500 
L 3475 0 
L 2900 0 
L 2900 538 
Q 2691 219 2414 64 
Q 2138 -91 1772 -91 
Q 1169 -91 856 284 
Q 544 659 544 1381 
z
M 1991 3584 
L 1991 3584 
z
" transform="scale(0.015625)"/>
      <path id="DejaVuSans-62" d="M 3116 1747 
Q 3116 2381 2855 2742 
Q 2594 3103 2138 3103 
Q 1681 3103 1420 2742 
Q 1159 2381 1159 1747 
Q 1159 1113 1420 752 
Q 1681 391 2138 391 
Q 2594 391 2855 752 
Q 3116 1113 3116 1747 
z
M 1159 2969 
Q 1341 3281 1617 3432 
Q 1894 3584 2278 3584 
Q 2916 3584 3314 3078 
Q 3713 2572 3713 1747 
Q 3713 922 3314 415 
Q 2916 -91 2278 -91 
Q 1894 -91 1617 61 
Q 1341 213 1159 525 
L 1159 0 
L 581 0 
L 581 4863 
L 1159 4863 
L 1159 2969 
z
" transform="scale(0.015625)"/>
      <path id="DejaVuSans-69" d="M 603 3500 
L 1178 3500 
L 1178 0 
L 603 0 
L 603 3500 
z
M 603 4863 
L 1178 4863 
L 1178 4134 
L 603 4134 
L 603 4863 
z
" transform="scale(0.015625)"/>
      <path id="DejaVuSans-63" d="M 3122 3366 
L 3122 2828 
Q 2878 2963 2633 3030 
Q 2388 3097 2138 3097 
Q 1578 3097 1268 2742 
Q 959 2388 959 1747 
Q 959 1106 1268 751 
Q 1578 397 2138 397 
Q 2388 397 2633 464 
Q 2878 531 3122 666 
L 3122 134 
Q 2881 22 2623 -34 
Q 2366 -91 2075 -91 
Q 1284 -91 818 406 
Q 353 903 353 1747 
Q 353 2603 823 3093 
Q 1294 3584 2113 3584 
Q 2378 3584 2631 3529 
Q 2884 3475 3122 3366 
z
" transform="scale(0.015625)"/>
      <path id="DejaVuSans-20" transform="scale(0.015625)"/>
      <path id="DejaVuSans-72" d="M 2631 2963 
Q 2534 3019 2420 3045 
Q 2306 3072 2169 3072 
Q 1681 3072 1420 2755 
Q 1159 2438 1159 1844 
L 1159 0 
L 581 0 
L 581 3500 
L 1159 3500 
L 1159 2956 
Q 1341 3275 1631 3429 
Q 1922 3584 2338 3584 
Q 2397 3584 2469 3576 
Q 2541 3569 2628 3553 
L 2631 2963 
z
" transform="scale(0.015625)"/>
      <path id="DejaVuSans-76" d="M 191 3500 
L 800 3500 
L 1894 563 
L 2988 3500 
L 3597 3500 
L 2284 0 
L 1503 0 
L 191 3500 
z
" transform="scale(0.015625)"/>
      <path id="DejaVuSans-65" d="M 3597 1894 
L 3597 1613 
L 953 1613 
Q 991 1019 1311 708 
Q 1631 397 2203 397 
Q 2534 397 2845 478 
Q 3156 559 3463 722 
L 3463 178 
Q 3153 47 2828 -22 
Q 2503 -91 2169 -91 
Q 1331 -91 842 396 
Q 353 884 353 1716 
Q 353 2575 817 3079 
Q 1281 3584 2069 3584 
Q 2775 3584 3186 3129 
Q 3597 2675 3597 1894 
z
M 3022 2063 
Q 3016 2534 2758 2815 
Q 2500 3097 2075 3097 
Q 1594 3097 1305 2825 
Q 1016 2553 972 2059 
L 3022 2063 
z
" transform="scale(0.015625)"/>
      <path id="DejaVuSans-3a" d="M 750 794 
L 1409 794 
L 1409 0 
L 750 0 
L 750 794 
z
M 750 3309 
L 1409 3309 
L 1409 2516 
L 750 2516 
L 750 3309 
z
" transform="scale(0.015625)"/>
      <path id="DejaVuSans-Oblique-79" d="M 1588 -325 
Q 1188 -997 936 -1164 
Q 684 -1331 294 -1331 
L -159 -1331 
L -63 -850 
L 269 -850 
Q 509 -850 678 -719 
Q 847 -588 1056 -206 
L 1234 128 
L 459 3500 
L 1069 3500 
L 1650 819 
L 3256 3500 
L 3859 3500 
L 1588 -325 
z
" transform="scale(0.015625)"/>
      <path id="DejaVuSans-3d" d="M 678 2906 
L 4684 2906 
L 4684 2381 
L 678 2381 
L 678 2906 
z
M 678 1631 
L 4684 1631 
L 4684 1100 
L 678 1100 
L 678 1631 
z
" transform="scale(0.015625)"/>
      <path id="DejaVuSans-Oblique-78" d="M 3841 3500 
L 2234 1784 
L 3219 0 
L 2559 0 
L 1819 1388 
L 531 0 
L -166 0 
L 1556 1844 
L 641 3500 
L 1300 3500 
L 1972 2234 
L 3144 3500 
L 3841 3500 
z
" transform="scale(0.015625)"/>
      <path id="DejaVuSans-33" d="M 2597 2516 
Q 3050 2419 3304 2112 
Q 3559 1806 3559 1356 
Q 3559 666 3084 287 
Q 2609 -91 1734 -91 
Q 1441 -91 1130 -33 
Q 819 25 488 141 
L 488 750 
Q 750 597 1062 519 
Q 1375 441 1716 441 
Q 2309 441 2620 675 
Q 2931 909 2931 1356 
Q 2931 1769 2642 2001 
Q 2353 2234 1838 2234 
L 1294 2234 
L 1294 2753 
L 1863 2753 
Q 2328 2753 2575 2939 
Q 2822 3125 2822 3475 
Q 2822 3834 2567 4026 
Q 2313 4219 1838 4219 
Q 1578 4219 1281 4162 
Q 984 4106 628 3988 
L 628 4550 
Q 988 4650 1302 4700 
Q 1616 4750 1894 4750 
Q 2613 4750 3031 4423 
Q 3450 4097 3450 3541 
Q 3450 3153 3228 2886 
Q 3006 2619 2597 2516 
z
" transform="scale(0.015625)"/>
      <path id="DejaVuSans-2b" d="M 2944 4013 
L 2944 2272 
L 4684 2272 
L 4684 1741 
L 2944 1741 
L 2944 0 
L 2419 0 
L 2419 1741 
L 678 1741 
L 678 2272 
L 2419 2272 
L 2419 4013 
L 2944 4013 
z
" transform="scale(0.015625)"/>
      <path id="DejaVuSans-37" d="M 525 4666 
L 3525 4666 
L 3525 4397 
L 1831 0 
L 1172 0 
L 2766 4134 
L 525 4134 
L 525 4666 
z
" transform="scale(0.015625)"/>
     </defs>
     <use xlink:href="#DejaVuSans-43" transform="translate(0 0.765625)"/>
     <use xlink:href="#DejaVuSans-75" transform="translate(69.824219 0.765625)"/>
     <use xlink:href="#DejaVuSans-62" transform="translate(133.203125 0.765625)"/>
     <use xlink:href="#DejaVuSans-69" transform="translate(196.679688 0.765625)"/>
     <use xlink:href="#DejaVuSans-63" transform="translate(224.462891 0.765625)"/>
     <use xlink:href="#DejaVuSans-20" transform="translate(279.443359 0.765625)"/>
     <use xlink:href="#DejaVuSans-43" transform="translate(311.230469 0.765625)"/>
     <use xlink:href="#DejaVuSans-75" transform="translate(381.054688 0.765625)"/>
     <use xlink:href="#DejaVuSans-72" transform="translate(444.433594 0.765625)"/>
     <use xlink:href="#DejaVuSans-76" transform="translate(485.546875 0.765625)"/>
     <use xlink:href="#DejaVuSans-65" transform="translate(544.726562 0.765625)"/>
     <use xlink:href="#DejaVuSans-3a" transform="translate(606.25 0.765625)"/>
     <use xlink:href="#DejaVuSans-20" transform="translate(639.941406 0.765625)"/>
     <use xlink:href="#DejaVuSans-Oblique-79" transform="translate(671.728516 0.765625)"/>
     <use xlink:href="#DejaVuSans-3d" transform="translate(750.390625 0.765625)"/>
     <use xlink:href="#DejaVuSans-Oblique-78" transform="translate(853.662109 0.765625)"/>
     <use xlink:href="#DejaVuSans-33" transform="translate(917.307943 39.046875) scale(0.7)"/>
     <use xlink:href="#DejaVuSans-2b" transform="translate(984.060872 0.765625)"/>
     <use xlink:href="#DejaVuSans-37" transform="translate(1087.332357 0.765625)"/>
    </g>
   </g>
   <g id="legend_1">
    <g id="patch_7">
     <path d="M 418.418182 92.24 
L 542.818182 92.24 
Q 544.818182 92.24 544.818182 90.24 
L 544.818182 58.84 
Q 544.818182 56.84 542.818182 56.84 
L 418.418182 56.84 
Q 416.418182 56.84 416.418182 58.84 
L 416.418182 90.24 
Q 416.418182 92.24 418.418182 92.24 
z
" style="fill: #ffffff; opacity: 0.8; stroke: #cccccc; stroke-linejoin: miter"/>
    </g>
    <g id="line2d_33">
     <path d="M 420.418182 66.44 
L 430.418182 66.44 
L 440.418182 66.44 
" style="fill: none; stroke: #4169e1; stroke-width: 3; stroke-linecap: square"/>
    </g>
    <g id="text_18">
     <!-- $y = x^3 + ax + b$ -->
     <g transform="translate(448.418182 69.94) scale(0.1 -0.1)">
      <defs>
       <path id="DejaVuSans-Oblique-61" d="M 3438 1997 
L 3047 0 
L 2472 0 
L 2578 531 
Q 2325 219 2001 64 
Q 1678 -91 1281 -91 
Q 834 -91 548 182 
Q 263 456 263 884 
Q 263 1497 752 1853 
Q 1241 2209 2100 2209 
L 2900 2209 
L 2931 2363 
Q 2938 2388 2941 2417 
Q 2944 2447 2944 2509 
Q 2944 2788 2717 2942 
Q 2491 3097 2081 3097 
Q 1800 3097 1504 3025 
Q 1209 2953 897 2809 
L 997 3341 
Q 1322 3463 1633 3523 
Q 1944 3584 2234 3584 
Q 2853 3584 3176 3315 
Q 3500 3047 3500 2534 
Q 3500 2431 3484 2292 
Q 3469 2153 3438 1997 
z
M 2816 1759 
L 2241 1759 
Q 1534 1759 1195 1570 
Q 856 1381 856 984 
Q 856 709 1029 553 
Q 1203 397 1509 397 
Q 1978 397 2328 733 
Q 2678 1069 2791 1631 
L 2816 1759 
z
" transform="scale(0.015625)"/>
       <path id="DejaVuSans-Oblique-62" d="M 3169 2138 
Q 3169 2591 2961 2847 
Q 2753 3103 2388 3103 
Q 2122 3103 1889 2973 
Q 1656 2844 1484 2597 
Q 1303 2338 1198 1995 
Q 1094 1653 1094 1313 
Q 1094 881 1298 636 
Q 1503 391 1863 391 
Q 2134 391 2365 517 
Q 2597 644 2772 891 
Q 2950 1147 3059 1487 
Q 3169 1828 3169 2138 
z
M 1381 2969 
Q 1594 3256 1914 3420 
Q 2234 3584 2584 3584 
Q 3122 3584 3439 3221 
Q 3756 2859 3756 2241 
Q 3756 1734 3570 1259 
Q 3384 784 3041 416 
Q 2816 172 2522 40 
Q 2228 -91 1906 -91 
Q 1566 -91 1316 65 
Q 1066 222 909 531 
L 806 0 
L 231 0 
L 1178 4863 
L 1753 4863 
L 1381 2969 
z
" transform="scale(0.015625)"/>
      </defs>
      <use xlink:href="#DejaVuSans-Oblique-79" transform="translate(0 0.765625)"/>
      <use xlink:href="#DejaVuSans-3d" transform="translate(78.662109 0.765625)"/>
      <use xlink:href="#DejaVuSans-Oblique-78" transform="translate(181.933594 0.765625)"/>
      <use xlink:href="#DejaVuSans-33" transform="translate(245.579427 39.046875) scale(0.7)"/>
      <use xlink:href="#DejaVuSans-2b" transform="translate(312.332357 0.765625)"/>
      <use xlink:href="#DejaVuSans-Oblique-61" transform="translate(415.603841 0.765625)"/>
      <use xlink:href="#DejaVuSans-Oblique-78" transform="translate(476.883138 0.765625)"/>
      <use xlink:href="#DejaVuSans-2b" transform="translate(555.545247 0.765625)"/>
      <use xlink:href="#DejaVuSans-Oblique-62" transform="translate(658.816732 0.765625)"/>
     </g>
    </g>
    <g id="line2d_34">
     <path d="M 420.418182 82.64 
L 430.418182 82.64 
L 440.418182 82.64 
" style="fill: none; stroke: #ff0000; stroke-width: 3; stroke-linecap: square"/>
    </g>
    <g id="text_19">
     <!-- $y = -(x^3 + ax + b)$ -->
     <g transform="translate(448.418182 86.14) scale(0.1 -0.1)">
      <defs>
       <path id="DejaVuSans-28" d="M 1984 4856 
Q 1566 4138 1362 3434 
Q 1159 2731 1159 2009 
Q 1159 1288 1364 580 
Q 1569 -128 1984 -844 
L 1484 -844 
Q 1016 -109 783 600 
Q 550 1309 550 2009 
Q 550 2706 781 3412 
Q 1013 4119 1484 4856 
L 1984 4856 
z
" transform="scale(0.015625)"/>
       <path id="DejaVuSans-29" d="M 513 4856 
L 1013 4856 
Q 1481 4119 1714 3412 
Q 1947 2706 1947 2009 
Q 1947 1309 1714 600 
Q 1481 -109 1013 -844 
L 513 -844 
Q 928 -128 1133 580 
Q 1338 1288 1338 2009 
Q 1338 2731 1133 3434 
Q 928 4138 513 4856 
z
" transform="scale(0.015625)"/>
      </defs>
      <use xlink:href="#DejaVuSans-Oblique-79" transform="translate(0 0.765625)"/>
      <use xlink:href="#DejaVuSans-3d" transform="translate(78.662109 0.765625)"/>
      <use xlink:href="#DejaVuSans-2212" transform="translate(201.416016 0.765625)"/>
      <use xlink:href="#DejaVuSans-28" transform="translate(304.6875 0.765625)"/>
      <use xlink:href="#DejaVuSans-Oblique-78" transform="translate(343.701172 0.765625)"/>
      <use xlink:href="#DejaVuSans-33" transform="translate(407.347005 39.046875) scale(0.7)"/>
      <use xlink:href="#DejaVuSans-2b" transform="translate(474.099935 0.765625)"/>
      <use xlink:href="#DejaVuSans-Oblique-61" transform="translate(577.371419 0.765625)"/>
      <use xlink:href="#DejaVuSans-Oblique-78" transform="translate(638.650716 0.765625)"/>
      <use xlink:href="#DejaVuSans-2b" transform="translate(717.312826 0.765625)"/>
      <use xlink:href="#DejaVuSans-Oblique-62" transform="translate(820.58431 0.765625)"/>
      <use xlink:href="#DejaVuSans-29" transform="translate(884.060872 0.765625)"/>
     </g>
    </g>
   </g>
  </g>
  <g id="axes_2">
   <g id="patch_8">
    <path d="M 630.981818 384.48 
L 1036.8 384.48 
L 1036.8 51.84 
L 630.981818 51.84 
z
" style="fill: #ffffff"/>
   </g>
   <g id="matplotlib.axis_3">
    <g id="xtick_10">
     <g id="line2d_35">
      <path d="M 653.527273 384.48 
L 653.527273 51.84 
" clip-path="url(#p7f33904bba)" style="fill: none; stroke: #b0b0b0; stroke-width: 0.8; stroke-linecap: square"/>
     </g>
     <g id="line2d_36">
      <g>
       <use xlink:href="#m7033280b46" x="653.527273" y="384.48" style="stroke: #000000; stroke-width: 0.8"/>
      </g>
     </g>
     <g id="text_20">
      <!-- −8 -->
      <g transform="translate(646.156179 399.078438) scale(0.1 -0.1)">
       <use xlink:href="#DejaVuSans-2212"/>
       <use xlink:href="#DejaVuSans-38" x="83.789062"/>
      </g>
     </g>
    </g>
    <g id="xtick_11">
     <g id="line2d_37">
      <path d="M 698.618182 384.48 
L 698.618182 51.84 
" clip-path="url(#p7f33904bba)" style="fill: none; stroke: #b0b0b0; stroke-width: 0.8; stroke-linecap: square"/>
     </g>
     <g id="line2d_38">
      <g>
       <use xlink:href="#m7033280b46" x="698.618182" y="384.48" style="stroke: #000000; stroke-width: 0.8"/>
      </g>
     </g>
     <g id="text_21">
      <!-- −6 -->
      <g transform="translate(691.247088 399.078438) scale(0.1 -0.1)">
       <use xlink:href="#DejaVuSans-2212"/>
       <use xlink:href="#DejaVuSans-36" x="83.789062"/>
      </g>
     </g>
    </g>
    <g id="xtick_12">
     <g id="line2d_39">
      <path d="M 743.709091 384.48 
L 743.709091 51.84 
" clip-path="url(#p7f33904bba)" style="fill: none; stroke: #b0b0b0; stroke-width: 0.8; stroke-linecap: square"/>
     </g>
     <g id="line2d_40">
      <g>
       <use xlink:href="#m7033280b46" x="743.709091" y="384.48" style="stroke: #000000; stroke-width: 0.8"/>
      </g>
     </g>
     <g id="text_22">
      <!-- −4 -->
      <g transform="translate(736.337997 399.078438) scale(0.1 -0.1)">
       <use xlink:href="#DejaVuSans-2212"/>
       <use xlink:href="#DejaVuSans-34" x="83.789062"/>
      </g>
     </g>
    </g>
    <g id="xtick_13">
     <g id="line2d_41">
      <path d="M 788.8 384.48 
L 788.8 51.84 
" clip-path="url(#p7f33904bba)" style="fill: none; stroke: #b0b0b0; stroke-width: 0.8; stroke-linecap: square"/>
     </g>
     <g id="line2d_42">
      <g>
       <use xlink:href="#m7033280b46" x="788.8" y="384.48" style="stroke: #000000; stroke-width: 0.8"/>
      </g>
     </g>
     <g id="text_23">
      <!-- −2 -->
      <g transform="translate(781.428906 399.078438) scale(0.1 -0.1)">
       <use xlink:href="#DejaVuSans-2212"/>
       <use xlink:href="#DejaVuSans-32" x="83.789062"/>
      </g>
     </g>
    </g>
    <g id="xtick_14">
     <g id="line2d_43">
      <path d="M 833.890909 384.48 
L 833.890909 51.84 
" clip-path="url(#p7f33904bba)" style="fill: none; stroke: #b0b0b0; stroke-width: 0.8; stroke-linecap: square"/>
     </g>
     <g id="line2d_44">
      <g>
       <use xlink:href="#m7033280b46" x="833.890909" y="384.48" style="stroke: #000000; stroke-width: 0.8"/>
      </g>
     </g>
     <g id="text_24">
      <!-- 0 -->
      <g transform="translate(830.709659 399.078438) scale(0.1 -0.1)">
       <use xlink:href="#DejaVuSans-30"/>
      </g>
     </g>
    </g>
    <g id="xtick_15">
     <g id="line2d_45">
      <path d="M 878.981818 384.48 
L 878.981818 51.84 
" clip-path="url(#p7f33904bba)" style="fill: none; stroke: #b0b0b0; stroke-width: 0.8; stroke-linecap: square"/>
     </g>
     <g id="line2d_46">
      <g>
       <use xlink:href="#m7033280b46" x="878.981818" y="384.48" style="stroke: #000000; stroke-width: 0.8"/>
      </g>
     </g>
     <g id="text_25">
      <!-- 2 -->
      <g transform="translate(875.800568 399.078438) scale(0.1 -0.1)">
       <use xlink:href="#DejaVuSans-32"/>
      </g>
     </g>
    </g>
    <g id="xtick_16">
     <g id="line2d_47">
      <path d="M 924.072727 384.48 
L 924.072727 51.84 
" clip-path="url(#p7f33904bba)" style="fill: none; stroke: #b0b0b0; stroke-width: 0.8; stroke-linecap: square"/>
     </g>
     <g id="line2d_48">
      <g>
       <use xlink:href="#m7033280b46" x="924.072727" y="384.48" style="stroke: #000000; stroke-width: 0.8"/>
      </g>
     </g>
     <g id="text_26">
      <!-- 4 -->
      <g transform="translate(920.891477 399.078438) scale(0.1 -0.1)">
       <use xlink:href="#DejaVuSans-34"/>
      </g>
     </g>
    </g>
    <g id="xtick_17">
     <g id="line2d_49">
      <path d="M 969.163636 384.48 
L 969.163636 51.84 
" clip-path="url(#p7f33904bba)" style="fill: none; stroke: #b0b0b0; stroke-width: 0.8; stroke-linecap: square"/>
     </g>
     <g id="line2d_50">
      <g>
       <use xlink:href="#m7033280b46" x="969.163636" y="384.48" style="stroke: #000000; stroke-width: 0.8"/>
      </g>
     </g>
     <g id="text_27">
      <!-- 6 -->
      <g transform="translate(965.982386 399.078438) scale(0.1 -0.1)">
       <use xlink:href="#DejaVuSans-36"/>
      </g>
     </g>
    </g>
    <g id="xtick_18">
     <g id="line2d_51">
      <path d="M 1014.254545 384.48 
L 1014.254545 51.84 
" clip-path="url(#p7f33904bba)" style="fill: none; stroke: #b0b0b0; stroke-width: 0.8; stroke-linecap: square"/>
     </g>
     <g id="line2d_52">
      <g>
       <use xlink:href="#m7033280b46" x="1014.254545" y="384.48" style="stroke: #000000; stroke-width: 0.8"/>
      </g>
     </g>
     <g id="text_28">
      <!-- 8 -->
      <g transform="translate(1011.073295 399.078438) scale(0.1 -0.1)">
       <use xlink:href="#DejaVuSans-38"/>
      </g>
     </g>
    </g>
    <g id="text_29">
     <!-- x -->
     <g transform="translate(830.931534 412.756563) scale(0.1 -0.1)">
      <use xlink:href="#DejaVuSans-78"/>
     </g>
    </g>
   </g>
   <g id="matplotlib.axis_4">
    <g id="ytick_6">
     <g id="line2d_53">
      <path d="M 630.981818 336.96 
L 1036.8 336.96 
" clip-path="url(#p7f33904bba)" style="fill: none; stroke: #b0b0b0; stroke-width: 0.8; stroke-linecap: square"/>
     </g>
     <g id="line2d_54">
      <g>
       <use xlink:href="#m6befceaf49" x="630.981818" y="336.96" style="stroke: #000000; stroke-width: 0.8"/>
      </g>
     </g>
     <g id="text_30">
      <!-- −10 -->
      <g transform="translate(602.877131 340.759219) scale(0.1 -0.1)">
       <use xlink:href="#DejaVuSans-2212"/>
       <use xlink:href="#DejaVuSans-31" x="83.789062"/>
       <use xlink:href="#DejaVuSans-30" x="147.412109"/>
      </g>
     </g>
    </g>
    <g id="ytick_7">
     <g id="line2d_55">
      <path d="M 630.981818 277.56 
L 1036.8 277.56 
" clip-path="url(#p7f33904bba)" style="fill: none; stroke: #b0b0b0; stroke-width: 0.8; stroke-linecap: square"/>
     </g>
     <g id="line2d_56">
      <g>
       <use xlink:href="#m6befceaf49" x="630.981818" y="277.56" style="stroke: #000000; stroke-width: 0.8"/>
      </g>
     </g>
     <g id="text_31">
      <!-- −5 -->
      <g transform="translate(609.239631 281.359219) scale(0.1 -0.1)">
       <use xlink:href="#DejaVuSans-2212"/>
       <use xlink:href="#DejaVuSans-35" x="83.789062"/>
      </g>
     </g>
    </g>
    <g id="ytick_8">
     <g id="line2d_57">
      <path d="M 630.981818 218.16 
L 1036.8 218.16 
" clip-path="url(#p7f33904bba)" style="fill: none; stroke: #b0b0b0; stroke-width: 0.8; stroke-linecap: square"/>
     </g>
     <g id="line2d_58">
      <g>
       <use xlink:href="#m6befceaf49" x="630.981818" y="218.16" style="stroke: #000000; stroke-width: 0.8"/>
      </g>
     </g>
     <g id="text_32">
      <!-- 0 -->
      <g transform="translate(617.619318 221.959219) scale(0.1 -0.1)">
       <use xlink:href="#DejaVuSans-30"/>
      </g>
     </g>
    </g>
    <g id="ytick_9">
     <g id="line2d_59">
      <path d="M 630.981818 158.76 
L 1036.8 158.76 
" clip-path="url(#p7f33904bba)" style="fill: none; stroke: #b0b0b0; stroke-width: 0.8; stroke-linecap: square"/>
     </g>
     <g id="line2d_60">
      <g>
       <use xlink:href="#m6befceaf49" x="630.981818" y="158.76" style="stroke: #000000; stroke-width: 0.8"/>
      </g>
     </g>
     <g id="text_33">
      <!-- 5 -->
      <g transform="translate(617.619318 162.559219) scale(0.1 -0.1)">
       <use xlink:href="#DejaVuSans-35"/>
      </g>
     </g>
    </g>
    <g id="ytick_10">
     <g id="line2d_61">
      <path d="M 630.981818 99.36 
L 1036.8 99.36 
" clip-path="url(#p7f33904bba)" style="fill: none; stroke: #b0b0b0; stroke-width: 0.8; stroke-linecap: square"/>
     </g>
     <g id="line2d_62">
      <g>
       <use xlink:href="#m6befceaf49" x="630.981818" y="99.36" style="stroke: #000000; stroke-width: 0.8"/>
      </g>
     </g>
     <g id="text_34">
      <!-- 10 -->
      <g transform="translate(611.256818 103.159219) scale(0.1 -0.1)">
       <use xlink:href="#DejaVuSans-31"/>
       <use xlink:href="#DejaVuSans-30" x="63.623047"/>
      </g>
     </g>
    </g>
    <g id="text_35">
     <!-- y -->
     <g transform="translate(596.797443 221.119375) rotate(-90) scale(0.1 -0.1)">
      <use xlink:href="#DejaVuSans-79"/>
     </g>
    </g>
   </g>
   <g id="line2d_63">
    <path d="M 790.812685 216.313357 
L 791.117125 213.247123 
L 791.624524 210.542245 
L 792.334884 207.955449 
L 793.248203 205.466121 
L 794.364482 203.079983 
L 795.683721 200.809364 
L 797.10444 198.79879 
L 798.728118 196.887791 
L 800.453277 195.19237 
L 802.381395 193.610931 
L 804.410994 192.22903 
L 806.643552 190.978958 
L 809.07907 189.87888 
L 811.717548 188.942204 
L 814.558985 188.177286 
L 817.704863 187.570528 
L 821.15518 187.135813 
L 825.214376 186.856703 
L 830.491332 186.736173 
L 843.785201 186.53928 
L 847.945877 186.189162 
L 851.599154 185.658781 
L 854.947992 184.949636 
L 858.195349 184.031519 
L 861.341226 182.908315 
L 864.487104 181.544654 
L 867.632981 179.936177 
L 870.880338 178.019885 
L 874.229175 175.77715 
L 877.679493 173.193526 
L 881.33277 170.170553 
L 885.087526 166.773365 
L 889.045243 162.894751 
L 893.3074 158.400039 
L 897.772516 153.364012 
L 902.542072 147.642789 
L 907.616068 141.198183 
L 912.893023 134.133195 
L 918.474419 126.2871 
L 924.360254 117.625359 
L 930.550529 108.113864 
L 937.045243 97.718628 
L 943.742918 86.577536 
L 950.745032 74.496878 
L 958.051586 61.441863 
L 965.561099 47.567917 
L 973.375053 32.661252 
L 981.493446 16.685965 
L 989.814799 -0.185406 
L 990.210547 -1 
L 990.210547 -1 
" clip-path="url(#p7f33904bba)" style="fill: none; stroke: #4169e1; stroke-width: 3; stroke-linecap: square"/>
   </g>
   <g id="line2d_64">
    <path d="M 790.812685 220.006643 
L 791.117125 223.072877 
L 791.624524 225.777755 
L 792.334884 228.364551 
L 793.248203 230.853879 
L 794.364482 233.240017 
L 795.683721 235.510636 
L 797.10444 237.52121 
L 798.728118 239.432209 
L 800.453277 241.12763 
L 802.381395 242.709069 
L 804.410994 244.09097 
L 806.643552 245.341042 
L 809.07907 246.44112 
L 811.717548 247.377796 
L 814.558985 248.142714 
L 817.704863 248.749472 
L 821.15518 249.184187 
L 825.214376 249.463297 
L 830.491332 249.583827 
L 843.785201 249.78072 
L 847.945877 250.130838 
L 851.599154 250.661219 
L 854.947992 251.370364 
L 858.195349 252.288481 
L 861.341226 253.411685 
L 864.487104 254.775346 
L 867.632981 256.383823 
L 870.880338 258.300115 
L 874.229175 260.54285 
L 877.679493 263.126474 
L 881.33277 266.149447 
L 885.087526 269.546635 
L 889.045243 273.425249 
L 893.3074 277.919961 
L 897.772516 282.955988 
L 902.542072 288.677211 
L 907.616068 295.121817 
L 912.893023 302.186805 
L 918.474419 310.0329 
L 924.360254 318.694641 
L 930.550529 328.206136 
L 937.045243 338.601372 
L 943.742918 349.742464 
L 950.745032 361.823122 
L 958.051586 374.878137 
L 965.561099 388.752083 
L 973.375053 403.658748 
L 981.493446 419.634035 
L 988.105652 433 
L 988.105652 433 
" clip-path="url(#p7f33904bba)" style="fill: none; stroke: #ff0000; stroke-width: 3; stroke-linecap: square"/>
   </g>
   <g id="line2d_65">
    <path d="M 630.981818 218.16 
L 1036.8 218.16 
" clip-path="url(#p7f33904bba)" style="fill: none; stroke: #1f77b4; stroke-width: 1.5; stroke-linecap: square"/>
   </g>
   <g id="line2d_66">
    <path d="M 833.890909 384.48 
L 833.890909 51.84 
" clip-path="url(#p7f33904bba)" style="fill: none; stroke: #1f77b4; stroke-width: 1.5; stroke-linecap: square"/>
   </g>
   <g id="patch_9">
    <path d="M 630.981818 384.48 
L 630.981818 51.84 
" style="fill: none; stroke: #000000; stroke-width: 0.8; stroke-linejoin: miter; stroke-linecap: square"/>
   </g>
   <g id="patch_10">
    <path d="M 1036.8 384.48 
L 1036.8 51.84 
" style="fill: none; stroke: #000000; stroke-width: 0.8; stroke-linejoin: miter; stroke-linecap: square"/>
   </g>
   <g id="patch_11">
    <path d="M 630.981818 384.48 
L 1036.8 384.48 
" style="fill: none; stroke: #000000; stroke-width: 0.8; stroke-linejoin: miter; stroke-linecap: square"/>
   </g>
   <g id="patch_12">
    <path d="M 630.981818 51.84 
L 1036.8 51.84 
" style="fill: none; stroke: #000000; stroke-width: 0.8; stroke-linejoin: miter; stroke-linecap: square"/>
   </g>
   <g id="text_36">
    <!-- Elliptic Curve: $y^2 = x^3 + 0x + 7$ -->
    <g transform="translate(743.830909 45.84) scale(0.12 -0.12)">
     <defs>
      <path id="DejaVuSans-45" d="M 628 4666 
L 3578 4666 
L 3578 4134 
L 1259 4134 
L 1259 2753 
L 3481 2753 
L 3481 2222 
L 1259 2222 
L 1259 531 
L 3634 531 
L 3634 0 
L 628 0 
L 628 4666 
z
" transform="scale(0.015625)"/>
      <path id="DejaVuSans-6c" d="M 603 4863 
L 1178 4863 
L 1178 0 
L 603 0 
L 603 4863 
z
" transform="scale(0.015625)"/>
      <path id="DejaVuSans-70" d="M 1159 525 
L 1159 -1331 
L 581 -1331 
L 581 3500 
L 1159 3500 
L 1159 2969 
Q 1341 3281 1617 3432 
Q 1894 3584 2278 3584 
Q 2916 3584 3314 3078 
Q 3713 2572 3713 1747 
Q 3713 922 3314 415 
Q 2916 -91 2278 -91 
Q 1894 -91 1617 61 
Q 1341 213 1159 525 
z
M 3116 1747 
Q 3116 2381 2855 2742 
Q 2594 3103 2138 3103 
Q 1681 3103 1420 2742 
Q 1159 2381 1159 1747 
Q 1159 1113 1420 752 
Q 1681 391 2138 391 
Q 2594 391 2855 752 
Q 3116 1113 3116 1747 
z
" transform="scale(0.015625)"/>
      <path id="DejaVuSans-74" d="M 1172 4494 
L 1172 3500 
L 2356 3500 
L 2356 3053 
L 1172 3053 
L 1172 1153 
Q 1172 725 1289 603 
Q 1406 481 1766 481 
L 2356 481 
L 2356 0 
L 1766 0 
Q 1100 0 847 248 
Q 594 497 594 1153 
L 594 3053 
L 172 3053 
L 172 3500 
L 594 3500 
L 594 4494 
L 1172 4494 
z
" transform="scale(0.015625)"/>
     </defs>
     <use xlink:href="#DejaVuSans-45" transform="translate(0 0.765625)"/>
     <use xlink:href="#DejaVuSans-6c" transform="translate(63.183594 0.765625)"/>
     <use xlink:href="#DejaVuSans-6c" transform="translate(90.966797 0.765625)"/>
     <use xlink:href="#DejaVuSans-69" transform="translate(118.75 0.765625)"/>
     <use xlink:href="#DejaVuSans-70" transform="translate(146.533203 0.765625)"/>
     <use xlink:href="#DejaVuSans-74" transform="translate(210.009766 0.765625)"/>
     <use xlink:href="#DejaVuSans-69" transform="translate(249.21875 0.765625)"/>
     <use xlink:href="#DejaVuSans-63" transform="translate(277.001953 0.765625)"/>
     <use xlink:href="#DejaVuSans-20" transform="translate(331.982422 0.765625)"/>
     <use xlink:href="#DejaVuSans-43" transform="translate(363.769531 0.765625)"/>
     <use xlink:href="#DejaVuSans-75" transform="translate(433.59375 0.765625)"/>
     <use xlink:href="#DejaVuSans-72" transform="translate(496.972656 0.765625)"/>
     <use xlink:href="#DejaVuSans-76" transform="translate(538.085938 0.765625)"/>
     <use xlink:href="#DejaVuSans-65" transform="translate(597.265625 0.765625)"/>
     <use xlink:href="#DejaVuSans-3a" transform="translate(658.789062 0.765625)"/>
     <use xlink:href="#DejaVuSans-20" transform="translate(692.480469 0.765625)"/>
     <use xlink:href="#DejaVuSans-Oblique-79" transform="translate(724.267578 0.765625)"/>
     <use xlink:href="#DejaVuSans-32" transform="translate(787.913411 39.046875) scale(0.7)"/>
     <use xlink:href="#DejaVuSans-3d" transform="translate(854.666341 0.765625)"/>
     <use xlink:href="#DejaVuSans-Oblique-78" transform="translate(957.937826 0.765625)"/>
     <use xlink:href="#DejaVuSans-33" transform="translate(1021.583659 39.046875) scale(0.7)"/>
     <use xlink:href="#DejaVuSans-2b" transform="translate(1088.336589 0.765625)"/>
     <use xlink:href="#DejaVuSans-30" transform="translate(1191.608073 0.765625)"/>
     <use xlink:href="#DejaVuSans-Oblique-78" transform="translate(1255.23112 0.765625)"/>
     <use xlink:href="#DejaVuSans-2b" transform="translate(1333.893229 0.765625)"/>
     <use xlink:href="#DejaVuSans-37" transform="translate(1437.164714 0.765625)"/>
    </g>
   </g>
   <g id="legend_2">
    <g id="patch_13">
     <path d="M 637.981818 92.24 
L 767.481818 92.24 
Q 769.481818 92.24 769.481818 90.24 
L 769.481818 58.84 
Q 769.481818 56.84 767.481818 56.84 
L 637.981818 56.84 
Q 635.981818 56.84 635.981818 58.84 
L 635.981818 90.24 
Q 635.981818 92.24 637.981818 92.24 
z
" style="fill: #ffffff; opacity: 0.8; stroke: #cccccc; stroke-linejoin: miter"/>
    </g>
    <g id="line2d_67">
     <path d="M 639.981818 66.44 
L 649.981818 66.44 
L 659.981818 66.44 
" style="fill: none; stroke: #4169e1; stroke-width: 3; stroke-linecap: square"/>
    </g>
    <g id="text_37">
     <!-- $y^2 = x^3 + ax + b$ -->
     <g transform="translate(667.981818 69.94) scale(0.1 -0.1)">
      <use xlink:href="#DejaVuSans-Oblique-79" transform="translate(0 0.765625)"/>
      <use xlink:href="#DejaVuSans-32" transform="translate(63.645833 39.046875) scale(0.7)"/>
      <use xlink:href="#DejaVuSans-3d" transform="translate(130.398763 0.765625)"/>
      <use xlink:href="#DejaVuSans-Oblique-78" transform="translate(233.670247 0.765625)"/>
      <use xlink:href="#DejaVuSans-33" transform="translate(297.316081 39.046875) scale(0.7)"/>
      <use xlink:href="#DejaVuSans-2b" transform="translate(364.06901 0.765625)"/>
      <use xlink:href="#DejaVuSans-Oblique-61" transform="translate(467.340495 0.765625)"/>
      <use xlink:href="#DejaVuSans-Oblique-78" transform="translate(528.619792 0.765625)"/>
      <use xlink:href="#DejaVuSans-2b" transform="translate(607.281901 0.765625)"/>
      <use xlink:href="#DejaVuSans-Oblique-62" transform="translate(710.553385 0.765625)"/>
     </g>
    </g>
    <g id="line2d_68">
     <path d="M 639.981818 82.64 
L 649.981818 82.64 
L 659.981818 82.64 
" style="fill: none; stroke: #ff0000; stroke-width: 3; stroke-linecap: square"/>
    </g>
    <g id="text_38">
     <!-- $y^2 = -(x^3 + ax + b)$ -->
     <g transform="translate(667.981818 86.14) scale(0.1 -0.1)">
      <use xlink:href="#DejaVuSans-Oblique-79" transform="translate(0 0.765625)"/>
      <use xlink:href="#DejaVuSans-32" transform="translate(63.645833 39.046875) scale(0.7)"/>
      <use xlink:href="#DejaVuSans-3d" transform="translate(130.398763 0.765625)"/>
      <use xlink:href="#DejaVuSans-2212" transform="translate(253.152669 0.765625)"/>
      <use xlink:href="#DejaVuSans-28" transform="translate(356.424154 0.765625)"/>
      <use xlink:href="#DejaVuSans-Oblique-78" transform="translate(395.437826 0.765625)"/>
      <use xlink:href="#DejaVuSans-33" transform="translate(459.083659 39.046875) scale(0.7)"/>
      <use xlink:href="#DejaVuSans-2b" transform="translate(525.836589 0.765625)"/>
      <use xlink:href="#DejaVuSans-Oblique-61" transform="translate(629.108073 0.765625)"/>
      <use xlink:href="#DejaVuSans-Oblique-78" transform="translate(690.38737 0.765625)"/>
      <use xlink:href="#DejaVuSans-2b" transform="translate(769.049479 0.765625)"/>
      <use xlink:href="#DejaVuSans-Oblique-62" transform="translate(872.320964 0.765625)"/>
      <use xlink:href="#DejaVuSans-29" transform="translate(935.797526 0.765625)"/>
     </g>
    </g>
   </g>
  </g>
 </g>
 <defs>
  <clipPath id="p67dd57a6b7">
   <rect x="144" y="51.84" width="405.818182" height="332.64"/>
  </clipPath>
  <clipPath id="p7f33904bba">
   <rect x="630.981818" y="51.84" width="405.818182" height="332.64"/>
  </clipPath>
 </defs>
</svg>
