<?xml version="1.0" encoding="utf-8" standalone="no"?>
<!DOCTYPE svg PUBLIC "-//W3C//DTD SVG 1.1//EN"
  "http://www.w3.org/Graphics/SVG/1.1/DTD/svg11.dtd">
<svg xmlns:xlink="http://www.w3.org/1999/xlink" width="1152pt" height="432pt" viewBox="0 0 1152 432" xmlns="http://www.w3.org/2000/svg" version="1.1">
 <metadata>
  <rdf:RDF xmlns:dc="http://purl.org/dc/elements/1.1/" xmlns:cc="http://creativecommons.org/ns#" xmlns:rdf="http://www.w3.org/1999/02/22-rdf-syntax-ns#">
   <cc:Work>
    <dc:type rdf:resource="http://purl.org/dc/dcmitype/StillImage"/>
    <dc:date>2023-10-14T11:29:18.159853</dc:date>
    <dc:format>image/svg+xml</dc:format>
    <dc:creator>
     <cc:Agent>
      <dc:title>Matplotlib v3.8.0, https://matplotlib.org/</dc:title>
     </cc:Agent>
    </dc:creator>
   </cc:Work>
  </rdf:RDF>
 </metadata>
 <defs>
  <style type="text/css">*{stroke-linejoin: round; stroke-linecap: butt}</style>
 </defs>
 <g id="figure_1">
  <g id="patch_1">
   <path d="M 0 432 
L 1152 432 
L 1152 0 
L 0 0 
z
" style="fill: #ffffff"/>
  </g>
  <g id="axes_1">
   <g id="patch_2">
    <path d="M 52.94 390.04 
L 570.6 390.04 
L 570.6 29.832 
L 52.94 29.832 
z
" style="fill: #ffffff"/>
   </g>
   <g id="matplotlib.axis_1">
    <g id="xtick_1">
     <g id="line2d_1">
      <path d="M 81.698889 390.04 
L 81.698889 29.832 
" clip-path="url(#pea487981c8)" style="fill: none; stroke: #b0b0b0; stroke-width: 0.8; stroke-linecap: square"/>
     </g>
     <g id="line2d_2">
      <defs>
       <path id="mcf6dba5b7b" d="M 0 0 
L 0 3.5 
" style="stroke: #000000; stroke-width: 0.8"/>
      </defs>
      <g>
       <use xlink:href="#mcf6dba5b7b" x="81.698889" y="390.04" style="stroke: #000000; stroke-width: 0.8"/>
      </g>
     </g>
     <g id="text_1">
      <!-- −8 -->
      <g transform="translate(74.327795 404.638438) scale(0.1 -0.1)">
       <defs>
        <path id="DejaVuSans-2212" d="M 678 2272 
L 4684 2272 
L 4684 1741 
L 678 1741 
L 678 2272 
z
" transform="scale(0.015625)"/>
        <path id="DejaVuSans-38" d="M 2034 2216 
Q 1584 2216 1326 1975 
Q 1069 1734 1069 1313 
Q 1069 891 1326 650 
Q 1584 409 2034 409 
Q 2484 409 2743 651 
Q 3003 894 3003 1313 
Q 3003 1734 2745 1975 
Q 2488 2216 2034 2216 
z
M 1403 2484 
Q 997 2584 770 2862 
Q 544 3141 544 3541 
Q 544 4100 942 4425 
Q 1341 4750 2034 4750 
Q 2731 4750 3128 4425 
Q 3525 4100 3525 3541 
Q 3525 3141 3298 2862 
Q 3072 2584 2669 2484 
Q 3125 2378 3379 2068 
Q 3634 1759 3634 1313 
Q 3634 634 3220 271 
Q 2806 -91 2034 -91 
Q 1263 -91 848 271 
Q 434 634 434 1313 
Q 434 1759 690 2068 
Q 947 2378 1403 2484 
z
M 1172 3481 
Q 1172 3119 1398 2916 
Q 1625 2713 2034 2713 
Q 2441 2713 2670 2916 
Q 2900 3119 2900 3481 
Q 2900 3844 2670 4047 
Q 2441 4250 2034 4250 
Q 1625 4250 1398 4047 
Q 1172 3844 1172 3481 
z
" transform="scale(0.015625)"/>
       </defs>
       <use xlink:href="#DejaVuSans-2212"/>
       <use xlink:href="#DejaVuSans-38" x="83.789062"/>
      </g>
     </g>
    </g>
    <g id="xtick_2">
     <g id="line2d_3">
      <path d="M 139.216667 390.04 
L 139.216667 29.832 
" clip-path="url(#pea487981c8)" style="fill: none; stroke: #b0b0b0; stroke-width: 0.8; stroke-linecap: square"/>
     </g>
     <g id="line2d_4">
      <g>
       <use xlink:href="#mcf6dba5b7b" x="139.216667" y="390.04" style="stroke: #000000; stroke-width: 0.8"/>
      </g>
     </g>
     <g id="text_2">
      <!-- −6 -->
      <g transform="translate(131.845573 404.638438) scale(0.1 -0.1)">
       <defs>
        <path id="DejaVuSans-36" d="M 2113 2584 
Q 1688 2584 1439 2293 
Q 1191 2003 1191 1497 
Q 1191 994 1439 701 
Q 1688 409 2113 409 
Q 2538 409 2786 701 
Q 3034 994 3034 1497 
Q 3034 2003 2786 2293 
Q 2538 2584 2113 2584 
z
M 3366 4563 
L 3366 3988 
Q 3128 4100 2886 4159 
Q 2644 4219 2406 4219 
Q 1781 4219 1451 3797 
Q 1122 3375 1075 2522 
Q 1259 2794 1537 2939 
Q 1816 3084 2150 3084 
Q 2853 3084 3261 2657 
Q 3669 2231 3669 1497 
Q 3669 778 3244 343 
Q 2819 -91 2113 -91 
Q 1303 -91 875 529 
Q 447 1150 447 2328 
Q 447 3434 972 4092 
Q 1497 4750 2381 4750 
Q 2619 4750 2861 4703 
Q 3103 4656 3366 4563 
z
" transform="scale(0.015625)"/>
       </defs>
       <use xlink:href="#DejaVuSans-2212"/>
       <use xlink:href="#DejaVuSans-36" x="83.789062"/>
      </g>
     </g>
    </g>
    <g id="xtick_3">
     <g id="line2d_5">
      <path d="M 196.734444 390.04 
L 196.734444 29.832 
" clip-path="url(#pea487981c8)" style="fill: none; stroke: #b0b0b0; stroke-width: 0.8; stroke-linecap: square"/>
     </g>
     <g id="line2d_6">
      <g>
       <use xlink:href="#mcf6dba5b7b" x="196.734444" y="390.04" style="stroke: #000000; stroke-width: 0.8"/>
      </g>
     </g>
     <g id="text_3">
      <!-- −4 -->
      <g transform="translate(189.363351 404.638438) scale(0.1 -0.1)">
       <defs>
        <path id="DejaVuSans-34" d="M 2419 4116 
L 825 1625 
L 2419 1625 
L 2419 4116 
z
M 2253 4666 
L 3047 4666 
L 3047 1625 
L 3713 1625 
L 3713 1100 
L 3047 1100 
L 3047 0 
L 2419 0 
L 2419 1100 
L 313 1100 
L 313 1709 
L 2253 4666 
z
" transform="scale(0.015625)"/>
       </defs>
       <use xlink:href="#DejaVuSans-2212"/>
       <use xlink:href="#DejaVuSans-34" x="83.789062"/>
      </g>
     </g>
    </g>
    <g id="xtick_4">
     <g id="line2d_7">
      <path d="M 254.252222 390.04 
L 254.252222 29.832 
" clip-path="url(#pea487981c8)" style="fill: none; stroke: #b0b0b0; stroke-width: 0.8; stroke-linecap: square"/>
     </g>
     <g id="line2d_8">
      <g>
       <use xlink:href="#mcf6dba5b7b" x="254.252222" y="390.04" style="stroke: #000000; stroke-width: 0.8"/>
      </g>
     </g>
     <g id="text_4">
      <!-- −2 -->
      <g transform="translate(246.881128 404.638438) scale(0.1 -0.1)">
       <defs>
        <path id="DejaVuSans-32" d="M 1228 531 
L 3431 531 
L 3431 0 
L 469 0 
L 469 531 
Q 828 903 1448 1529 
Q 2069 2156 2228 2338 
Q 2531 2678 2651 2914 
Q 2772 3150 2772 3378 
Q 2772 3750 2511 3984 
Q 2250 4219 1831 4219 
Q 1534 4219 1204 4116 
Q 875 4013 500 3803 
L 500 4441 
Q 881 4594 1212 4672 
Q 1544 4750 1819 4750 
Q 2544 4750 2975 4387 
Q 3406 4025 3406 3419 
Q 3406 3131 3298 2873 
Q 3191 2616 2906 2266 
Q 2828 2175 2409 1742 
Q 1991 1309 1228 531 
z
" transform="scale(0.015625)"/>
       </defs>
       <use xlink:href="#DejaVuSans-2212"/>
       <use xlink:href="#DejaVuSans-32" x="83.789062"/>
      </g>
     </g>
    </g>
    <g id="xtick_5">
     <g id="line2d_9">
      <path d="M 311.77 390.04 
L 311.77 29.832 
" clip-path="url(#pea487981c8)" style="fill: none; stroke: #b0b0b0; stroke-width: 0.8; stroke-linecap: square"/>
     </g>
     <g id="line2d_10">
      <g>
       <use xlink:href="#mcf6dba5b7b" x="311.77" y="390.04" style="stroke: #000000; stroke-width: 0.8"/>
      </g>
     </g>
     <g id="text_5">
      <!-- 0 -->
      <g transform="translate(308.58875 404.638438) scale(0.1 -0.1)">
       <defs>
        <path id="DejaVuSans-30" d="M 2034 4250 
Q 1547 4250 1301 3770 
Q 1056 3291 1056 2328 
Q 1056 1369 1301 889 
Q 1547 409 2034 409 
Q 2525 409 2770 889 
Q 3016 1369 3016 2328 
Q 3016 3291 2770 3770 
Q 2525 4250 2034 4250 
z
M 2034 4750 
Q 2819 4750 3233 4129 
Q 3647 3509 3647 2328 
Q 3647 1150 3233 529 
Q 2819 -91 2034 -91 
Q 1250 -91 836 529 
Q 422 1150 422 2328 
Q 422 3509 836 4129 
Q 1250 4750 2034 4750 
z
" transform="scale(0.015625)"/>
       </defs>
       <use xlink:href="#DejaVuSans-30"/>
      </g>
     </g>
    </g>
    <g id="xtick_6">
     <g id="line2d_11">
      <path d="M 369.287778 390.04 
L 369.287778 29.832 
" clip-path="url(#pea487981c8)" style="fill: none; stroke: #b0b0b0; stroke-width: 0.8; stroke-linecap: square"/>
     </g>
     <g id="line2d_12">
      <g>
       <use xlink:href="#mcf6dba5b7b" x="369.287778" y="390.04" style="stroke: #000000; stroke-width: 0.8"/>
      </g>
     </g>
     <g id="text_6">
      <!-- 2 -->
      <g transform="translate(366.106528 404.638438) scale(0.1 -0.1)">
       <use xlink:href="#DejaVuSans-32"/>
      </g>
     </g>
    </g>
    <g id="xtick_7">
     <g id="line2d_13">
      <path d="M 426.805556 390.04 
L 426.805556 29.832 
" clip-path="url(#pea487981c8)" style="fill: none; stroke: #b0b0b0; stroke-width: 0.8; stroke-linecap: square"/>
     </g>
     <g id="line2d_14">
      <g>
       <use xlink:href="#mcf6dba5b7b" x="426.805556" y="390.04" style="stroke: #000000; stroke-width: 0.8"/>
      </g>
     </g>
     <g id="text_7">
      <!-- 4 -->
      <g transform="translate(423.624306 404.638438) scale(0.1 -0.1)">
       <use xlink:href="#DejaVuSans-34"/>
      </g>
     </g>
    </g>
    <g id="xtick_8">
     <g id="line2d_15">
      <path d="M 484.323333 390.04 
L 484.323333 29.832 
" clip-path="url(#pea487981c8)" style="fill: none; stroke: #b0b0b0; stroke-width: 0.8; stroke-linecap: square"/>
     </g>
     <g id="line2d_16">
      <g>
       <use xlink:href="#mcf6dba5b7b" x="484.323333" y="390.04" style="stroke: #000000; stroke-width: 0.8"/>
      </g>
     </g>
     <g id="text_8">
      <!-- 6 -->
      <g transform="translate(481.142083 404.638438) scale(0.1 -0.1)">
       <use xlink:href="#DejaVuSans-36"/>
      </g>
     </g>
    </g>
    <g id="xtick_9">
     <g id="line2d_17">
      <path d="M 541.841111 390.04 
L 541.841111 29.832 
" clip-path="url(#pea487981c8)" style="fill: none; stroke: #b0b0b0; stroke-width: 0.8; stroke-linecap: square"/>
     </g>
     <g id="line2d_18">
      <g>
       <use xlink:href="#mcf6dba5b7b" x="541.841111" y="390.04" style="stroke: #000000; stroke-width: 0.8"/>
      </g>
     </g>
     <g id="text_9">
      <!-- 8 -->
      <g transform="translate(538.659861 404.638438) scale(0.1 -0.1)">
       <use xlink:href="#DejaVuSans-38"/>
      </g>
     </g>
    </g>
    <g id="text_10">
     <!-- x -->
     <g transform="translate(308.810625 418.316562) scale(0.1 -0.1)">
      <defs>
       <path id="DejaVuSans-78" d="M 3513 3500 
L 2247 1797 
L 3578 0 
L 2900 0 
L 1881 1375 
L 863 0 
L 184 0 
L 1544 1831 
L 300 3500 
L 978 3500 
L 1906 2253 
L 2834 3500 
L 3513 3500 
z
" transform="scale(0.015625)"/>
      </defs>
      <use xlink:href="#DejaVuSans-78"/>
     </g>
    </g>
   </g>
   <g id="matplotlib.axis_2">
    <g id="ytick_1">
     <g id="line2d_19">
      <path d="M 52.94 390.04 
L 570.6 390.04 
" clip-path="url(#pea487981c8)" style="fill: none; stroke: #b0b0b0; stroke-width: 0.8; stroke-linecap: square"/>
     </g>
     <g id="line2d_20">
      <defs>
       <path id="mda00cf594a" d="M 0 0 
L -3.5 0 
" style="stroke: #000000; stroke-width: 0.8"/>
      </defs>
      <g>
       <use xlink:href="#mda00cf594a" x="52.94" y="390.04" style="stroke: #000000; stroke-width: 0.8"/>
      </g>
     </g>
     <g id="text_11">
      <!-- −15 -->
      <g transform="translate(24.835313 393.839219) scale(0.1 -0.1)">
       <defs>
        <path id="DejaVuSans-31" d="M 794 531 
L 1825 531 
L 1825 4091 
L 703 3866 
L 703 4441 
L 1819 4666 
L 2450 4666 
L 2450 531 
L 3481 531 
L 3481 0 
L 794 0 
L 794 531 
z
" transform="scale(0.015625)"/>
        <path id="DejaVuSans-35" d="M 691 4666 
L 3169 4666 
L 3169 4134 
L 1269 4134 
L 1269 2991 
Q 1406 3038 1543 3061 
Q 1681 3084 1819 3084 
Q 2600 3084 3056 2656 
Q 3513 2228 3513 1497 
Q 3513 744 3044 326 
Q 2575 -91 1722 -91 
Q 1428 -91 1123 -41 
Q 819 9 494 109 
L 494 744 
Q 775 591 1075 516 
Q 1375 441 1709 441 
Q 2250 441 2565 725 
Q 2881 1009 2881 1497 
Q 2881 1984 2565 2268 
Q 2250 2553 1709 2553 
Q 1456 2553 1204 2497 
Q 953 2441 691 2322 
L 691 4666 
z
" transform="scale(0.015625)"/>
       </defs>
       <use xlink:href="#DejaVuSans-2212"/>
       <use xlink:href="#DejaVuSans-31" x="83.789062"/>
       <use xlink:href="#DejaVuSans-35" x="147.412109"/>
      </g>
     </g>
    </g>
    <g id="ytick_2">
     <g id="line2d_21">
      <path d="M 52.94 330.005333 
L 570.6 330.005333 
" clip-path="url(#pea487981c8)" style="fill: none; stroke: #b0b0b0; stroke-width: 0.8; stroke-linecap: square"/>
     </g>
     <g id="line2d_22">
      <g>
       <use xlink:href="#mda00cf594a" x="52.94" y="330.005333" style="stroke: #000000; stroke-width: 0.8"/>
      </g>
     </g>
     <g id="text_12">
      <!-- −10 -->
      <g transform="translate(24.835313 333.804552) scale(0.1 -0.1)">
       <use xlink:href="#DejaVuSans-2212"/>
       <use xlink:href="#DejaVuSans-31" x="83.789062"/>
       <use xlink:href="#DejaVuSans-30" x="147.412109"/>
      </g>
     </g>
    </g>
    <g id="ytick_3">
     <g id="line2d_23">
      <path d="M 52.94 269.970667 
L 570.6 269.970667 
" clip-path="url(#pea487981c8)" style="fill: none; stroke: #b0b0b0; stroke-width: 0.8; stroke-linecap: square"/>
     </g>
     <g id="line2d_24">
      <g>
       <use xlink:href="#mda00cf594a" x="52.94" y="269.970667" style="stroke: #000000; stroke-width: 0.8"/>
      </g>
     </g>
     <g id="text_13">
      <!-- −5 -->
      <g transform="translate(31.197813 273.769885) scale(0.1 -0.1)">
       <use xlink:href="#DejaVuSans-2212"/>
       <use xlink:href="#DejaVuSans-35" x="83.789062"/>
      </g>
     </g>
    </g>
    <g id="ytick_4">
     <g id="line2d_25">
      <path d="M 52.94 209.936 
L 570.6 209.936 
" clip-path="url(#pea487981c8)" style="fill: none; stroke: #b0b0b0; stroke-width: 0.8; stroke-linecap: square"/>
     </g>
     <g id="line2d_26">
      <g>
       <use xlink:href="#mda00cf594a" x="52.94" y="209.936" style="stroke: #000000; stroke-width: 0.8"/>
      </g>
     </g>
     <g id="text_14">
      <!-- 0 -->
      <g transform="translate(39.5775 213.735219) scale(0.1 -0.1)">
       <use xlink:href="#DejaVuSans-30"/>
      </g>
     </g>
    </g>
    <g id="ytick_5">
     <g id="line2d_27">
      <path d="M 52.94 149.901333 
L 570.6 149.901333 
" clip-path="url(#pea487981c8)" style="fill: none; stroke: #b0b0b0; stroke-width: 0.8; stroke-linecap: square"/>
     </g>
     <g id="line2d_28">
      <g>
       <use xlink:href="#mda00cf594a" x="52.94" y="149.901333" style="stroke: #000000; stroke-width: 0.8"/>
      </g>
     </g>
     <g id="text_15">
      <!-- 5 -->
      <g transform="translate(39.5775 153.700552) scale(0.1 -0.1)">
       <use xlink:href="#DejaVuSans-35"/>
      </g>
     </g>
    </g>
    <g id="ytick_6">
     <g id="line2d_29">
      <path d="M 52.94 89.866667 
L 570.6 89.866667 
" clip-path="url(#pea487981c8)" style="fill: none; stroke: #b0b0b0; stroke-width: 0.8; stroke-linecap: square"/>
     </g>
     <g id="line2d_30">
      <g>
       <use xlink:href="#mda00cf594a" x="52.94" y="89.866667" style="stroke: #000000; stroke-width: 0.8"/>
      </g>
     </g>
     <g id="text_16">
      <!-- 10 -->
      <g transform="translate(33.215 93.665885) scale(0.1 -0.1)">
       <use xlink:href="#DejaVuSans-31"/>
       <use xlink:href="#DejaVuSans-30" x="63.623047"/>
      </g>
     </g>
    </g>
    <g id="ytick_7">
     <g id="line2d_31">
      <path d="M 52.94 29.832 
L 570.6 29.832 
" clip-path="url(#pea487981c8)" style="fill: none; stroke: #b0b0b0; stroke-width: 0.8; stroke-linecap: square"/>
     </g>
     <g id="line2d_32">
      <g>
       <use xlink:href="#mda00cf594a" x="52.94" y="29.832" style="stroke: #000000; stroke-width: 0.8"/>
      </g>
     </g>
     <g id="text_17">
      <!-- 15 -->
      <g transform="translate(33.215 33.631219) scale(0.1 -0.1)">
       <use xlink:href="#DejaVuSans-31"/>
       <use xlink:href="#DejaVuSans-35" x="63.623047"/>
      </g>
     </g>
    </g>
    <g id="text_18">
     <!-- y -->
     <g transform="translate(18.755625 212.895375) rotate(-90) scale(0.1 -0.1)">
      <defs>
       <path id="DejaVuSans-79" d="M 2059 -325 
Q 1816 -950 1584 -1140 
Q 1353 -1331 966 -1331 
L 506 -1331 
L 506 -850 
L 844 -850 
Q 1081 -850 1212 -737 
Q 1344 -625 1503 -206 
L 1606 56 
L 191 3500 
L 800 3500 
L 1894 763 
L 2988 3500 
L 3597 3500 
L 2059 -325 
z
" transform="scale(0.015625)"/>
      </defs>
      <use xlink:href="#DejaVuSans-79"/>
     </g>
    </g>
   </g>
   <g id="QuadContourSet_1">
    <path d="M 231.214911 390.04 
L 231.605319 386.401535 
L 231.995727 382.763071 
L 232.386136 379.124606 
L 232.776544 375.486141 
L 233.166952 371.847677 
L 233.55736 368.209212 
L 233.947768 364.570747 
L 234.338177 360.932283 
L 234.728585 357.293818 
L 235.118993 353.655354 
L 235.509401 350.016889 
L 235.89981 346.378424 
L 235.951111 345.900312 
L 236.34037 342.73996 
L 236.788519 339.101495 
L 237.236667 335.46303 
L 237.684815 331.824566 
L 238.132963 328.186101 
L 238.581111 324.547636 
L 239.029259 320.909172 
L 239.477407 317.270707 
L 239.925556 313.632242 
L 240.373704 309.993778 
L 240.821852 306.355313 
L 241.18 303.447548 
L 241.284372 302.716848 
L 241.804082 299.078384 
L 242.323793 295.439919 
L 242.843503 291.801455 
L 243.363214 288.16299 
L 243.882924 284.524525 
L 244.402635 280.886061 
L 244.922345 277.247596 
L 245.442056 273.609131 
L 245.961766 269.970667 
L 246.408889 266.840384 
L 246.494071 266.332202 
L 247.103957 262.693737 
L 247.713843 259.055273 
L 248.323729 255.416808 
L 248.933615 251.778343 
L 249.5435 248.139879 
L 250.153386 244.501414 
L 250.763272 240.862949 
L 251.373158 237.224485 
L 251.637778 235.645812 
L 252.048628 233.58602 
L 252.774362 229.947556 
L 253.500097 226.309091 
L 254.225832 222.670626 
L 254.951567 219.032162 
L 255.677301 215.393697 
L 256.403036 211.755232 
L 256.866667 209.430825 
L 257.183767 208.116768 
L 258.061779 204.478303 
L 258.939791 200.839838 
L 259.817803 197.201374 
L 260.695816 193.562909 
L 261.573828 189.924444 
L 262.095556 187.762415 
L 262.535327 186.28598 
L 263.619081 182.647515 
L 264.702835 179.009051 
L 265.786589 175.370586 
L 266.870343 171.732121 
L 267.324444 170.207574 
L 268.12113 168.093657 
L 269.492382 164.455192 
L 270.863634 160.816727 
L 272.234886 157.178263 
L 272.553333 156.333297 
L 273.927877 153.539798 
L 275.718187 149.901333 
L 277.508497 146.262869 
L 277.782222 145.706575 
L 279.845198 142.624404 
L 282.280516 138.985939 
L 283.011111 137.8944 
L 285.463419 135.347475 
L 288.24 132.463766 
L 289.373377 131.70901 
L 293.468889 128.981665 
L 295.891448 128.070545 
L 298.697778 127.01509 
L 303.926667 126.131033 
L 309.155556 125.896488 
L 314.384444 125.878446 
L 319.613333 125.6439 
L 324.842222 124.759843 
L 325.713704 124.432081 
L 330.071111 122.793268 
L 333.073884 120.793616 
L 335.3 119.311167 
L 337.375921 117.155152 
L 340.528889 113.880533 
L 340.772421 113.516687 
L 343.207738 109.878222 
L 345.643056 106.239758 
L 345.757778 106.068359 
L 347.463751 102.601293 
L 349.254061 98.962828 
L 350.986667 95.441636 
L 351.030864 95.324364 
L 352.402116 91.685899 
L 353.773368 88.047434 
L 355.144619 84.40897 
L 356.215556 81.567359 
L 356.452907 80.770505 
L 357.536661 77.13204 
L 358.620415 73.493576 
L 359.704168 69.855111 
L 360.787922 66.216646 
L 361.444444 64.012519 
L 361.79057 62.578182 
L 362.668582 58.939717 
L 363.546594 55.301253 
L 364.424606 51.662788 
L 365.302618 48.024323 
L 366.180631 44.385859 
L 366.673333 42.344109 
L 366.991817 40.747394 
L 367.717552 37.108929 
L 368.443286 33.470465 
L 369.169021 29.832 
" clip-path="url(#pea487981c8)" style="fill: none; stroke: #4169e1; stroke-width: 1.5"/>
   </g>
   <g id="QuadContourSet_2">
    <path d="M 369.169021 390.04 
L 368.443286 386.401535 
L 367.717552 382.763071 
L 366.991817 379.124606 
L 366.673333 377.527891 
L 366.180631 375.486141 
L 365.302618 371.847677 
L 364.424606 368.209212 
L 363.546594 364.570747 
L 362.668582 360.932283 
L 361.79057 357.293818 
L 361.444444 355.859481 
L 360.787922 353.655354 
L 359.704168 350.016889 
L 358.620415 346.378424 
L 357.536661 342.73996 
L 356.452907 339.101495 
L 356.215556 338.304641 
L 355.144619 335.46303 
L 353.773368 331.824566 
L 352.402116 328.186101 
L 351.030864 324.547636 
L 350.986667 324.430364 
L 349.254061 320.909172 
L 347.463751 317.270707 
L 345.757778 313.803641 
L 345.643056 313.632242 
L 343.207738 309.993778 
L 340.772421 306.355313 
L 340.528889 305.991467 
L 337.375921 302.716848 
L 335.3 300.560833 
L 333.073884 299.078384 
L 330.071111 297.078732 
L 325.713704 295.439919 
L 324.842222 295.112157 
L 319.613333 294.2281 
L 314.384444 293.993554 
L 309.155556 293.975512 
L 303.926667 293.740967 
L 298.697778 292.85691 
L 295.891448 291.801455 
L 293.468889 290.890335 
L 289.373377 288.16299 
L 288.24 287.408234 
L 285.463419 284.524525 
L 283.011111 281.9776 
L 282.280516 280.886061 
L 279.845198 277.247596 
L 277.782222 274.165425 
L 277.508497 273.609131 
L 275.718187 269.970667 
L 273.927877 266.332202 
L 272.553333 263.538703 
L 272.234886 262.693737 
L 270.863634 259.055273 
L 269.492382 255.416808 
L 268.12113 251.778343 
L 267.324444 249.664426 
L 266.870343 248.139879 
L 265.786589 244.501414 
L 264.702835 240.862949 
L 263.619081 237.224485 
L 262.535327 233.58602 
L 262.095556 232.109585 
L 261.573828 229.947556 
L 260.695816 226.309091 
L 259.817803 222.670626 
L 258.939791 219.032162 
L 258.061779 215.393697 
L 257.183767 211.755232 
L 256.866667 210.441175 
L 256.403036 208.116768 
L 255.677301 204.478303 
L 254.951567 200.839838 
L 254.225832 197.201374 
L 253.500097 193.562909 
L 252.774362 189.924444 
L 252.048628 186.28598 
L 251.637778 184.226188 
L 251.373158 182.647515 
L 250.763272 179.009051 
L 250.153386 175.370586 
L 249.5435 171.732121 
L 248.933615 168.093657 
L 248.323729 164.455192 
L 247.713843 160.816727 
L 247.103957 157.178263 
L 246.494071 153.539798 
L 246.408889 153.031616 
L 245.961766 149.901333 
L 245.442056 146.262869 
L 244.922345 142.624404 
L 244.402635 138.985939 
L 243.882924 135.347475 
L 243.363214 131.70901 
L 242.843503 128.070545 
L 242.323793 124.432081 
L 241.804082 120.793616 
L 241.284372 117.155152 
L 241.18 116.424452 
L 240.821852 113.516687 
L 240.373704 109.878222 
L 239.925556 106.239758 
L 239.477407 102.601293 
L 239.029259 98.962828 
L 238.581111 95.324364 
L 238.132963 91.685899 
L 237.684815 88.047434 
L 237.236667 84.40897 
L 236.788519 80.770505 
L 236.34037 77.13204 
L 235.951111 73.971688 
L 235.89981 73.493576 
L 235.509401 69.855111 
L 235.118993 66.216646 
L 234.728585 62.578182 
L 234.338177 58.939717 
L 233.947768 55.301253 
L 233.55736 51.662788 
L 233.166952 48.024323 
L 232.776544 44.385859 
L 232.386136 40.747394 
L 231.995727 37.108929 
L 231.605319 33.470465 
L 231.214911 29.832 
" clip-path="url(#pea487981c8)" style="fill: none; stroke: #ff0000; stroke-width: 1.5"/>
   </g>
   <g id="line2d_33">
    <path d="M 52.94 209.936 
L 570.6 209.936 
" clip-path="url(#pea487981c8)" style="fill: none; stroke: #1f77b4; stroke-width: 1.5; stroke-linecap: square"/>
   </g>
   <g id="line2d_34">
    <path d="M 311.77 390.04 
L 311.77 29.832 
" clip-path="url(#pea487981c8)" style="fill: none; stroke: #1f77b4; stroke-width: 1.5; stroke-linecap: square"/>
   </g>
   <g id="patch_3">
    <path d="M 52.94 390.04 
L 52.94 29.832 
" style="fill: none; stroke: #000000; stroke-width: 0.8; stroke-linejoin: miter; stroke-linecap: square"/>
   </g>
   <g id="patch_4">
    <path d="M 570.6 390.04 
L 570.6 29.832 
" style="fill: none; stroke: #000000; stroke-width: 0.8; stroke-linejoin: miter; stroke-linecap: square"/>
   </g>
   <g id="patch_5">
    <path d="M 52.94 390.04 
L 570.6 390.04 
" style="fill: none; stroke: #000000; stroke-width: 0.8; stroke-linejoin: miter; stroke-linecap: square"/>
   </g>
   <g id="patch_6">
    <path d="M 52.94 29.832 
L 570.6 29.832 
" style="fill: none; stroke: #000000; stroke-width: 0.8; stroke-linejoin: miter; stroke-linecap: square"/>
   </g>
   <g id="text_19">
    <!-- $y = x^3  - 7$ -->
    <g transform="translate(282.97 23.832) scale(0.12 -0.12)">
     <defs>
      <path id="DejaVuSans-Oblique-79" d="M 1588 -325 
Q 1188 -997 936 -1164 
Q 684 -1331 294 -1331 
L -159 -1331 
L -63 -850 
L 269 -850 
Q 509 -850 678 -719 
Q 847 -588 1056 -206 
L 1234 128 
L 459 3500 
L 1069 3500 
L 1650 819 
L 3256 3500 
L 3859 3500 
L 1588 -325 
z
" transform="scale(0.015625)"/>
      <path id="DejaVuSans-3d" d="M 678 2906 
L 4684 2906 
L 4684 2381 
L 678 2381 
L 678 2906 
z
M 678 1631 
L 4684 1631 
L 4684 1100 
L 678 1100 
L 678 1631 
z
" transform="scale(0.015625)"/>
      <path id="DejaVuSans-Oblique-78" d="M 3841 3500 
L 2234 1784 
L 3219 0 
L 2559 0 
L 1819 1388 
L 531 0 
L -166 0 
L 1556 1844 
L 641 3500 
L 1300 3500 
L 1972 2234 
L 3144 3500 
L 3841 3500 
z
" transform="scale(0.015625)"/>
      <path id="DejaVuSans-33" d="M 2597 2516 
Q 3050 2419 3304 2112 
Q 3559 1806 3559 1356 
Q 3559 666 3084 287 
Q 2609 -91 1734 -91 
Q 1441 -91 1130 -33 
Q 819 25 488 141 
L 488 750 
Q 750 597 1062 519 
Q 1375 441 1716 441 
Q 2309 441 2620 675 
Q 2931 909 2931 1356 
Q 2931 1769 2642 2001 
Q 2353 2234 1838 2234 
L 1294 2234 
L 1294 2753 
L 1863 2753 
Q 2328 2753 2575 2939 
Q 2822 3125 2822 3475 
Q 2822 3834 2567 4026 
Q 2313 4219 1838 4219 
Q 1578 4219 1281 4162 
Q 984 4106 628 3988 
L 628 4550 
Q 988 4650 1302 4700 
Q 1616 4750 1894 4750 
Q 2613 4750 3031 4423 
Q 3450 4097 3450 3541 
Q 3450 3153 3228 2886 
Q 3006 2619 2597 2516 
z
" transform="scale(0.015625)"/>
      <path id="DejaVuSans-37" d="M 525 4666 
L 3525 4666 
L 3525 4397 
L 1831 0 
L 1172 0 
L 2766 4134 
L 525 4134 
L 525 4666 
z
" transform="scale(0.015625)"/>
     </defs>
     <use xlink:href="#DejaVuSans-Oblique-79" transform="translate(0 0.765625)"/>
     <use xlink:href="#DejaVuSans-3d" transform="translate(78.662109 0.765625)"/>
     <use xlink:href="#DejaVuSans-Oblique-78" transform="translate(181.933594 0.765625)"/>
     <use xlink:href="#DejaVuSans-33" transform="translate(245.579427 39.046875) scale(0.7)"/>
     <use xlink:href="#DejaVuSans-2212" transform="translate(312.332357 0.765625)"/>
     <use xlink:href="#DejaVuSans-37" transform="translate(415.603841 0.765625)"/>
    </g>
   </g>
  </g>
  <g id="axes_2">
   <g id="patch_7">
    <path d="M 623.54 390.04 
L 1141.2 390.04 
L 1141.2 29.832 
L 623.54 29.832 
z
" style="fill: #ffffff"/>
   </g>
   <g id="matplotlib.axis_3">
    <g id="xtick_10">
     <g id="line2d_35">
      <path d="M 652.298889 390.04 
L 652.298889 29.832 
" clip-path="url(#pa1c8c6d2d9)" style="fill: none; stroke: #b0b0b0; stroke-width: 0.8; stroke-linecap: square"/>
     </g>
     <g id="line2d_36">
      <g>
       <use xlink:href="#mcf6dba5b7b" x="652.298889" y="390.04" style="stroke: #000000; stroke-width: 0.8"/>
      </g>
     </g>
     <g id="text_20">
      <!-- −8 -->
      <g transform="translate(644.927795 404.638438) scale(0.1 -0.1)">
       <use xlink:href="#DejaVuSans-2212"/>
       <use xlink:href="#DejaVuSans-38" x="83.789062"/>
      </g>
     </g>
    </g>
    <g id="xtick_11">
     <g id="line2d_37">
      <path d="M 709.816667 390.04 
L 709.816667 29.832 
" clip-path="url(#pa1c8c6d2d9)" style="fill: none; stroke: #b0b0b0; stroke-width: 0.8; stroke-linecap: square"/>
     </g>
     <g id="line2d_38">
      <g>
       <use xlink:href="#mcf6dba5b7b" x="709.816667" y="390.04" style="stroke: #000000; stroke-width: 0.8"/>
      </g>
     </g>
     <g id="text_21">
      <!-- −6 -->
      <g transform="translate(702.445573 404.638438) scale(0.1 -0.1)">
       <use xlink:href="#DejaVuSans-2212"/>
       <use xlink:href="#DejaVuSans-36" x="83.789062"/>
      </g>
     </g>
    </g>
    <g id="xtick_12">
     <g id="line2d_39">
      <path d="M 767.334444 390.04 
L 767.334444 29.832 
" clip-path="url(#pa1c8c6d2d9)" style="fill: none; stroke: #b0b0b0; stroke-width: 0.8; stroke-linecap: square"/>
     </g>
     <g id="line2d_40">
      <g>
       <use xlink:href="#mcf6dba5b7b" x="767.334444" y="390.04" style="stroke: #000000; stroke-width: 0.8"/>
      </g>
     </g>
     <g id="text_22">
      <!-- −4 -->
      <g transform="translate(759.963351 404.638438) scale(0.1 -0.1)">
       <use xlink:href="#DejaVuSans-2212"/>
       <use xlink:href="#DejaVuSans-34" x="83.789062"/>
      </g>
     </g>
    </g>
    <g id="xtick_13">
     <g id="line2d_41">
      <path d="M 824.852222 390.04 
L 824.852222 29.832 
" clip-path="url(#pa1c8c6d2d9)" style="fill: none; stroke: #b0b0b0; stroke-width: 0.8; stroke-linecap: square"/>
     </g>
     <g id="line2d_42">
      <g>
       <use xlink:href="#mcf6dba5b7b" x="824.852222" y="390.04" style="stroke: #000000; stroke-width: 0.8"/>
      </g>
     </g>
     <g id="text_23">
      <!-- −2 -->
      <g transform="translate(817.481128 404.638438) scale(0.1 -0.1)">
       <use xlink:href="#DejaVuSans-2212"/>
       <use xlink:href="#DejaVuSans-32" x="83.789062"/>
      </g>
     </g>
    </g>
    <g id="xtick_14">
     <g id="line2d_43">
      <path d="M 882.37 390.04 
L 882.37 29.832 
" clip-path="url(#pa1c8c6d2d9)" style="fill: none; stroke: #b0b0b0; stroke-width: 0.8; stroke-linecap: square"/>
     </g>
     <g id="line2d_44">
      <g>
       <use xlink:href="#mcf6dba5b7b" x="882.37" y="390.04" style="stroke: #000000; stroke-width: 0.8"/>
      </g>
     </g>
     <g id="text_24">
      <!-- 0 -->
      <g transform="translate(879.18875 404.638438) scale(0.1 -0.1)">
       <use xlink:href="#DejaVuSans-30"/>
      </g>
     </g>
    </g>
    <g id="xtick_15">
     <g id="line2d_45">
      <path d="M 939.887778 390.04 
L 939.887778 29.832 
" clip-path="url(#pa1c8c6d2d9)" style="fill: none; stroke: #b0b0b0; stroke-width: 0.8; stroke-linecap: square"/>
     </g>
     <g id="line2d_46">
      <g>
       <use xlink:href="#mcf6dba5b7b" x="939.887778" y="390.04" style="stroke: #000000; stroke-width: 0.8"/>
      </g>
     </g>
     <g id="text_25">
      <!-- 2 -->
      <g transform="translate(936.706528 404.638438) scale(0.1 -0.1)">
       <use xlink:href="#DejaVuSans-32"/>
      </g>
     </g>
    </g>
    <g id="xtick_16">
     <g id="line2d_47">
      <path d="M 997.405556 390.04 
L 997.405556 29.832 
" clip-path="url(#pa1c8c6d2d9)" style="fill: none; stroke: #b0b0b0; stroke-width: 0.8; stroke-linecap: square"/>
     </g>
     <g id="line2d_48">
      <g>
       <use xlink:href="#mcf6dba5b7b" x="997.405556" y="390.04" style="stroke: #000000; stroke-width: 0.8"/>
      </g>
     </g>
     <g id="text_26">
      <!-- 4 -->
      <g transform="translate(994.224306 404.638438) scale(0.1 -0.1)">
       <use xlink:href="#DejaVuSans-34"/>
      </g>
     </g>
    </g>
    <g id="xtick_17">
     <g id="line2d_49">
      <path d="M 1054.923333 390.04 
L 1054.923333 29.832 
" clip-path="url(#pa1c8c6d2d9)" style="fill: none; stroke: #b0b0b0; stroke-width: 0.8; stroke-linecap: square"/>
     </g>
     <g id="line2d_50">
      <g>
       <use xlink:href="#mcf6dba5b7b" x="1054.923333" y="390.04" style="stroke: #000000; stroke-width: 0.8"/>
      </g>
     </g>
     <g id="text_27">
      <!-- 6 -->
      <g transform="translate(1051.742083 404.638438) scale(0.1 -0.1)">
       <use xlink:href="#DejaVuSans-36"/>
      </g>
     </g>
    </g>
    <g id="xtick_18">
     <g id="line2d_51">
      <path d="M 1112.441111 390.04 
L 1112.441111 29.832 
" clip-path="url(#pa1c8c6d2d9)" style="fill: none; stroke: #b0b0b0; stroke-width: 0.8; stroke-linecap: square"/>
     </g>
     <g id="line2d_52">
      <g>
       <use xlink:href="#mcf6dba5b7b" x="1112.441111" y="390.04" style="stroke: #000000; stroke-width: 0.8"/>
      </g>
     </g>
     <g id="text_28">
      <!-- 8 -->
      <g transform="translate(1109.259861 404.638438) scale(0.1 -0.1)">
       <use xlink:href="#DejaVuSans-38"/>
      </g>
     </g>
    </g>
    <g id="text_29">
     <!-- x -->
     <g transform="translate(879.410625 418.316562) scale(0.1 -0.1)">
      <use xlink:href="#DejaVuSans-78"/>
     </g>
    </g>
   </g>
   <g id="matplotlib.axis_4">
    <g id="ytick_8">
     <g id="line2d_53">
      <path d="M 623.54 390.04 
L 1141.2 390.04 
" clip-path="url(#pa1c8c6d2d9)" style="fill: none; stroke: #b0b0b0; stroke-width: 0.8; stroke-linecap: square"/>
     </g>
     <g id="line2d_54">
      <g>
       <use xlink:href="#mda00cf594a" x="623.54" y="390.04" style="stroke: #000000; stroke-width: 0.8"/>
      </g>
     </g>
     <g id="text_30">
      <!-- −15 -->
      <g transform="translate(595.435313 393.839219) scale(0.1 -0.1)">
       <use xlink:href="#DejaVuSans-2212"/>
       <use xlink:href="#DejaVuSans-31" x="83.789062"/>
       <use xlink:href="#DejaVuSans-35" x="147.412109"/>
      </g>
     </g>
    </g>
    <g id="ytick_9">
     <g id="line2d_55">
      <path d="M 623.54 330.005333 
L 1141.2 330.005333 
" clip-path="url(#pa1c8c6d2d9)" style="fill: none; stroke: #b0b0b0; stroke-width: 0.8; stroke-linecap: square"/>
     </g>
     <g id="line2d_56">
      <g>
       <use xlink:href="#mda00cf594a" x="623.54" y="330.005333" style="stroke: #000000; stroke-width: 0.8"/>
      </g>
     </g>
     <g id="text_31">
      <!-- −10 -->
      <g transform="translate(595.435313 333.804552) scale(0.1 -0.1)">
       <use xlink:href="#DejaVuSans-2212"/>
       <use xlink:href="#DejaVuSans-31" x="83.789062"/>
       <use xlink:href="#DejaVuSans-30" x="147.412109"/>
      </g>
     </g>
    </g>
    <g id="ytick_10">
     <g id="line2d_57">
      <path d="M 623.54 269.970667 
L 1141.2 269.970667 
" clip-path="url(#pa1c8c6d2d9)" style="fill: none; stroke: #b0b0b0; stroke-width: 0.8; stroke-linecap: square"/>
     </g>
     <g id="line2d_58">
      <g>
       <use xlink:href="#mda00cf594a" x="623.54" y="269.970667" style="stroke: #000000; stroke-width: 0.8"/>
      </g>
     </g>
     <g id="text_32">
      <!-- −5 -->
      <g transform="translate(601.797813 273.769885) scale(0.1 -0.1)">
       <use xlink:href="#DejaVuSans-2212"/>
       <use xlink:href="#DejaVuSans-35" x="83.789062"/>
      </g>
     </g>
    </g>
    <g id="ytick_11">
     <g id="line2d_59">
      <path d="M 623.54 209.936 
L 1141.2 209.936 
" clip-path="url(#pa1c8c6d2d9)" style="fill: none; stroke: #b0b0b0; stroke-width: 0.8; stroke-linecap: square"/>
     </g>
     <g id="line2d_60">
      <g>
       <use xlink:href="#mda00cf594a" x="623.54" y="209.936" style="stroke: #000000; stroke-width: 0.8"/>
      </g>
     </g>
     <g id="text_33">
      <!-- 0 -->
      <g transform="translate(610.1775 213.735219) scale(0.1 -0.1)">
       <use xlink:href="#DejaVuSans-30"/>
      </g>
     </g>
    </g>
    <g id="ytick_12">
     <g id="line2d_61">
      <path d="M 623.54 149.901333 
L 1141.2 149.901333 
" clip-path="url(#pa1c8c6d2d9)" style="fill: none; stroke: #b0b0b0; stroke-width: 0.8; stroke-linecap: square"/>
     </g>
     <g id="line2d_62">
      <g>
       <use xlink:href="#mda00cf594a" x="623.54" y="149.901333" style="stroke: #000000; stroke-width: 0.8"/>
      </g>
     </g>
     <g id="text_34">
      <!-- 5 -->
      <g transform="translate(610.1775 153.700552) scale(0.1 -0.1)">
       <use xlink:href="#DejaVuSans-35"/>
      </g>
     </g>
    </g>
    <g id="ytick_13">
     <g id="line2d_63">
      <path d="M 623.54 89.866667 
L 1141.2 89.866667 
" clip-path="url(#pa1c8c6d2d9)" style="fill: none; stroke: #b0b0b0; stroke-width: 0.8; stroke-linecap: square"/>
     </g>
     <g id="line2d_64">
      <g>
       <use xlink:href="#mda00cf594a" x="623.54" y="89.866667" style="stroke: #000000; stroke-width: 0.8"/>
      </g>
     </g>
     <g id="text_35">
      <!-- 10 -->
      <g transform="translate(603.815 93.665885) scale(0.1 -0.1)">
       <use xlink:href="#DejaVuSans-31"/>
       <use xlink:href="#DejaVuSans-30" x="63.623047"/>
      </g>
     </g>
    </g>
    <g id="ytick_14">
     <g id="line2d_65">
      <path d="M 623.54 29.832 
L 1141.2 29.832 
" clip-path="url(#pa1c8c6d2d9)" style="fill: none; stroke: #b0b0b0; stroke-width: 0.8; stroke-linecap: square"/>
     </g>
     <g id="line2d_66">
      <g>
       <use xlink:href="#mda00cf594a" x="623.54" y="29.832" style="stroke: #000000; stroke-width: 0.8"/>
      </g>
     </g>
     <g id="text_36">
      <!-- 15 -->
      <g transform="translate(603.815 33.631219) scale(0.1 -0.1)">
       <use xlink:href="#DejaVuSans-31"/>
       <use xlink:href="#DejaVuSans-35" x="63.623047"/>
      </g>
     </g>
    </g>
    <g id="text_37">
     <!-- y -->
     <g transform="translate(589.355625 212.895375) rotate(-90) scale(0.1 -0.1)">
      <use xlink:href="#DejaVuSans-79"/>
     </g>
    </g>
   </g>
   <g id="QuadContourSet_3">
    <path d="M 1055.416255 390.04 
L 1047.08 377.53551 
L 1026.164444 347.873546 
L 1022.321087 342.73996 
L 1019.59387 339.101495 
L 1010.477778 327.194774 
L 994.791111 308.005547 
L 990.173231 302.716848 
L 989.562222 301.980357 
L 979.104444 290.512581 
L 968.646667 279.929527 
L 957.71 269.970667 
L 952.96 265.971112 
L 947.731111 261.890794 
L 942.502222 258.1496 
L 937.273333 254.772772 
L 932.011902 251.778343 
L 926.815556 249.161506 
L 921.586667 246.974412 
L 916.357778 245.221003 
L 911.128889 243.868726 
L 905.9 242.873109 
L 900.671111 242.234724 
L 895.442222 241.874185 
L 890.213333 241.712108 
L 869.297778 241.460724 
L 862.125741 240.862949 
L 858.84 240.411656 
L 853.611111 239.291588 
L 848.382222 237.680327 
L 847.29472 237.224485 
L 843.153333 235.240577 
L 840.507913 233.58602 
L 837.924444 231.70091 
L 836.025337 229.947556 
L 832.695556 226.245831 
L 830.604048 222.670626 
L 829.007663 219.032162 
L 827.943405 215.393697 
L 827.420883 211.755232 
L 827.466667 207.738037 
L 827.943405 204.478303 
L 829.007663 200.839838 
L 830.604048 197.201374 
L 832.741234 193.562909 
L 836.025337 189.924444 
L 837.924444 188.17109 
L 840.507913 186.28598 
L 843.153333 184.631423 
L 848.382222 182.191673 
L 853.611111 180.580412 
L 858.84 179.460344 
L 864.068889 178.771815 
L 869.297778 178.411276 
L 874.526667 178.249199 
L 895.442222 177.997815 
L 900.671111 177.637276 
L 905.9 176.998891 
L 911.128889 176.003274 
L 916.357778 174.650997 
L 921.586667 172.897588 
L 926.815556 170.710494 
L 932.044444 168.078634 
L 938.207592 164.455192 
L 942.502222 161.7224 
L 943.698304 160.816727 
L 948.704244 157.178263 
L 953.364321 153.539798 
L 958.188889 149.523964 
L 968.646667 139.942473 
L 969.566885 138.985939 
L 973.875556 134.760516 
L 984.333333 123.725819 
L 996.414306 109.878222 
L 1002.458565 102.601293 
L 1005.459626 98.962828 
L 1016.83681 84.40897 
L 1026.164444 71.998454 
L 1035.53459 58.939717 
L 1038.09099 55.301253 
L 1047.08 42.33649 
L 1055.416255 29.832 
L 1055.416255 29.832 
" clip-path="url(#pa1c8c6d2d9)" style="fill: none; stroke: #4169e1; stroke-width: 1.5"/>
   </g>
   <g id="line2d_67">
    <path d="M 623.54 209.936 
L 1141.2 209.936 
" clip-path="url(#pa1c8c6d2d9)" style="fill: none; stroke: #1f77b4; stroke-width: 1.5; stroke-linecap: square"/>
   </g>
   <g id="line2d_68">
    <path d="M 882.37 390.04 
L 882.37 29.832 
" clip-path="url(#pa1c8c6d2d9)" style="fill: none; stroke: #1f77b4; stroke-width: 1.5; stroke-linecap: square"/>
   </g>
   <g id="patch_8">
    <path d="M 623.54 390.04 
L 623.54 29.832 
" style="fill: none; stroke: #000000; stroke-width: 0.8; stroke-linejoin: miter; stroke-linecap: square"/>
   </g>
   <g id="patch_9">
    <path d="M 1141.2 390.04 
L 1141.2 29.832 
" style="fill: none; stroke: #000000; stroke-width: 0.8; stroke-linejoin: miter; stroke-linecap: square"/>
   </g>
   <g id="patch_10">
    <path d="M 623.54 390.04 
L 1141.2 390.04 
" style="fill: none; stroke: #000000; stroke-width: 0.8; stroke-linejoin: miter; stroke-linecap: square"/>
   </g>
   <g id="patch_11">
    <path d="M 623.54 29.832 
L 1141.2 29.832 
" style="fill: none; stroke: #000000; stroke-width: 0.8; stroke-linejoin: miter; stroke-linecap: square"/>
   </g>
   <g id="text_38">
    <!-- $y^2 = x^3  - 7$ -->
    <g transform="translate(850.51 23.832) scale(0.12 -0.12)">
     <use xlink:href="#DejaVuSans-Oblique-79" transform="translate(0 0.765625)"/>
     <use xlink:href="#DejaVuSans-32" transform="translate(63.645833 39.046875) scale(0.7)"/>
     <use xlink:href="#DejaVuSans-3d" transform="translate(130.398763 0.765625)"/>
     <use xlink:href="#DejaVuSans-Oblique-78" transform="translate(233.670247 0.765625)"/>
     <use xlink:href="#DejaVuSans-33" transform="translate(297.316081 39.046875) scale(0.7)"/>
     <use xlink:href="#DejaVuSans-2212" transform="translate(364.06901 0.765625)"/>
     <use xlink:href="#DejaVuSans-37" transform="translate(467.340495 0.765625)"/>
    </g>
   </g>
  </g>
 </g>
 <defs>
  <clipPath id="pea487981c8">
   <rect x="52.94" y="29.832" width="517.66" height="360.208"/>
  </clipPath>
  <clipPath id="pa1c8c6d2d9">
   <rect x="623.54" y="29.832" width="517.66" height="360.208"/>
  </clipPath>
 </defs>
</svg>
