<?xml version="1.0" encoding="utf-8" standalone="no"?>
<!DOCTYPE svg PUBLIC "-//W3C//DTD SVG 1.1//EN"
  "http://www.w3.org/Graphics/SVG/1.1/DTD/svg11.dtd">
<svg xmlns:xlink="http://www.w3.org/1999/xlink" width="1152pt" height="432pt" viewBox="0 0 1152 432" xmlns="http://www.w3.org/2000/svg" version="1.1">
 <metadata>
  <rdf:RDF xmlns:dc="http://purl.org/dc/elements/1.1/" xmlns:cc="http://creativecommons.org/ns#" xmlns:rdf="http://www.w3.org/1999/02/22-rdf-syntax-ns#">
   <cc:Work>
    <dc:type rdf:resource="http://purl.org/dc/dcmitype/StillImage"/>
    <dc:date>2023-10-14T08:01:00.959430</dc:date>
    <dc:format>image/svg+xml</dc:format>
    <dc:creator>
     <cc:Agent>
      <dc:title>Matplotlib v3.8.0, https://matplotlib.org/</dc:title>
     </cc:Agent>
    </dc:creator>
   </cc:Work>
  </rdf:RDF>
 </metadata>
 <defs>
  <style type="text/css">*{stroke-linejoin: round; stroke-linecap: butt}</style>
 </defs>
 <g id="figure_1">
  <g id="patch_1">
   <path d="M 0 432 
L 1152 432 
L 1152 0 
L 0 0 
z
" style="fill: #ffffff"/>
  </g>
  <g id="axes_1">
   <g id="patch_2">
    <path d="M 144 384.48 
L 549.818182 384.48 
L 549.818182 51.84 
L 144 51.84 
z
" style="fill: #ffffff"/>
   </g>
   <g id="matplotlib.axis_1">
    <g id="xtick_1">
     <g id="line2d_1">
      <path d="M 144 384.48 
L 144 51.84 
" clip-path="url(#pb7d81bb232)" style="fill: none; stroke: #b0b0b0; stroke-width: 0.8; stroke-linecap: square"/>
     </g>
     <g id="line2d_2">
      <defs>
       <path id="m25ceae6626" d="M 0 0 
L 0 3.5 
" style="stroke: #000000; stroke-width: 0.8"/>
      </defs>
      <g>
       <use xlink:href="#m25ceae6626" x="144" y="384.48" style="stroke: #000000; stroke-width: 0.8"/>
      </g>
     </g>
     <g id="text_1">
      <!-- −6 -->
      <g transform="translate(136.628906 399.078438) scale(0.1 -0.1)">
       <defs>
        <path id="DejaVuSans-2212" d="M 678 2272 
L 4684 2272 
L 4684 1741 
L 678 1741 
L 678 2272 
z
" transform="scale(0.015625)"/>
        <path id="DejaVuSans-36" d="M 2113 2584 
Q 1688 2584 1439 2293 
Q 1191 2003 1191 1497 
Q 1191 994 1439 701 
Q 1688 409 2113 409 
Q 2538 409 2786 701 
Q 3034 994 3034 1497 
Q 3034 2003 2786 2293 
Q 2538 2584 2113 2584 
z
M 3366 4563 
L 3366 3988 
Q 3128 4100 2886 4159 
Q 2644 4219 2406 4219 
Q 1781 4219 1451 3797 
Q 1122 3375 1075 2522 
Q 1259 2794 1537 2939 
Q 1816 3084 2150 3084 
Q 2853 3084 3261 2657 
Q 3669 2231 3669 1497 
Q 3669 778 3244 343 
Q 2819 -91 2113 -91 
Q 1303 -91 875 529 
Q 447 1150 447 2328 
Q 447 3434 972 4092 
Q 1497 4750 2381 4750 
Q 2619 4750 2861 4703 
Q 3103 4656 3366 4563 
z
" transform="scale(0.015625)"/>
       </defs>
       <use xlink:href="#DejaVuSans-2212"/>
       <use xlink:href="#DejaVuSans-36" x="83.789062"/>
      </g>
     </g>
    </g>
    <g id="xtick_2">
     <g id="line2d_3">
      <path d="M 211.636364 384.48 
L 211.636364 51.84 
" clip-path="url(#pb7d81bb232)" style="fill: none; stroke: #b0b0b0; stroke-width: 0.8; stroke-linecap: square"/>
     </g>
     <g id="line2d_4">
      <g>
       <use xlink:href="#m25ceae6626" x="211.636364" y="384.48" style="stroke: #000000; stroke-width: 0.8"/>
      </g>
     </g>
     <g id="text_2">
      <!-- −4 -->
      <g transform="translate(204.26527 399.078438) scale(0.1 -0.1)">
       <defs>
        <path id="DejaVuSans-34" d="M 2419 4116 
L 825 1625 
L 2419 1625 
L 2419 4116 
z
M 2253 4666 
L 3047 4666 
L 3047 1625 
L 3713 1625 
L 3713 1100 
L 3047 1100 
L 3047 0 
L 2419 0 
L 2419 1100 
L 313 1100 
L 313 1709 
L 2253 4666 
z
" transform="scale(0.015625)"/>
       </defs>
       <use xlink:href="#DejaVuSans-2212"/>
       <use xlink:href="#DejaVuSans-34" x="83.789062"/>
      </g>
     </g>
    </g>
    <g id="xtick_3">
     <g id="line2d_5">
      <path d="M 279.272727 384.48 
L 279.272727 51.84 
" clip-path="url(#pb7d81bb232)" style="fill: none; stroke: #b0b0b0; stroke-width: 0.8; stroke-linecap: square"/>
     </g>
     <g id="line2d_6">
      <g>
       <use xlink:href="#m25ceae6626" x="279.272727" y="384.48" style="stroke: #000000; stroke-width: 0.8"/>
      </g>
     </g>
     <g id="text_3">
      <!-- −2 -->
      <g transform="translate(271.901634 399.078438) scale(0.1 -0.1)">
       <defs>
        <path id="DejaVuSans-32" d="M 1228 531 
L 3431 531 
L 3431 0 
L 469 0 
L 469 531 
Q 828 903 1448 1529 
Q 2069 2156 2228 2338 
Q 2531 2678 2651 2914 
Q 2772 3150 2772 3378 
Q 2772 3750 2511 3984 
Q 2250 4219 1831 4219 
Q 1534 4219 1204 4116 
Q 875 4013 500 3803 
L 500 4441 
Q 881 4594 1212 4672 
Q 1544 4750 1819 4750 
Q 2544 4750 2975 4387 
Q 3406 4025 3406 3419 
Q 3406 3131 3298 2873 
Q 3191 2616 2906 2266 
Q 2828 2175 2409 1742 
Q 1991 1309 1228 531 
z
" transform="scale(0.015625)"/>
       </defs>
       <use xlink:href="#DejaVuSans-2212"/>
       <use xlink:href="#DejaVuSans-32" x="83.789062"/>
      </g>
     </g>
    </g>
    <g id="xtick_4">
     <g id="line2d_7">
      <path d="M 346.909091 384.48 
L 346.909091 51.84 
" clip-path="url(#pb7d81bb232)" style="fill: none; stroke: #b0b0b0; stroke-width: 0.8; stroke-linecap: square"/>
     </g>
     <g id="line2d_8">
      <g>
       <use xlink:href="#m25ceae6626" x="346.909091" y="384.48" style="stroke: #000000; stroke-width: 0.8"/>
      </g>
     </g>
     <g id="text_4">
      <!-- 0 -->
      <g transform="translate(343.727841 399.078438) scale(0.1 -0.1)">
       <defs>
        <path id="DejaVuSans-30" d="M 2034 4250 
Q 1547 4250 1301 3770 
Q 1056 3291 1056 2328 
Q 1056 1369 1301 889 
Q 1547 409 2034 409 
Q 2525 409 2770 889 
Q 3016 1369 3016 2328 
Q 3016 3291 2770 3770 
Q 2525 4250 2034 4250 
z
M 2034 4750 
Q 2819 4750 3233 4129 
Q 3647 3509 3647 2328 
Q 3647 1150 3233 529 
Q 2819 -91 2034 -91 
Q 1250 -91 836 529 
Q 422 1150 422 2328 
Q 422 3509 836 4129 
Q 1250 4750 2034 4750 
z
" transform="scale(0.015625)"/>
       </defs>
       <use xlink:href="#DejaVuSans-30"/>
      </g>
     </g>
    </g>
    <g id="xtick_5">
     <g id="line2d_9">
      <path d="M 414.545455 384.48 
L 414.545455 51.84 
" clip-path="url(#pb7d81bb232)" style="fill: none; stroke: #b0b0b0; stroke-width: 0.8; stroke-linecap: square"/>
     </g>
     <g id="line2d_10">
      <g>
       <use xlink:href="#m25ceae6626" x="414.545455" y="384.48" style="stroke: #000000; stroke-width: 0.8"/>
      </g>
     </g>
     <g id="text_5">
      <!-- 2 -->
      <g transform="translate(411.364205 399.078438) scale(0.1 -0.1)">
       <use xlink:href="#DejaVuSans-32"/>
      </g>
     </g>
    </g>
    <g id="xtick_6">
     <g id="line2d_11">
      <path d="M 482.181818 384.48 
L 482.181818 51.84 
" clip-path="url(#pb7d81bb232)" style="fill: none; stroke: #b0b0b0; stroke-width: 0.8; stroke-linecap: square"/>
     </g>
     <g id="line2d_12">
      <g>
       <use xlink:href="#m25ceae6626" x="482.181818" y="384.48" style="stroke: #000000; stroke-width: 0.8"/>
      </g>
     </g>
     <g id="text_6">
      <!-- 4 -->
      <g transform="translate(479.000568 399.078438) scale(0.1 -0.1)">
       <use xlink:href="#DejaVuSans-34"/>
      </g>
     </g>
    </g>
    <g id="xtick_7">
     <g id="line2d_13">
      <path d="M 549.818182 384.48 
L 549.818182 51.84 
" clip-path="url(#pb7d81bb232)" style="fill: none; stroke: #b0b0b0; stroke-width: 0.8; stroke-linecap: square"/>
     </g>
     <g id="line2d_14">
      <g>
       <use xlink:href="#m25ceae6626" x="549.818182" y="384.48" style="stroke: #000000; stroke-width: 0.8"/>
      </g>
     </g>
     <g id="text_7">
      <!-- 6 -->
      <g transform="translate(546.636932 399.078438) scale(0.1 -0.1)">
       <use xlink:href="#DejaVuSans-36"/>
      </g>
     </g>
    </g>
    <g id="text_8">
     <!-- x -->
     <g transform="translate(343.949716 412.756563) scale(0.1 -0.1)">
      <defs>
       <path id="DejaVuSans-78" d="M 3513 3500 
L 2247 1797 
L 3578 0 
L 2900 0 
L 1881 1375 
L 863 0 
L 184 0 
L 1544 1831 
L 300 3500 
L 978 3500 
L 1906 2253 
L 2834 3500 
L 3513 3500 
z
" transform="scale(0.015625)"/>
      </defs>
      <use xlink:href="#DejaVuSans-78"/>
     </g>
    </g>
   </g>
   <g id="matplotlib.axis_2">
    <g id="ytick_1">
     <g id="line2d_15">
      <path d="M 144 356.76 
L 549.818182 356.76 
" clip-path="url(#pb7d81bb232)" style="fill: none; stroke: #b0b0b0; stroke-width: 0.8; stroke-linecap: square"/>
     </g>
     <g id="line2d_16">
      <defs>
       <path id="mdba48db07d" d="M 0 0 
L -3.5 0 
" style="stroke: #000000; stroke-width: 0.8"/>
      </defs>
      <g>
       <use xlink:href="#mdba48db07d" x="144" y="356.76" style="stroke: #000000; stroke-width: 0.8"/>
      </g>
     </g>
     <g id="text_9">
      <!-- −10 -->
      <g transform="translate(115.895313 360.559219) scale(0.1 -0.1)">
       <defs>
        <path id="DejaVuSans-31" d="M 794 531 
L 1825 531 
L 1825 4091 
L 703 3866 
L 703 4441 
L 1819 4666 
L 2450 4666 
L 2450 531 
L 3481 531 
L 3481 0 
L 794 0 
L 794 531 
z
" transform="scale(0.015625)"/>
       </defs>
       <use xlink:href="#DejaVuSans-2212"/>
       <use xlink:href="#DejaVuSans-31" x="83.789062"/>
       <use xlink:href="#DejaVuSans-30" x="147.412109"/>
      </g>
     </g>
    </g>
    <g id="ytick_2">
     <g id="line2d_17">
      <path d="M 144 287.46 
L 549.818182 287.46 
" clip-path="url(#pb7d81bb232)" style="fill: none; stroke: #b0b0b0; stroke-width: 0.8; stroke-linecap: square"/>
     </g>
     <g id="line2d_18">
      <g>
       <use xlink:href="#mdba48db07d" x="144" y="287.46" style="stroke: #000000; stroke-width: 0.8"/>
      </g>
     </g>
     <g id="text_10">
      <!-- −5 -->
      <g transform="translate(122.257812 291.259219) scale(0.1 -0.1)">
       <defs>
        <path id="DejaVuSans-35" d="M 691 4666 
L 3169 4666 
L 3169 4134 
L 1269 4134 
L 1269 2991 
Q 1406 3038 1543 3061 
Q 1681 3084 1819 3084 
Q 2600 3084 3056 2656 
Q 3513 2228 3513 1497 
Q 3513 744 3044 326 
Q 2575 -91 1722 -91 
Q 1428 -91 1123 -41 
Q 819 9 494 109 
L 494 744 
Q 775 591 1075 516 
Q 1375 441 1709 441 
Q 2250 441 2565 725 
Q 2881 1009 2881 1497 
Q 2881 1984 2565 2268 
Q 2250 2553 1709 2553 
Q 1456 2553 1204 2497 
Q 953 2441 691 2322 
L 691 4666 
z
" transform="scale(0.015625)"/>
       </defs>
       <use xlink:href="#DejaVuSans-2212"/>
       <use xlink:href="#DejaVuSans-35" x="83.789062"/>
      </g>
     </g>
    </g>
    <g id="ytick_3">
     <g id="line2d_19">
      <path d="M 144 218.16 
L 549.818182 218.16 
" clip-path="url(#pb7d81bb232)" style="fill: none; stroke: #b0b0b0; stroke-width: 0.8; stroke-linecap: square"/>
     </g>
     <g id="line2d_20">
      <g>
       <use xlink:href="#mdba48db07d" x="144" y="218.16" style="stroke: #000000; stroke-width: 0.8"/>
      </g>
     </g>
     <g id="text_11">
      <!-- 0 -->
      <g transform="translate(130.6375 221.959219) scale(0.1 -0.1)">
       <use xlink:href="#DejaVuSans-30"/>
      </g>
     </g>
    </g>
    <g id="ytick_4">
     <g id="line2d_21">
      <path d="M 144 148.86 
L 549.818182 148.86 
" clip-path="url(#pb7d81bb232)" style="fill: none; stroke: #b0b0b0; stroke-width: 0.8; stroke-linecap: square"/>
     </g>
     <g id="line2d_22">
      <g>
       <use xlink:href="#mdba48db07d" x="144" y="148.86" style="stroke: #000000; stroke-width: 0.8"/>
      </g>
     </g>
     <g id="text_12">
      <!-- 5 -->
      <g transform="translate(130.6375 152.659219) scale(0.1 -0.1)">
       <use xlink:href="#DejaVuSans-35"/>
      </g>
     </g>
    </g>
    <g id="ytick_5">
     <g id="line2d_23">
      <path d="M 144 79.56 
L 549.818182 79.56 
" clip-path="url(#pb7d81bb232)" style="fill: none; stroke: #b0b0b0; stroke-width: 0.8; stroke-linecap: square"/>
     </g>
     <g id="line2d_24">
      <g>
       <use xlink:href="#mdba48db07d" x="144" y="79.56" style="stroke: #000000; stroke-width: 0.8"/>
      </g>
     </g>
     <g id="text_13">
      <!-- 10 -->
      <g transform="translate(124.275 83.359219) scale(0.1 -0.1)">
       <use xlink:href="#DejaVuSans-31"/>
       <use xlink:href="#DejaVuSans-30" x="63.623047"/>
      </g>
     </g>
    </g>
    <g id="text_14">
     <!-- y -->
     <g transform="translate(109.815625 221.119375) rotate(-90) scale(0.1 -0.1)">
      <defs>
       <path id="DejaVuSans-79" d="M 2059 -325 
Q 1816 -950 1584 -1140 
Q 1353 -1331 966 -1331 
L 506 -1331 
L 506 -850 
L 844 -850 
Q 1081 -850 1212 -737 
Q 1344 -625 1503 -206 
L 1606 56 
L 191 3500 
L 800 3500 
L 1894 763 
L 2988 3500 
L 3597 3500 
L 2059 -325 
z
" transform="scale(0.015625)"/>
      </defs>
      <use xlink:href="#DejaVuSans-79"/>
     </g>
    </g>
   </g>
   <g id="line2d_25">
    <path d="M 258.071387 433 
L 261.107822 409.352143 
L 264.15222 387.349919 
L 267.095137 367.649389 
L 270.038055 349.435133 
L 272.879493 333.207833 
L 275.72093 318.265657 
L 278.460888 305.028071 
L 281.200846 292.89536 
L 283.839323 282.214976 
L 286.376321 272.83613 
L 288.913319 264.294996 
L 291.348837 256.851036 
L 293.784355 250.115692 
L 296.118393 244.297185 
L 298.452431 239.073605 
L 300.684989 234.608617 
L 302.917548 230.639007 
L 305.048626 227.289968 
L 307.179704 224.349687 
L 309.209302 221.910404 
L 311.238901 219.805027 
L 313.268499 218.015578 
L 315.298097 216.524082 
L 317.327696 215.312563 
L 319.357294 214.363045 
L 321.386892 213.657552 
L 323.51797 213.159746 
L 325.649049 212.890349 
L 327.881607 212.830434 
L 330.317125 212.996809 
L 332.854123 213.394682 
L 335.69556 214.06955 
L 338.942918 215.076314 
L 343.002114 216.580141 
L 356.397463 221.742585 
L 359.54334 222.6153 
L 362.384778 223.174339 
L 364.921776 223.447952 
L 367.255814 223.480342 
L 369.488372 223.288684 
L 371.61945 222.880345 
L 373.649049 222.267429 
L 375.678647 221.417677 
L 377.606765 220.374673 
L 379.534884 219.08629 
L 381.463002 217.537117 
L 383.391121 215.71174 
L 385.420719 213.474958 
L 387.450317 210.89708 
L 389.479915 207.960131 
L 391.610994 204.470215 
L 393.742072 200.543794 
L 395.97463 195.93955 
L 398.207188 190.809474 
L 400.439746 185.129642 
L 402.773784 178.577858 
L 405.107822 171.371714 
L 407.54334 163.125033 
L 410.080338 153.711949 
L 412.617336 143.42464 
L 415.255814 131.760719 
L 417.894292 119.073768 
L 420.634249 104.773714 
L 423.374207 89.283604 
L 426.215645 71.915508 
L 429.057082 53.170682 
L 432 32.252416 
L 434.942918 9.74961 
L 436.278442 -1 
L 436.278442 -1 
" clip-path="url(#pb7d81bb232)" style="fill: none; stroke: #4169e1; stroke-width: 3; stroke-linecap: square"/>
   </g>
   <g id="line2d_26">
    <path d="M 257.53974 -1 
L 260.600423 23.136222 
L 263.64482 45.419209 
L 266.587738 65.381532 
L 269.530655 83.848133 
L 272.372093 100.31011 
L 275.213531 115.478154 
L 277.953488 128.925201 
L 280.693446 141.259181 
L 283.331924 152.12564 
L 285.868922 161.676241 
L 288.40592 170.382108 
L 290.841438 177.977607 
L 293.276956 184.858018 
L 295.610994 190.809474 
L 297.945032 196.16006 
L 300.17759 200.740972 
L 302.410148 204.821067 
L 304.541226 208.270497 
L 306.672304 211.306213 
L 308.803383 213.949027 
L 310.832981 216.119747 
L 312.862579 217.970944 
L 314.892178 219.520592 
L 316.921776 220.786668 
L 318.951374 221.787148 
L 320.980973 222.540009 
L 323.010571 223.063225 
L 325.141649 223.385117 
L 327.374207 223.494714 
L 329.708245 223.385837 
L 332.245243 223.03987 
L 334.985201 222.439344 
L 338.131078 221.515187 
L 341.987315 220.13441 
L 348.27907 217.599451 
L 354.063425 215.359103 
L 357.716702 214.183001 
L 360.761099 213.435379 
L 363.399577 213.008549 
L 365.835095 212.832736 
L 368.169133 212.890349 
L 370.300211 213.159746 
L 372.43129 213.657552 
L 374.460888 214.363045 
L 376.490486 215.312563 
L 378.418605 216.457006 
L 380.346723 217.853317 
L 382.274841 219.516908 
L 384.30444 221.573751 
L 386.334038 223.961801 
L 388.363636 226.699037 
L 390.393235 229.803432 
L 392.524313 233.477874 
L 394.655391 237.597738 
L 396.887949 242.414203 
L 399.120507 247.766287 
L 401.454545 253.960309 
L 403.788584 260.793238 
L 406.224101 268.634001 
L 408.659619 277.231268 
L 411.196617 287.024686 
L 413.733615 297.707777 
L 416.372093 309.799699 
L 419.010571 322.931359 
L 421.750529 337.710912 
L 424.490486 353.698539 
L 427.331924 371.60161 
L 430.274841 391.616487 
L 433.217759 413.183778 
L 435.746795 433 
L 435.746795 433 
" clip-path="url(#pb7d81bb232)" style="fill: none; stroke: #ff0000; stroke-width: 3; stroke-linecap: square"/>
   </g>
   <g id="line2d_27">
    <path d="M 144 218.16 
L 549.818182 218.16 
" clip-path="url(#pb7d81bb232)" style="fill: none; stroke: #1f77b4; stroke-width: 1.5; stroke-linecap: square"/>
   </g>
   <g id="line2d_28">
    <path d="M 346.909091 384.48 
L 346.909091 51.84 
" clip-path="url(#pb7d81bb232)" style="fill: none; stroke: #1f77b4; stroke-width: 1.5; stroke-linecap: square"/>
   </g>
   <g id="patch_3">
    <path d="M 144 384.48 
L 144 51.84 
" style="fill: none; stroke: #000000; stroke-width: 0.8; stroke-linejoin: miter; stroke-linecap: square"/>
   </g>
   <g id="patch_4">
    <path d="M 549.818182 384.48 
L 549.818182 51.84 
" style="fill: none; stroke: #000000; stroke-width: 0.8; stroke-linejoin: miter; stroke-linecap: square"/>
   </g>
   <g id="patch_5">
    <path d="M 144 384.48 
L 549.818182 384.48 
" style="fill: none; stroke: #000000; stroke-width: 0.8; stroke-linejoin: miter; stroke-linecap: square"/>
   </g>
   <g id="patch_6">
    <path d="M 144 51.84 
L 549.818182 51.84 
" style="fill: none; stroke: #000000; stroke-width: 0.8; stroke-linejoin: miter; stroke-linecap: square"/>
   </g>
   <g id="text_15">
    <!-- Cubic Curve: $y = x^3 + -1x + 0$ -->
    <g transform="translate(255.709091 45.84) scale(0.12 -0.12)">
     <defs>
      <path id="DejaVuSans-43" d="M 4122 4306 
L 4122 3641 
Q 3803 3938 3442 4084 
Q 3081 4231 2675 4231 
Q 1875 4231 1450 3742 
Q 1025 3253 1025 2328 
Q 1025 1406 1450 917 
Q 1875 428 2675 428 
Q 3081 428 3442 575 
Q 3803 722 4122 1019 
L 4122 359 
Q 3791 134 3420 21 
Q 3050 -91 2638 -91 
Q 1578 -91 968 557 
Q 359 1206 359 2328 
Q 359 3453 968 4101 
Q 1578 4750 2638 4750 
Q 3056 4750 3426 4639 
Q 3797 4528 4122 4306 
z
" transform="scale(0.015625)"/>
      <path id="DejaVuSans-75" d="M 544 1381 
L 544 3500 
L 1119 3500 
L 1119 1403 
Q 1119 906 1312 657 
Q 1506 409 1894 409 
Q 2359 409 2629 706 
Q 2900 1003 2900 1516 
L 2900 3500 
L 3475 3500 
L 3475 0 
L 2900 0 
L 2900 538 
Q 2691 219 2414 64 
Q 2138 -91 1772 -91 
Q 1169 -91 856 284 
Q 544 659 544 1381 
z
M 1991 3584 
L 1991 3584 
z
" transform="scale(0.015625)"/>
      <path id="DejaVuSans-62" d="M 3116 1747 
Q 3116 2381 2855 2742 
Q 2594 3103 2138 3103 
Q 1681 3103 1420 2742 
Q 1159 2381 1159 1747 
Q 1159 1113 1420 752 
Q 1681 391 2138 391 
Q 2594 391 2855 752 
Q 3116 1113 3116 1747 
z
M 1159 2969 
Q 1341 3281 1617 3432 
Q 1894 3584 2278 3584 
Q 2916 3584 3314 3078 
Q 3713 2572 3713 1747 
Q 3713 922 3314 415 
Q 2916 -91 2278 -91 
Q 1894 -91 1617 61 
Q 1341 213 1159 525 
L 1159 0 
L 581 0 
L 581 4863 
L 1159 4863 
L 1159 2969 
z
" transform="scale(0.015625)"/>
      <path id="DejaVuSans-69" d="M 603 3500 
L 1178 3500 
L 1178 0 
L 603 0 
L 603 3500 
z
M 603 4863 
L 1178 4863 
L 1178 4134 
L 603 4134 
L 603 4863 
z
" transform="scale(0.015625)"/>
      <path id="DejaVuSans-63" d="M 3122 3366 
L 3122 2828 
Q 2878 2963 2633 3030 
Q 2388 3097 2138 3097 
Q 1578 3097 1268 2742 
Q 959 2388 959 1747 
Q 959 1106 1268 751 
Q 1578 397 2138 397 
Q 2388 397 2633 464 
Q 2878 531 3122 666 
L 3122 134 
Q 2881 22 2623 -34 
Q 2366 -91 2075 -91 
Q 1284 -91 818 406 
Q 353 903 353 1747 
Q 353 2603 823 3093 
Q 1294 3584 2113 3584 
Q 2378 3584 2631 3529 
Q 2884 3475 3122 3366 
z
" transform="scale(0.015625)"/>
      <path id="DejaVuSans-20" transform="scale(0.015625)"/>
      <path id="DejaVuSans-72" d="M 2631 2963 
Q 2534 3019 2420 3045 
Q 2306 3072 2169 3072 
Q 1681 3072 1420 2755 
Q 1159 2438 1159 1844 
L 1159 0 
L 581 0 
L 581 3500 
L 1159 3500 
L 1159 2956 
Q 1341 3275 1631 3429 
Q 1922 3584 2338 3584 
Q 2397 3584 2469 3576 
Q 2541 3569 2628 3553 
L 2631 2963 
z
" transform="scale(0.015625)"/>
      <path id="DejaVuSans-76" d="M 191 3500 
L 800 3500 
L 1894 563 
L 2988 3500 
L 3597 3500 
L 2284 0 
L 1503 0 
L 191 3500 
z
" transform="scale(0.015625)"/>
      <path id="DejaVuSans-65" d="M 3597 1894 
L 3597 1613 
L 953 1613 
Q 991 1019 1311 708 
Q 1631 397 2203 397 
Q 2534 397 2845 478 
Q 3156 559 3463 722 
L 3463 178 
Q 3153 47 2828 -22 
Q 2503 -91 2169 -91 
Q 1331 -91 842 396 
Q 353 884 353 1716 
Q 353 2575 817 3079 
Q 1281 3584 2069 3584 
Q 2775 3584 3186 3129 
Q 3597 2675 3597 1894 
z
M 3022 2063 
Q 3016 2534 2758 2815 
Q 2500 3097 2075 3097 
Q 1594 3097 1305 2825 
Q 1016 2553 972 2059 
L 3022 2063 
z
" transform="scale(0.015625)"/>
      <path id="DejaVuSans-3a" d="M 750 794 
L 1409 794 
L 1409 0 
L 750 0 
L 750 794 
z
M 750 3309 
L 1409 3309 
L 1409 2516 
L 750 2516 
L 750 3309 
z
" transform="scale(0.015625)"/>
      <path id="DejaVuSans-Oblique-79" d="M 1588 -325 
Q 1188 -997 936 -1164 
Q 684 -1331 294 -1331 
L -159 -1331 
L -63 -850 
L 269 -850 
Q 509 -850 678 -719 
Q 847 -588 1056 -206 
L 1234 128 
L 459 3500 
L 1069 3500 
L 1650 819 
L 3256 3500 
L 3859 3500 
L 1588 -325 
z
" transform="scale(0.015625)"/>
      <path id="DejaVuSans-3d" d="M 678 2906 
L 4684 2906 
L 4684 2381 
L 678 2381 
L 678 2906 
z
M 678 1631 
L 4684 1631 
L 4684 1100 
L 678 1100 
L 678 1631 
z
" transform="scale(0.015625)"/>
      <path id="DejaVuSans-Oblique-78" d="M 3841 3500 
L 2234 1784 
L 3219 0 
L 2559 0 
L 1819 1388 
L 531 0 
L -166 0 
L 1556 1844 
L 641 3500 
L 1300 3500 
L 1972 2234 
L 3144 3500 
L 3841 3500 
z
" transform="scale(0.015625)"/>
      <path id="DejaVuSans-33" d="M 2597 2516 
Q 3050 2419 3304 2112 
Q 3559 1806 3559 1356 
Q 3559 666 3084 287 
Q 2609 -91 1734 -91 
Q 1441 -91 1130 -33 
Q 819 25 488 141 
L 488 750 
Q 750 597 1062 519 
Q 1375 441 1716 441 
Q 2309 441 2620 675 
Q 2931 909 2931 1356 
Q 2931 1769 2642 2001 
Q 2353 2234 1838 2234 
L 1294 2234 
L 1294 2753 
L 1863 2753 
Q 2328 2753 2575 2939 
Q 2822 3125 2822 3475 
Q 2822 3834 2567 4026 
Q 2313 4219 1838 4219 
Q 1578 4219 1281 4162 
Q 984 4106 628 3988 
L 628 4550 
Q 988 4650 1302 4700 
Q 1616 4750 1894 4750 
Q 2613 4750 3031 4423 
Q 3450 4097 3450 3541 
Q 3450 3153 3228 2886 
Q 3006 2619 2597 2516 
z
" transform="scale(0.015625)"/>
      <path id="DejaVuSans-2b" d="M 2944 4013 
L 2944 2272 
L 4684 2272 
L 4684 1741 
L 2944 1741 
L 2944 0 
L 2419 0 
L 2419 1741 
L 678 1741 
L 678 2272 
L 2419 2272 
L 2419 4013 
L 2944 4013 
z
" transform="scale(0.015625)"/>
     </defs>
     <use xlink:href="#DejaVuSans-43" transform="translate(0 0.765625)"/>
     <use xlink:href="#DejaVuSans-75" transform="translate(69.824219 0.765625)"/>
     <use xlink:href="#DejaVuSans-62" transform="translate(133.203125 0.765625)"/>
     <use xlink:href="#DejaVuSans-69" transform="translate(196.679688 0.765625)"/>
     <use xlink:href="#DejaVuSans-63" transform="translate(224.462891 0.765625)"/>
     <use xlink:href="#DejaVuSans-20" transform="translate(279.443359 0.765625)"/>
     <use xlink:href="#DejaVuSans-43" transform="translate(311.230469 0.765625)"/>
     <use xlink:href="#DejaVuSans-75" transform="translate(381.054688 0.765625)"/>
     <use xlink:href="#DejaVuSans-72" transform="translate(444.433594 0.765625)"/>
     <use xlink:href="#DejaVuSans-76" transform="translate(485.546875 0.765625)"/>
     <use xlink:href="#DejaVuSans-65" transform="translate(544.726562 0.765625)"/>
     <use xlink:href="#DejaVuSans-3a" transform="translate(606.25 0.765625)"/>
     <use xlink:href="#DejaVuSans-20" transform="translate(639.941406 0.765625)"/>
     <use xlink:href="#DejaVuSans-Oblique-79" transform="translate(671.728516 0.765625)"/>
     <use xlink:href="#DejaVuSans-3d" transform="translate(750.390625 0.765625)"/>
     <use xlink:href="#DejaVuSans-Oblique-78" transform="translate(853.662109 0.765625)"/>
     <use xlink:href="#DejaVuSans-33" transform="translate(917.307943 39.046875) scale(0.7)"/>
     <use xlink:href="#DejaVuSans-2b" transform="translate(984.060872 0.765625)"/>
     <use xlink:href="#DejaVuSans-2212" transform="translate(1106.814779 0.765625)"/>
     <use xlink:href="#DejaVuSans-31" transform="translate(1210.086263 0.765625)"/>
     <use xlink:href="#DejaVuSans-Oblique-78" transform="translate(1273.70931 0.765625)"/>
     <use xlink:href="#DejaVuSans-2b" transform="translate(1352.371419 0.765625)"/>
     <use xlink:href="#DejaVuSans-30" transform="translate(1455.642904 0.765625)"/>
    </g>
   </g>
   <g id="legend_1">
    <g id="patch_7">
     <path d="M 418.418182 235.86 
L 542.818182 235.86 
Q 544.818182 235.86 544.818182 233.86 
L 544.818182 202.46 
Q 544.818182 200.46 542.818182 200.46 
L 418.418182 200.46 
Q 416.418182 200.46 416.418182 202.46 
L 416.418182 233.86 
Q 416.418182 235.86 418.418182 235.86 
z
" style="fill: #ffffff; opacity: 0.8; stroke: #cccccc; stroke-linejoin: miter"/>
    </g>
    <g id="line2d_29">
     <path d="M 420.418182 210.06 
L 430.418182 210.06 
L 440.418182 210.06 
" style="fill: none; stroke: #4169e1; stroke-width: 3; stroke-linecap: square"/>
    </g>
    <g id="text_16">
     <!-- $y = x^3 + ax + b$ -->
     <g transform="translate(448.418182 213.56) scale(0.1 -0.1)">
      <defs>
       <path id="DejaVuSans-Oblique-61" d="M 3438 1997 
L 3047 0 
L 2472 0 
L 2578 531 
Q 2325 219 2001 64 
Q 1678 -91 1281 -91 
Q 834 -91 548 182 
Q 263 456 263 884 
Q 263 1497 752 1853 
Q 1241 2209 2100 2209 
L 2900 2209 
L 2931 2363 
Q 2938 2388 2941 2417 
Q 2944 2447 2944 2509 
Q 2944 2788 2717 2942 
Q 2491 3097 2081 3097 
Q 1800 3097 1504 3025 
Q 1209 2953 897 2809 
L 997 3341 
Q 1322 3463 1633 3523 
Q 1944 3584 2234 3584 
Q 2853 3584 3176 3315 
Q 3500 3047 3500 2534 
Q 3500 2431 3484 2292 
Q 3469 2153 3438 1997 
z
M 2816 1759 
L 2241 1759 
Q 1534 1759 1195 1570 
Q 856 1381 856 984 
Q 856 709 1029 553 
Q 1203 397 1509 397 
Q 1978 397 2328 733 
Q 2678 1069 2791 1631 
L 2816 1759 
z
" transform="scale(0.015625)"/>
       <path id="DejaVuSans-Oblique-62" d="M 3169 2138 
Q 3169 2591 2961 2847 
Q 2753 3103 2388 3103 
Q 2122 3103 1889 2973 
Q 1656 2844 1484 2597 
Q 1303 2338 1198 1995 
Q 1094 1653 1094 1313 
Q 1094 881 1298 636 
Q 1503 391 1863 391 
Q 2134 391 2365 517 
Q 2597 644 2772 891 
Q 2950 1147 3059 1487 
Q 3169 1828 3169 2138 
z
M 1381 2969 
Q 1594 3256 1914 3420 
Q 2234 3584 2584 3584 
Q 3122 3584 3439 3221 
Q 3756 2859 3756 2241 
Q 3756 1734 3570 1259 
Q 3384 784 3041 416 
Q 2816 172 2522 40 
Q 2228 -91 1906 -91 
Q 1566 -91 1316 65 
Q 1066 222 909 531 
L 806 0 
L 231 0 
L 1178 4863 
L 1753 4863 
L 1381 2969 
z
" transform="scale(0.015625)"/>
      </defs>
      <use xlink:href="#DejaVuSans-Oblique-79" transform="translate(0 0.765625)"/>
      <use xlink:href="#DejaVuSans-3d" transform="translate(78.662109 0.765625)"/>
      <use xlink:href="#DejaVuSans-Oblique-78" transform="translate(181.933594 0.765625)"/>
      <use xlink:href="#DejaVuSans-33" transform="translate(245.579427 39.046875) scale(0.7)"/>
      <use xlink:href="#DejaVuSans-2b" transform="translate(312.332357 0.765625)"/>
      <use xlink:href="#DejaVuSans-Oblique-61" transform="translate(415.603841 0.765625)"/>
      <use xlink:href="#DejaVuSans-Oblique-78" transform="translate(476.883138 0.765625)"/>
      <use xlink:href="#DejaVuSans-2b" transform="translate(555.545247 0.765625)"/>
      <use xlink:href="#DejaVuSans-Oblique-62" transform="translate(658.816732 0.765625)"/>
     </g>
    </g>
    <g id="line2d_30">
     <path d="M 420.418182 226.26 
L 430.418182 226.26 
L 440.418182 226.26 
" style="fill: none; stroke: #ff0000; stroke-width: 3; stroke-linecap: square"/>
    </g>
    <g id="text_17">
     <!-- $y = -(x^3 + ax + b)$ -->
     <g transform="translate(448.418182 229.76) scale(0.1 -0.1)">
      <defs>
       <path id="DejaVuSans-28" d="M 1984 4856 
Q 1566 4138 1362 3434 
Q 1159 2731 1159 2009 
Q 1159 1288 1364 580 
Q 1569 -128 1984 -844 
L 1484 -844 
Q 1016 -109 783 600 
Q 550 1309 550 2009 
Q 550 2706 781 3412 
Q 1013 4119 1484 4856 
L 1984 4856 
z
" transform="scale(0.015625)"/>
       <path id="DejaVuSans-29" d="M 513 4856 
L 1013 4856 
Q 1481 4119 1714 3412 
Q 1947 2706 1947 2009 
Q 1947 1309 1714 600 
Q 1481 -109 1013 -844 
L 513 -844 
Q 928 -128 1133 580 
Q 1338 1288 1338 2009 
Q 1338 2731 1133 3434 
Q 928 4138 513 4856 
z
" transform="scale(0.015625)"/>
      </defs>
      <use xlink:href="#DejaVuSans-Oblique-79" transform="translate(0 0.765625)"/>
      <use xlink:href="#DejaVuSans-3d" transform="translate(78.662109 0.765625)"/>
      <use xlink:href="#DejaVuSans-2212" transform="translate(201.416016 0.765625)"/>
      <use xlink:href="#DejaVuSans-28" transform="translate(304.6875 0.765625)"/>
      <use xlink:href="#DejaVuSans-Oblique-78" transform="translate(343.701172 0.765625)"/>
      <use xlink:href="#DejaVuSans-33" transform="translate(407.347005 39.046875) scale(0.7)"/>
      <use xlink:href="#DejaVuSans-2b" transform="translate(474.099935 0.765625)"/>
      <use xlink:href="#DejaVuSans-Oblique-61" transform="translate(577.371419 0.765625)"/>
      <use xlink:href="#DejaVuSans-Oblique-78" transform="translate(638.650716 0.765625)"/>
      <use xlink:href="#DejaVuSans-2b" transform="translate(717.312826 0.765625)"/>
      <use xlink:href="#DejaVuSans-Oblique-62" transform="translate(820.58431 0.765625)"/>
      <use xlink:href="#DejaVuSans-29" transform="translate(884.060872 0.765625)"/>
     </g>
    </g>
   </g>
  </g>
  <g id="axes_2">
   <g id="patch_8">
    <path d="M 630.981818 384.48 
L 1036.8 384.48 
L 1036.8 51.84 
L 630.981818 51.84 
z
" style="fill: #ffffff"/>
   </g>
   <g id="matplotlib.axis_3">
    <g id="xtick_8">
     <g id="line2d_31">
      <path d="M 630.981818 384.48 
L 630.981818 51.84 
" clip-path="url(#p7d6dc9e3da)" style="fill: none; stroke: #b0b0b0; stroke-width: 0.8; stroke-linecap: square"/>
     </g>
     <g id="line2d_32">
      <g>
       <use xlink:href="#m25ceae6626" x="630.981818" y="384.48" style="stroke: #000000; stroke-width: 0.8"/>
      </g>
     </g>
     <g id="text_18">
      <!-- −6 -->
      <g transform="translate(623.610724 399.078438) scale(0.1 -0.1)">
       <use xlink:href="#DejaVuSans-2212"/>
       <use xlink:href="#DejaVuSans-36" x="83.789062"/>
      </g>
     </g>
    </g>
    <g id="xtick_9">
     <g id="line2d_33">
      <path d="M 698.618182 384.48 
L 698.618182 51.84 
" clip-path="url(#p7d6dc9e3da)" style="fill: none; stroke: #b0b0b0; stroke-width: 0.8; stroke-linecap: square"/>
     </g>
     <g id="line2d_34">
      <g>
       <use xlink:href="#m25ceae6626" x="698.618182" y="384.48" style="stroke: #000000; stroke-width: 0.8"/>
      </g>
     </g>
     <g id="text_19">
      <!-- −4 -->
      <g transform="translate(691.247088 399.078438) scale(0.1 -0.1)">
       <use xlink:href="#DejaVuSans-2212"/>
       <use xlink:href="#DejaVuSans-34" x="83.789062"/>
      </g>
     </g>
    </g>
    <g id="xtick_10">
     <g id="line2d_35">
      <path d="M 766.254545 384.48 
L 766.254545 51.84 
" clip-path="url(#p7d6dc9e3da)" style="fill: none; stroke: #b0b0b0; stroke-width: 0.8; stroke-linecap: square"/>
     </g>
     <g id="line2d_36">
      <g>
       <use xlink:href="#m25ceae6626" x="766.254545" y="384.48" style="stroke: #000000; stroke-width: 0.8"/>
      </g>
     </g>
     <g id="text_20">
      <!-- −2 -->
      <g transform="translate(758.883452 399.078438) scale(0.1 -0.1)">
       <use xlink:href="#DejaVuSans-2212"/>
       <use xlink:href="#DejaVuSans-32" x="83.789062"/>
      </g>
     </g>
    </g>
    <g id="xtick_11">
     <g id="line2d_37">
      <path d="M 833.890909 384.48 
L 833.890909 51.84 
" clip-path="url(#p7d6dc9e3da)" style="fill: none; stroke: #b0b0b0; stroke-width: 0.8; stroke-linecap: square"/>
     </g>
     <g id="line2d_38">
      <g>
       <use xlink:href="#m25ceae6626" x="833.890909" y="384.48" style="stroke: #000000; stroke-width: 0.8"/>
      </g>
     </g>
     <g id="text_21">
      <!-- 0 -->
      <g transform="translate(830.709659 399.078438) scale(0.1 -0.1)">
       <use xlink:href="#DejaVuSans-30"/>
      </g>
     </g>
    </g>
    <g id="xtick_12">
     <g id="line2d_39">
      <path d="M 901.527273 384.48 
L 901.527273 51.84 
" clip-path="url(#p7d6dc9e3da)" style="fill: none; stroke: #b0b0b0; stroke-width: 0.8; stroke-linecap: square"/>
     </g>
     <g id="line2d_40">
      <g>
       <use xlink:href="#m25ceae6626" x="901.527273" y="384.48" style="stroke: #000000; stroke-width: 0.8"/>
      </g>
     </g>
     <g id="text_22">
      <!-- 2 -->
      <g transform="translate(898.346023 399.078438) scale(0.1 -0.1)">
       <use xlink:href="#DejaVuSans-32"/>
      </g>
     </g>
    </g>
    <g id="xtick_13">
     <g id="line2d_41">
      <path d="M 969.163636 384.48 
L 969.163636 51.84 
" clip-path="url(#p7d6dc9e3da)" style="fill: none; stroke: #b0b0b0; stroke-width: 0.8; stroke-linecap: square"/>
     </g>
     <g id="line2d_42">
      <g>
       <use xlink:href="#m25ceae6626" x="969.163636" y="384.48" style="stroke: #000000; stroke-width: 0.8"/>
      </g>
     </g>
     <g id="text_23">
      <!-- 4 -->
      <g transform="translate(965.982386 399.078438) scale(0.1 -0.1)">
       <use xlink:href="#DejaVuSans-34"/>
      </g>
     </g>
    </g>
    <g id="xtick_14">
     <g id="line2d_43">
      <path d="M 1036.8 384.48 
L 1036.8 51.84 
" clip-path="url(#p7d6dc9e3da)" style="fill: none; stroke: #b0b0b0; stroke-width: 0.8; stroke-linecap: square"/>
     </g>
     <g id="line2d_44">
      <g>
       <use xlink:href="#m25ceae6626" x="1036.8" y="384.48" style="stroke: #000000; stroke-width: 0.8"/>
      </g>
     </g>
     <g id="text_24">
      <!-- 6 -->
      <g transform="translate(1033.61875 399.078438) scale(0.1 -0.1)">
       <use xlink:href="#DejaVuSans-36"/>
      </g>
     </g>
    </g>
    <g id="text_25">
     <!-- x -->
     <g transform="translate(830.931534 412.756563) scale(0.1 -0.1)">
      <use xlink:href="#DejaVuSans-78"/>
     </g>
    </g>
   </g>
   <g id="matplotlib.axis_4">
    <g id="ytick_6">
     <g id="line2d_45">
      <path d="M 630.981818 356.76 
L 1036.8 356.76 
" clip-path="url(#p7d6dc9e3da)" style="fill: none; stroke: #b0b0b0; stroke-width: 0.8; stroke-linecap: square"/>
     </g>
     <g id="line2d_46">
      <g>
       <use xlink:href="#mdba48db07d" x="630.981818" y="356.76" style="stroke: #000000; stroke-width: 0.8"/>
      </g>
     </g>
     <g id="text_26">
      <!-- −10 -->
      <g transform="translate(602.877131 360.559219) scale(0.1 -0.1)">
       <use xlink:href="#DejaVuSans-2212"/>
       <use xlink:href="#DejaVuSans-31" x="83.789062"/>
       <use xlink:href="#DejaVuSans-30" x="147.412109"/>
      </g>
     </g>
    </g>
    <g id="ytick_7">
     <g id="line2d_47">
      <path d="M 630.981818 287.46 
L 1036.8 287.46 
" clip-path="url(#p7d6dc9e3da)" style="fill: none; stroke: #b0b0b0; stroke-width: 0.8; stroke-linecap: square"/>
     </g>
     <g id="line2d_48">
      <g>
       <use xlink:href="#mdba48db07d" x="630.981818" y="287.46" style="stroke: #000000; stroke-width: 0.8"/>
      </g>
     </g>
     <g id="text_27">
      <!-- −5 -->
      <g transform="translate(609.239631 291.259219) scale(0.1 -0.1)">
       <use xlink:href="#DejaVuSans-2212"/>
       <use xlink:href="#DejaVuSans-35" x="83.789062"/>
      </g>
     </g>
    </g>
    <g id="ytick_8">
     <g id="line2d_49">
      <path d="M 630.981818 218.16 
L 1036.8 218.16 
" clip-path="url(#p7d6dc9e3da)" style="fill: none; stroke: #b0b0b0; stroke-width: 0.8; stroke-linecap: square"/>
     </g>
     <g id="line2d_50">
      <g>
       <use xlink:href="#mdba48db07d" x="630.981818" y="218.16" style="stroke: #000000; stroke-width: 0.8"/>
      </g>
     </g>
     <g id="text_28">
      <!-- 0 -->
      <g transform="translate(617.619318 221.959219) scale(0.1 -0.1)">
       <use xlink:href="#DejaVuSans-30"/>
      </g>
     </g>
    </g>
    <g id="ytick_9">
     <g id="line2d_51">
      <path d="M 630.981818 148.86 
L 1036.8 148.86 
" clip-path="url(#p7d6dc9e3da)" style="fill: none; stroke: #b0b0b0; stroke-width: 0.8; stroke-linecap: square"/>
     </g>
     <g id="line2d_52">
      <g>
       <use xlink:href="#mdba48db07d" x="630.981818" y="148.86" style="stroke: #000000; stroke-width: 0.8"/>
      </g>
     </g>
     <g id="text_29">
      <!-- 5 -->
      <g transform="translate(617.619318 152.659219) scale(0.1 -0.1)">
       <use xlink:href="#DejaVuSans-35"/>
      </g>
     </g>
    </g>
    <g id="ytick_10">
     <g id="line2d_53">
      <path d="M 630.981818 79.56 
L 1036.8 79.56 
" clip-path="url(#p7d6dc9e3da)" style="fill: none; stroke: #b0b0b0; stroke-width: 0.8; stroke-linecap: square"/>
     </g>
     <g id="line2d_54">
      <g>
       <use xlink:href="#mdba48db07d" x="630.981818" y="79.56" style="stroke: #000000; stroke-width: 0.8"/>
      </g>
     </g>
     <g id="text_30">
      <!-- 10 -->
      <g transform="translate(611.256818 83.359219) scale(0.1 -0.1)">
       <use xlink:href="#DejaVuSans-31"/>
       <use xlink:href="#DejaVuSans-30" x="63.623047"/>
      </g>
     </g>
    </g>
    <g id="text_31">
     <!-- y -->
     <g transform="translate(596.797443 221.119375) rotate(-90) scale(0.1 -0.1)">
      <use xlink:href="#DejaVuSans-79"/>
     </g>
    </g>
   </g>
   <g id="line2d_55">
    <path d="M 800.148837 217.231696 
L 800.453277 216.098297 
L 800.960677 215.046493 
L 801.772516 213.931606 
L 802.787315 212.942166 
L 804.005074 212.062106 
L 805.527273 211.247585 
L 807.252431 210.581768 
L 809.18055 210.07149 
L 811.413108 209.717574 
L 813.848626 209.56578 
L 816.385624 209.628096 
L 819.125581 209.920823 
L 821.865539 210.435278 
L 824.605497 211.176575 
L 827.142495 212.093122 
L 829.273573 213.086617 
L 830.998732 214.121626 
L 832.21649 215.079742 
L 833.02833 215.947179 
L 833.535729 216.739673 
L 833.840169 217.623138 
L 867.734461 217.622835 
L 868.038901 216.210162 
L 868.64778 214.826487 
L 869.561099 213.385058 
L 870.880338 211.737092 
L 872.909937 209.591798 
L 875.954334 206.727001 
L 881.434249 201.921313 
L 896.148837 189.09263 
L 904.26723 181.670696 
L 912.081184 174.226624 
L 919.895137 166.477445 
L 927.810571 158.316294 
L 935.928964 149.624722 
L 944.250317 140.385162 
L 952.67315 130.700075 
L 961.298943 120.443373 
L 970.127696 109.600175 
L 979.159408 98.155959 
L 988.39408 86.096453 
L 997.831712 73.40756 
L 1007.573784 59.933015 
L 1017.518816 45.793448 
L 1027.666808 30.975102 
L 1036.8 17.309518 
L 1036.8 17.309518 
" clip-path="url(#p7d6dc9e3da)" style="fill: none; stroke: #4169e1; stroke-width: 3; stroke-linecap: square"/>
   </g>
   <g id="line2d_56">
    <path d="M 800.148837 219.088304 
L 800.453277 220.221703 
L 800.960677 221.273507 
L 801.772516 222.388394 
L 802.787315 223.377834 
L 804.005074 224.257894 
L 805.527273 225.072415 
L 807.252431 225.738232 
L 809.18055 226.24851 
L 811.413108 226.602426 
L 813.848626 226.75422 
L 816.385624 226.691904 
L 819.125581 226.399177 
L 821.865539 225.884722 
L 824.605497 225.143425 
L 827.142495 224.226878 
L 829.273573 223.233383 
L 830.998732 222.198374 
L 832.21649 221.240258 
L 833.02833 220.372821 
L 833.535729 219.580327 
L 833.840169 218.696862 
L 867.734461 218.697165 
L 868.038901 220.109838 
L 868.64778 221.493513 
L 869.561099 222.934942 
L 870.880338 224.582908 
L 872.909937 226.728202 
L 875.954334 229.592999 
L 881.434249 234.398687 
L 896.148837 247.22737 
L 904.26723 254.649304 
L 912.081184 262.093376 
L 919.895137 269.842555 
L 927.810571 278.003706 
L 935.928964 286.695278 
L 944.250317 295.934838 
L 952.67315 305.619925 
L 961.298943 315.876627 
L 970.127696 326.719825 
L 979.159408 338.164041 
L 988.39408 350.223547 
L 997.831712 362.91244 
L 1007.573784 376.386985 
L 1017.518816 390.526552 
L 1027.666808 405.344898 
L 1036.8 419.010482 
L 1036.8 419.010482 
" clip-path="url(#p7d6dc9e3da)" style="fill: none; stroke: #ff0000; stroke-width: 3; stroke-linecap: square"/>
   </g>
   <g id="line2d_57">
    <path d="M 630.981818 218.16 
L 1036.8 218.16 
" clip-path="url(#p7d6dc9e3da)" style="fill: none; stroke: #1f77b4; stroke-width: 1.5; stroke-linecap: square"/>
   </g>
   <g id="line2d_58">
    <path d="M 833.890909 384.48 
L 833.890909 51.84 
" clip-path="url(#p7d6dc9e3da)" style="fill: none; stroke: #1f77b4; stroke-width: 1.5; stroke-linecap: square"/>
   </g>
   <g id="patch_9">
    <path d="M 630.981818 384.48 
L 630.981818 51.84 
" style="fill: none; stroke: #000000; stroke-width: 0.8; stroke-linejoin: miter; stroke-linecap: square"/>
   </g>
   <g id="patch_10">
    <path d="M 1036.8 384.48 
L 1036.8 51.84 
" style="fill: none; stroke: #000000; stroke-width: 0.8; stroke-linejoin: miter; stroke-linecap: square"/>
   </g>
   <g id="patch_11">
    <path d="M 630.981818 384.48 
L 1036.8 384.48 
" style="fill: none; stroke: #000000; stroke-width: 0.8; stroke-linejoin: miter; stroke-linecap: square"/>
   </g>
   <g id="patch_12">
    <path d="M 630.981818 51.84 
L 1036.8 51.84 
" style="fill: none; stroke: #000000; stroke-width: 0.8; stroke-linejoin: miter; stroke-linecap: square"/>
   </g>
   <g id="text_32">
    <!-- Elliptic Curve: $y^2 = x^3 + -1x + 0$ -->
    <g transform="translate(736.450909 45.84) scale(0.12 -0.12)">
     <defs>
      <path id="DejaVuSans-45" d="M 628 4666 
L 3578 4666 
L 3578 4134 
L 1259 4134 
L 1259 2753 
L 3481 2753 
L 3481 2222 
L 1259 2222 
L 1259 531 
L 3634 531 
L 3634 0 
L 628 0 
L 628 4666 
z
" transform="scale(0.015625)"/>
      <path id="DejaVuSans-6c" d="M 603 4863 
L 1178 4863 
L 1178 0 
L 603 0 
L 603 4863 
z
" transform="scale(0.015625)"/>
      <path id="DejaVuSans-70" d="M 1159 525 
L 1159 -1331 
L 581 -1331 
L 581 3500 
L 1159 3500 
L 1159 2969 
Q 1341 3281 1617 3432 
Q 1894 3584 2278 3584 
Q 2916 3584 3314 3078 
Q 3713 2572 3713 1747 
Q 3713 922 3314 415 
Q 2916 -91 2278 -91 
Q 1894 -91 1617 61 
Q 1341 213 1159 525 
z
M 3116 1747 
Q 3116 2381 2855 2742 
Q 2594 3103 2138 3103 
Q 1681 3103 1420 2742 
Q 1159 2381 1159 1747 
Q 1159 1113 1420 752 
Q 1681 391 2138 391 
Q 2594 391 2855 752 
Q 3116 1113 3116 1747 
z
" transform="scale(0.015625)"/>
      <path id="DejaVuSans-74" d="M 1172 4494 
L 1172 3500 
L 2356 3500 
L 2356 3053 
L 1172 3053 
L 1172 1153 
Q 1172 725 1289 603 
Q 1406 481 1766 481 
L 2356 481 
L 2356 0 
L 1766 0 
Q 1100 0 847 248 
Q 594 497 594 1153 
L 594 3053 
L 172 3053 
L 172 3500 
L 594 3500 
L 594 4494 
L 1172 4494 
z
" transform="scale(0.015625)"/>
     </defs>
     <use xlink:href="#DejaVuSans-45" transform="translate(0 0.765625)"/>
     <use xlink:href="#DejaVuSans-6c" transform="translate(63.183594 0.765625)"/>
     <use xlink:href="#DejaVuSans-6c" transform="translate(90.966797 0.765625)"/>
     <use xlink:href="#DejaVuSans-69" transform="translate(118.75 0.765625)"/>
     <use xlink:href="#DejaVuSans-70" transform="translate(146.533203 0.765625)"/>
     <use xlink:href="#DejaVuSans-74" transform="translate(210.009766 0.765625)"/>
     <use xlink:href="#DejaVuSans-69" transform="translate(249.21875 0.765625)"/>
     <use xlink:href="#DejaVuSans-63" transform="translate(277.001953 0.765625)"/>
     <use xlink:href="#DejaVuSans-20" transform="translate(331.982422 0.765625)"/>
     <use xlink:href="#DejaVuSans-43" transform="translate(363.769531 0.765625)"/>
     <use xlink:href="#DejaVuSans-75" transform="translate(433.59375 0.765625)"/>
     <use xlink:href="#DejaVuSans-72" transform="translate(496.972656 0.765625)"/>
     <use xlink:href="#DejaVuSans-76" transform="translate(538.085938 0.765625)"/>
     <use xlink:href="#DejaVuSans-65" transform="translate(597.265625 0.765625)"/>
     <use xlink:href="#DejaVuSans-3a" transform="translate(658.789062 0.765625)"/>
     <use xlink:href="#DejaVuSans-20" transform="translate(692.480469 0.765625)"/>
     <use xlink:href="#DejaVuSans-Oblique-79" transform="translate(724.267578 0.765625)"/>
     <use xlink:href="#DejaVuSans-32" transform="translate(787.913411 39.046875) scale(0.7)"/>
     <use xlink:href="#DejaVuSans-3d" transform="translate(854.666341 0.765625)"/>
     <use xlink:href="#DejaVuSans-Oblique-78" transform="translate(957.937826 0.765625)"/>
     <use xlink:href="#DejaVuSans-33" transform="translate(1021.583659 39.046875) scale(0.7)"/>
     <use xlink:href="#DejaVuSans-2b" transform="translate(1088.336589 0.765625)"/>
     <use xlink:href="#DejaVuSans-2212" transform="translate(1211.090495 0.765625)"/>
     <use xlink:href="#DejaVuSans-31" transform="translate(1314.361979 0.765625)"/>
     <use xlink:href="#DejaVuSans-Oblique-78" transform="translate(1377.985026 0.765625)"/>
     <use xlink:href="#DejaVuSans-2b" transform="translate(1456.647135 0.765625)"/>
     <use xlink:href="#DejaVuSans-30" transform="translate(1559.91862 0.765625)"/>
    </g>
   </g>
   <g id="legend_2">
    <g id="patch_13">
     <path d="M 637.981818 92.24 
L 767.481818 92.24 
Q 769.481818 92.24 769.481818 90.24 
L 769.481818 58.84 
Q 769.481818 56.84 767.481818 56.84 
L 637.981818 56.84 
Q 635.981818 56.84 635.981818 58.84 
L 635.981818 90.24 
Q 635.981818 92.24 637.981818 92.24 
z
" style="fill: #ffffff; opacity: 0.8; stroke: #cccccc; stroke-linejoin: miter"/>
    </g>
    <g id="line2d_59">
     <path d="M 639.981818 66.44 
L 649.981818 66.44 
L 659.981818 66.44 
" style="fill: none; stroke: #4169e1; stroke-width: 3; stroke-linecap: square"/>
    </g>
    <g id="text_33">
     <!-- $y^2 = x^3 + ax + b$ -->
     <g transform="translate(667.981818 69.94) scale(0.1 -0.1)">
      <use xlink:href="#DejaVuSans-Oblique-79" transform="translate(0 0.765625)"/>
      <use xlink:href="#DejaVuSans-32" transform="translate(63.645833 39.046875) scale(0.7)"/>
      <use xlink:href="#DejaVuSans-3d" transform="translate(130.398763 0.765625)"/>
      <use xlink:href="#DejaVuSans-Oblique-78" transform="translate(233.670247 0.765625)"/>
      <use xlink:href="#DejaVuSans-33" transform="translate(297.316081 39.046875) scale(0.7)"/>
      <use xlink:href="#DejaVuSans-2b" transform="translate(364.06901 0.765625)"/>
      <use xlink:href="#DejaVuSans-Oblique-61" transform="translate(467.340495 0.765625)"/>
      <use xlink:href="#DejaVuSans-Oblique-78" transform="translate(528.619792 0.765625)"/>
      <use xlink:href="#DejaVuSans-2b" transform="translate(607.281901 0.765625)"/>
      <use xlink:href="#DejaVuSans-Oblique-62" transform="translate(710.553385 0.765625)"/>
     </g>
    </g>
    <g id="line2d_60">
     <path d="M 639.981818 82.64 
L 649.981818 82.64 
L 659.981818 82.64 
" style="fill: none; stroke: #ff0000; stroke-width: 3; stroke-linecap: square"/>
    </g>
    <g id="text_34">
     <!-- $y^2 = -(x^3 + ax + b)$ -->
     <g transform="translate(667.981818 86.14) scale(0.1 -0.1)">
      <use xlink:href="#DejaVuSans-Oblique-79" transform="translate(0 0.765625)"/>
      <use xlink:href="#DejaVuSans-32" transform="translate(63.645833 39.046875) scale(0.7)"/>
      <use xlink:href="#DejaVuSans-3d" transform="translate(130.398763 0.765625)"/>
      <use xlink:href="#DejaVuSans-2212" transform="translate(253.152669 0.765625)"/>
      <use xlink:href="#DejaVuSans-28" transform="translate(356.424154 0.765625)"/>
      <use xlink:href="#DejaVuSans-Oblique-78" transform="translate(395.437826 0.765625)"/>
      <use xlink:href="#DejaVuSans-33" transform="translate(459.083659 39.046875) scale(0.7)"/>
      <use xlink:href="#DejaVuSans-2b" transform="translate(525.836589 0.765625)"/>
      <use xlink:href="#DejaVuSans-Oblique-61" transform="translate(629.108073 0.765625)"/>
      <use xlink:href="#DejaVuSans-Oblique-78" transform="translate(690.38737 0.765625)"/>
      <use xlink:href="#DejaVuSans-2b" transform="translate(769.049479 0.765625)"/>
      <use xlink:href="#DejaVuSans-Oblique-62" transform="translate(872.320964 0.765625)"/>
      <use xlink:href="#DejaVuSans-29" transform="translate(935.797526 0.765625)"/>
     </g>
    </g>
   </g>
  </g>
 </g>
 <defs>
  <clipPath id="pb7d81bb232">
   <rect x="144" y="51.84" width="405.818182" height="332.64"/>
  </clipPath>
  <clipPath id="p7d6dc9e3da">
   <rect x="630.981818" y="51.84" width="405.818182" height="332.64"/>
  </clipPath>
 </defs>
</svg>
