<?xml version="1.0" encoding="utf-8" standalone="no"?>
<!DOCTYPE svg PUBLIC "-//W3C//DTD SVG 1.1//EN"
  "http://www.w3.org/Graphics/SVG/1.1/DTD/svg11.dtd">
<svg xmlns:xlink="http://www.w3.org/1999/xlink" width="1152pt" height="432pt" viewBox="0 0 1152 432" xmlns="http://www.w3.org/2000/svg" version="1.1">
 <metadata>
  <rdf:RDF xmlns:dc="http://purl.org/dc/elements/1.1/" xmlns:cc="http://creativecommons.org/ns#" xmlns:rdf="http://www.w3.org/1999/02/22-rdf-syntax-ns#">
   <cc:Work>
    <dc:type rdf:resource="http://purl.org/dc/dcmitype/StillImage"/>
    <dc:date>2023-10-14T08:05:35.844265</dc:date>
    <dc:format>image/svg+xml</dc:format>
    <dc:creator>
     <cc:Agent>
      <dc:title>Matplotlib v3.8.0, https://matplotlib.org/</dc:title>
     </cc:Agent>
    </dc:creator>
   </cc:Work>
  </rdf:RDF>
 </metadata>
 <defs>
  <style type="text/css">*{stroke-linejoin: round; stroke-linecap: butt}</style>
 </defs>
 <g id="figure_1">
  <g id="patch_1">
   <path d="M 0 432 
L 1152 432 
L 1152 0 
L 0 0 
z
" style="fill: #ffffff"/>
  </g>
  <g id="axes_1">
   <g id="patch_2">
    <path d="M 144 384.48 
L 549.818182 384.48 
L 549.818182 51.84 
L 144 51.84 
z
" style="fill: #ffffff"/>
   </g>
   <g id="matplotlib.axis_1">
    <g id="xtick_1">
     <g id="line2d_1">
      <path d="M 144 384.48 
L 144 51.84 
" clip-path="url(#p76807b1639)" style="fill: none; stroke: #b0b0b0; stroke-width: 0.8; stroke-linecap: square"/>
     </g>
     <g id="line2d_2">
      <defs>
       <path id="md7f437eaa3" d="M 0 0 
L 0 3.5 
" style="stroke: #000000; stroke-width: 0.8"/>
      </defs>
      <g>
       <use xlink:href="#md7f437eaa3" x="144" y="384.48" style="stroke: #000000; stroke-width: 0.8"/>
      </g>
     </g>
     <g id="text_1">
      <!-- −4 -->
      <g transform="translate(136.628906 399.078438) scale(0.1 -0.1)">
       <defs>
        <path id="DejaVuSans-2212" d="M 678 2272 
L 4684 2272 
L 4684 1741 
L 678 1741 
L 678 2272 
z
" transform="scale(0.015625)"/>
        <path id="DejaVuSans-34" d="M 2419 4116 
L 825 1625 
L 2419 1625 
L 2419 4116 
z
M 2253 4666 
L 3047 4666 
L 3047 1625 
L 3713 1625 
L 3713 1100 
L 3047 1100 
L 3047 0 
L 2419 0 
L 2419 1100 
L 313 1100 
L 313 1709 
L 2253 4666 
z
" transform="scale(0.015625)"/>
       </defs>
       <use xlink:href="#DejaVuSans-2212"/>
       <use xlink:href="#DejaVuSans-34" x="83.789062"/>
      </g>
     </g>
    </g>
    <g id="xtick_2">
     <g id="line2d_3">
      <path d="M 194.727273 384.48 
L 194.727273 51.84 
" clip-path="url(#p76807b1639)" style="fill: none; stroke: #b0b0b0; stroke-width: 0.8; stroke-linecap: square"/>
     </g>
     <g id="line2d_4">
      <g>
       <use xlink:href="#md7f437eaa3" x="194.727273" y="384.48" style="stroke: #000000; stroke-width: 0.8"/>
      </g>
     </g>
     <g id="text_2">
      <!-- −3 -->
      <g transform="translate(187.356179 399.078438) scale(0.1 -0.1)">
       <defs>
        <path id="DejaVuSans-33" d="M 2597 2516 
Q 3050 2419 3304 2112 
Q 3559 1806 3559 1356 
Q 3559 666 3084 287 
Q 2609 -91 1734 -91 
Q 1441 -91 1130 -33 
Q 819 25 488 141 
L 488 750 
Q 750 597 1062 519 
Q 1375 441 1716 441 
Q 2309 441 2620 675 
Q 2931 909 2931 1356 
Q 2931 1769 2642 2001 
Q 2353 2234 1838 2234 
L 1294 2234 
L 1294 2753 
L 1863 2753 
Q 2328 2753 2575 2939 
Q 2822 3125 2822 3475 
Q 2822 3834 2567 4026 
Q 2313 4219 1838 4219 
Q 1578 4219 1281 4162 
Q 984 4106 628 3988 
L 628 4550 
Q 988 4650 1302 4700 
Q 1616 4750 1894 4750 
Q 2613 4750 3031 4423 
Q 3450 4097 3450 3541 
Q 3450 3153 3228 2886 
Q 3006 2619 2597 2516 
z
" transform="scale(0.015625)"/>
       </defs>
       <use xlink:href="#DejaVuSans-2212"/>
       <use xlink:href="#DejaVuSans-33" x="83.789062"/>
      </g>
     </g>
    </g>
    <g id="xtick_3">
     <g id="line2d_5">
      <path d="M 245.454545 384.48 
L 245.454545 51.84 
" clip-path="url(#p76807b1639)" style="fill: none; stroke: #b0b0b0; stroke-width: 0.8; stroke-linecap: square"/>
     </g>
     <g id="line2d_6">
      <g>
       <use xlink:href="#md7f437eaa3" x="245.454545" y="384.48" style="stroke: #000000; stroke-width: 0.8"/>
      </g>
     </g>
     <g id="text_3">
      <!-- −2 -->
      <g transform="translate(238.083452 399.078438) scale(0.1 -0.1)">
       <defs>
        <path id="DejaVuSans-32" d="M 1228 531 
L 3431 531 
L 3431 0 
L 469 0 
L 469 531 
Q 828 903 1448 1529 
Q 2069 2156 2228 2338 
Q 2531 2678 2651 2914 
Q 2772 3150 2772 3378 
Q 2772 3750 2511 3984 
Q 2250 4219 1831 4219 
Q 1534 4219 1204 4116 
Q 875 4013 500 3803 
L 500 4441 
Q 881 4594 1212 4672 
Q 1544 4750 1819 4750 
Q 2544 4750 2975 4387 
Q 3406 4025 3406 3419 
Q 3406 3131 3298 2873 
Q 3191 2616 2906 2266 
Q 2828 2175 2409 1742 
Q 1991 1309 1228 531 
z
" transform="scale(0.015625)"/>
       </defs>
       <use xlink:href="#DejaVuSans-2212"/>
       <use xlink:href="#DejaVuSans-32" x="83.789062"/>
      </g>
     </g>
    </g>
    <g id="xtick_4">
     <g id="line2d_7">
      <path d="M 296.181818 384.48 
L 296.181818 51.84 
" clip-path="url(#p76807b1639)" style="fill: none; stroke: #b0b0b0; stroke-width: 0.8; stroke-linecap: square"/>
     </g>
     <g id="line2d_8">
      <g>
       <use xlink:href="#md7f437eaa3" x="296.181818" y="384.48" style="stroke: #000000; stroke-width: 0.8"/>
      </g>
     </g>
     <g id="text_4">
      <!-- −1 -->
      <g transform="translate(288.810724 399.078438) scale(0.1 -0.1)">
       <defs>
        <path id="DejaVuSans-31" d="M 794 531 
L 1825 531 
L 1825 4091 
L 703 3866 
L 703 4441 
L 1819 4666 
L 2450 4666 
L 2450 531 
L 3481 531 
L 3481 0 
L 794 0 
L 794 531 
z
" transform="scale(0.015625)"/>
       </defs>
       <use xlink:href="#DejaVuSans-2212"/>
       <use xlink:href="#DejaVuSans-31" x="83.789062"/>
      </g>
     </g>
    </g>
    <g id="xtick_5">
     <g id="line2d_9">
      <path d="M 346.909091 384.48 
L 346.909091 51.84 
" clip-path="url(#p76807b1639)" style="fill: none; stroke: #b0b0b0; stroke-width: 0.8; stroke-linecap: square"/>
     </g>
     <g id="line2d_10">
      <g>
       <use xlink:href="#md7f437eaa3" x="346.909091" y="384.48" style="stroke: #000000; stroke-width: 0.8"/>
      </g>
     </g>
     <g id="text_5">
      <!-- 0 -->
      <g transform="translate(343.727841 399.078438) scale(0.1 -0.1)">
       <defs>
        <path id="DejaVuSans-30" d="M 2034 4250 
Q 1547 4250 1301 3770 
Q 1056 3291 1056 2328 
Q 1056 1369 1301 889 
Q 1547 409 2034 409 
Q 2525 409 2770 889 
Q 3016 1369 3016 2328 
Q 3016 3291 2770 3770 
Q 2525 4250 2034 4250 
z
M 2034 4750 
Q 2819 4750 3233 4129 
Q 3647 3509 3647 2328 
Q 3647 1150 3233 529 
Q 2819 -91 2034 -91 
Q 1250 -91 836 529 
Q 422 1150 422 2328 
Q 422 3509 836 4129 
Q 1250 4750 2034 4750 
z
" transform="scale(0.015625)"/>
       </defs>
       <use xlink:href="#DejaVuSans-30"/>
      </g>
     </g>
    </g>
    <g id="xtick_6">
     <g id="line2d_11">
      <path d="M 397.636364 384.48 
L 397.636364 51.84 
" clip-path="url(#p76807b1639)" style="fill: none; stroke: #b0b0b0; stroke-width: 0.8; stroke-linecap: square"/>
     </g>
     <g id="line2d_12">
      <g>
       <use xlink:href="#md7f437eaa3" x="397.636364" y="384.48" style="stroke: #000000; stroke-width: 0.8"/>
      </g>
     </g>
     <g id="text_6">
      <!-- 1 -->
      <g transform="translate(394.455114 399.078438) scale(0.1 -0.1)">
       <use xlink:href="#DejaVuSans-31"/>
      </g>
     </g>
    </g>
    <g id="xtick_7">
     <g id="line2d_13">
      <path d="M 448.363636 384.48 
L 448.363636 51.84 
" clip-path="url(#p76807b1639)" style="fill: none; stroke: #b0b0b0; stroke-width: 0.8; stroke-linecap: square"/>
     </g>
     <g id="line2d_14">
      <g>
       <use xlink:href="#md7f437eaa3" x="448.363636" y="384.48" style="stroke: #000000; stroke-width: 0.8"/>
      </g>
     </g>
     <g id="text_7">
      <!-- 2 -->
      <g transform="translate(445.182386 399.078438) scale(0.1 -0.1)">
       <use xlink:href="#DejaVuSans-32"/>
      </g>
     </g>
    </g>
    <g id="xtick_8">
     <g id="line2d_15">
      <path d="M 499.090909 384.48 
L 499.090909 51.84 
" clip-path="url(#p76807b1639)" style="fill: none; stroke: #b0b0b0; stroke-width: 0.8; stroke-linecap: square"/>
     </g>
     <g id="line2d_16">
      <g>
       <use xlink:href="#md7f437eaa3" x="499.090909" y="384.48" style="stroke: #000000; stroke-width: 0.8"/>
      </g>
     </g>
     <g id="text_8">
      <!-- 3 -->
      <g transform="translate(495.909659 399.078438) scale(0.1 -0.1)">
       <use xlink:href="#DejaVuSans-33"/>
      </g>
     </g>
    </g>
    <g id="xtick_9">
     <g id="line2d_17">
      <path d="M 549.818182 384.48 
L 549.818182 51.84 
" clip-path="url(#p76807b1639)" style="fill: none; stroke: #b0b0b0; stroke-width: 0.8; stroke-linecap: square"/>
     </g>
     <g id="line2d_18">
      <g>
       <use xlink:href="#md7f437eaa3" x="549.818182" y="384.48" style="stroke: #000000; stroke-width: 0.8"/>
      </g>
     </g>
     <g id="text_9">
      <!-- 4 -->
      <g transform="translate(546.636932 399.078438) scale(0.1 -0.1)">
       <use xlink:href="#DejaVuSans-34"/>
      </g>
     </g>
    </g>
    <g id="text_10">
     <!-- x -->
     <g transform="translate(343.949716 412.756563) scale(0.1 -0.1)">
      <defs>
       <path id="DejaVuSans-78" d="M 3513 3500 
L 2247 1797 
L 3578 0 
L 2900 0 
L 1881 1375 
L 863 0 
L 184 0 
L 1544 1831 
L 300 3500 
L 978 3500 
L 1906 2253 
L 2834 3500 
L 3513 3500 
z
" transform="scale(0.015625)"/>
      </defs>
      <use xlink:href="#DejaVuSans-78"/>
     </g>
    </g>
   </g>
   <g id="matplotlib.axis_2">
    <g id="ytick_1">
     <g id="line2d_19">
      <path d="M 144 351.216 
L 549.818182 351.216 
" clip-path="url(#p76807b1639)" style="fill: none; stroke: #b0b0b0; stroke-width: 0.8; stroke-linecap: square"/>
     </g>
     <g id="line2d_20">
      <defs>
       <path id="mc0f7c6c4b7" d="M 0 0 
L -3.5 0 
" style="stroke: #000000; stroke-width: 0.8"/>
      </defs>
      <g>
       <use xlink:href="#mc0f7c6c4b7" x="144" y="351.216" style="stroke: #000000; stroke-width: 0.8"/>
      </g>
     </g>
     <g id="text_11">
      <!-- −4 -->
      <g transform="translate(122.257812 355.015219) scale(0.1 -0.1)">
       <use xlink:href="#DejaVuSans-2212"/>
       <use xlink:href="#DejaVuSans-34" x="83.789062"/>
      </g>
     </g>
    </g>
    <g id="ytick_2">
     <g id="line2d_21">
      <path d="M 144 284.688 
L 549.818182 284.688 
" clip-path="url(#p76807b1639)" style="fill: none; stroke: #b0b0b0; stroke-width: 0.8; stroke-linecap: square"/>
     </g>
     <g id="line2d_22">
      <g>
       <use xlink:href="#mc0f7c6c4b7" x="144" y="284.688" style="stroke: #000000; stroke-width: 0.8"/>
      </g>
     </g>
     <g id="text_12">
      <!-- −2 -->
      <g transform="translate(122.257812 288.487219) scale(0.1 -0.1)">
       <use xlink:href="#DejaVuSans-2212"/>
       <use xlink:href="#DejaVuSans-32" x="83.789062"/>
      </g>
     </g>
    </g>
    <g id="ytick_3">
     <g id="line2d_23">
      <path d="M 144 218.16 
L 549.818182 218.16 
" clip-path="url(#p76807b1639)" style="fill: none; stroke: #b0b0b0; stroke-width: 0.8; stroke-linecap: square"/>
     </g>
     <g id="line2d_24">
      <g>
       <use xlink:href="#mc0f7c6c4b7" x="144" y="218.16" style="stroke: #000000; stroke-width: 0.8"/>
      </g>
     </g>
     <g id="text_13">
      <!-- 0 -->
      <g transform="translate(130.6375 221.959219) scale(0.1 -0.1)">
       <use xlink:href="#DejaVuSans-30"/>
      </g>
     </g>
    </g>
    <g id="ytick_4">
     <g id="line2d_25">
      <path d="M 144 151.632 
L 549.818182 151.632 
" clip-path="url(#p76807b1639)" style="fill: none; stroke: #b0b0b0; stroke-width: 0.8; stroke-linecap: square"/>
     </g>
     <g id="line2d_26">
      <g>
       <use xlink:href="#mc0f7c6c4b7" x="144" y="151.632" style="stroke: #000000; stroke-width: 0.8"/>
      </g>
     </g>
     <g id="text_14">
      <!-- 2 -->
      <g transform="translate(130.6375 155.431219) scale(0.1 -0.1)">
       <use xlink:href="#DejaVuSans-32"/>
      </g>
     </g>
    </g>
    <g id="ytick_5">
     <g id="line2d_27">
      <path d="M 144 85.104 
L 549.818182 85.104 
" clip-path="url(#p76807b1639)" style="fill: none; stroke: #b0b0b0; stroke-width: 0.8; stroke-linecap: square"/>
     </g>
     <g id="line2d_28">
      <g>
       <use xlink:href="#mc0f7c6c4b7" x="144" y="85.104" style="stroke: #000000; stroke-width: 0.8"/>
      </g>
     </g>
     <g id="text_15">
      <!-- 4 -->
      <g transform="translate(130.6375 88.903219) scale(0.1 -0.1)">
       <use xlink:href="#DejaVuSans-34"/>
      </g>
     </g>
    </g>
    <g id="text_16">
     <!-- y -->
     <g transform="translate(116.178125 221.119375) rotate(-90) scale(0.1 -0.1)">
      <defs>
       <path id="DejaVuSans-79" d="M 2059 -325 
Q 1816 -950 1584 -1140 
Q 1353 -1331 966 -1331 
L 506 -1331 
L 506 -850 
L 844 -850 
Q 1081 -850 1212 -737 
Q 1344 -625 1503 -206 
L 1606 56 
L 191 3500 
L 800 3500 
L 1894 763 
L 2988 3500 
L 3597 3500 
L 2059 -325 
z
" transform="scale(0.015625)"/>
      </defs>
      <use xlink:href="#DejaVuSans-79"/>
     </g>
    </g>
   </g>
   <g id="line2d_29">
    <path d="M 239.162476 433 
L 242.435518 406.970675 
L 245.784355 382.109457 
L 249.031712 359.658131 
L 252.17759 339.413859 
L 255.323467 320.603025 
L 258.367865 303.718981 
L 261.412262 288.089664 
L 264.35518 274.133459 
L 267.196617 261.696222 
L 270.038055 250.243004 
L 272.778013 240.097938 
L 275.51797 230.803792 
L 278.156448 222.628747 
L 280.693446 215.458596 
L 283.230444 208.940077 
L 285.665962 203.272178 
L 288.10148 198.159724 
L 290.435518 193.761061 
L 292.769556 189.832793 
L 295.002114 186.497552 
L 297.234672 183.55789 
L 299.365751 181.105233 
L 301.496829 178.982709 
L 303.627907 177.175522 
L 305.657505 175.734021 
L 307.687104 174.552333 
L 309.716702 173.617677 
L 311.7463 172.917268 
L 313.877378 172.41996 
L 316.008457 172.15202 
L 318.241015 172.101208 
L 320.575053 172.281409 
L 323.010571 172.703005 
L 325.547569 173.372325 
L 328.287526 174.330561 
L 331.230444 175.596999 
L 334.579281 177.288487 
L 338.435518 179.494565 
L 343.408034 182.611146 
L 356.701903 191.078241 
L 360.55814 193.19828 
L 363.906977 194.790716 
L 366.849894 195.951432 
L 369.589852 196.795535 
L 372.12685 197.345674 
L 374.460888 197.633206 
L 376.693446 197.693759 
L 378.824524 197.540058 
L 380.955603 197.164741 
L 382.985201 196.587719 
L 385.014799 195.783481 
L 387.044397 194.739242 
L 389.073996 193.44222 
L 391.103594 191.879633 
L 393.133192 190.038696 
L 395.264271 187.792152 
L 397.395349 185.209838 
L 399.526427 182.276955 
L 401.758985 178.81228 
L 403.991543 174.9296 
L 406.325581 170.405028 
L 408.659619 165.385549 
L 411.095137 159.599151 
L 413.530655 153.230618 
L 416.067653 145.95389 
L 418.604651 137.996568 
L 421.243129 128.972143 
L 423.881607 119.156501 
L 426.621564 108.095778 
L 429.463002 95.658541 
L 432.30444 82.202207 
L 435.247357 67.153532 
L 438.190275 50.935072 
L 441.234672 32.884886 
L 444.27907 13.498002 
L 446.425861 -1 
L 446.425861 -1 
" clip-path="url(#p76807b1639)" style="fill: none; stroke: #4169e1; stroke-width: 3; stroke-linecap: square"/>
   </g>
   <g id="line2d_30">
    <path d="M 238.639643 -1 
L 241.928118 25.427615 
L 245.276956 50.556568 
L 248.524313 73.259207 
L 251.67019 93.739137 
L 254.816068 112.777951 
L 257.860465 129.875311 
L 260.904863 145.710753 
L 263.84778 159.859377 
L 266.689218 172.476023 
L 269.530655 184.102386 
L 272.270613 194.408482 
L 275.010571 203.857833 
L 277.649049 212.17683 
L 280.287526 219.758618 
L 282.824524 226.379721 
L 285.260042 232.142342 
L 287.69556 237.345836 
L 290.029598 241.828291 
L 292.363636 245.83697 
L 294.596195 249.245962 
L 296.828753 252.256283 
L 298.959831 254.7735 
L 301.090909 256.957765 
L 303.221987 258.823875 
L 305.353066 260.38663 
L 307.382664 261.606474 
L 309.412262 262.577371 
L 311.44186 263.312102 
L 313.572939 263.843384 
L 315.704017 264.143185 
L 317.936575 264.225107 
L 320.169133 264.086233 
L 322.503171 263.723435 
L 325.040169 263.099155 
L 327.780127 262.183954 
L 330.723044 260.957251 
L 333.970402 259.356464 
L 337.725159 257.248895 
L 342.494715 254.296771 
L 357.818182 244.60129 
L 361.471459 242.661793 
L 364.718816 241.184949 
L 367.560254 240.12648 
L 370.198732 239.371134 
L 372.735729 238.87828 
L 375.069767 238.64874 
L 377.302326 238.648405 
L 379.433404 238.863915 
L 381.564482 239.305269 
L 383.59408 239.949113 
L 385.623679 240.824009 
L 387.653277 241.942741 
L 389.682875 243.31809 
L 391.712474 244.96284 
L 393.742072 246.889774 
L 395.87315 249.230742 
L 398.004228 251.911709 
L 400.135307 254.947473 
L 402.367865 258.524462 
L 404.600423 262.524097 
L 406.934461 267.1759 
L 409.268499 272.327683 
L 411.704017 278.257544 
L 414.139535 284.775062 
L 416.676533 292.212856 
L 419.213531 300.337235 
L 421.852008 309.541756 
L 424.591966 319.944987 
L 427.331924 331.239909 
L 430.173362 343.928632 
L 433.014799 357.64522 
L 435.957717 372.972689 
L 438.900634 389.479351 
L 441.945032 407.837574 
L 445.090909 428.223092 
L 445.796838 433 
L 445.796838 433 
" clip-path="url(#p76807b1639)" style="fill: none; stroke: #ff0000; stroke-width: 3; stroke-linecap: square"/>
   </g>
   <g id="line2d_31">
    <path d="M 144 218.16 
L 549.818182 218.16 
" clip-path="url(#p76807b1639)" style="fill: none; stroke: #1f77b4; stroke-width: 1.5; stroke-linecap: square"/>
   </g>
   <g id="line2d_32">
    <path d="M 346.909091 384.48 
L 346.909091 51.84 
" clip-path="url(#p76807b1639)" style="fill: none; stroke: #1f77b4; stroke-width: 1.5; stroke-linecap: square"/>
   </g>
   <g id="patch_3">
    <path d="M 144 384.48 
L 144 51.84 
" style="fill: none; stroke: #000000; stroke-width: 0.8; stroke-linejoin: miter; stroke-linecap: square"/>
   </g>
   <g id="patch_4">
    <path d="M 549.818182 384.48 
L 549.818182 51.84 
" style="fill: none; stroke: #000000; stroke-width: 0.8; stroke-linejoin: miter; stroke-linecap: square"/>
   </g>
   <g id="patch_5">
    <path d="M 144 384.48 
L 549.818182 384.48 
" style="fill: none; stroke: #000000; stroke-width: 0.8; stroke-linejoin: miter; stroke-linecap: square"/>
   </g>
   <g id="patch_6">
    <path d="M 144 51.84 
L 549.818182 51.84 
" style="fill: none; stroke: #000000; stroke-width: 0.8; stroke-linejoin: miter; stroke-linecap: square"/>
   </g>
   <g id="text_17">
    <!-- Cubic Curve: $y = x^3 + -1x + 1$ -->
    <g transform="translate(255.709091 45.84) scale(0.12 -0.12)">
     <defs>
      <path id="DejaVuSans-43" d="M 4122 4306 
L 4122 3641 
Q 3803 3938 3442 4084 
Q 3081 4231 2675 4231 
Q 1875 4231 1450 3742 
Q 1025 3253 1025 2328 
Q 1025 1406 1450 917 
Q 1875 428 2675 428 
Q 3081 428 3442 575 
Q 3803 722 4122 1019 
L 4122 359 
Q 3791 134 3420 21 
Q 3050 -91 2638 -91 
Q 1578 -91 968 557 
Q 359 1206 359 2328 
Q 359 3453 968 4101 
Q 1578 4750 2638 4750 
Q 3056 4750 3426 4639 
Q 3797 4528 4122 4306 
z
" transform="scale(0.015625)"/>
      <path id="DejaVuSans-75" d="M 544 1381 
L 544 3500 
L 1119 3500 
L 1119 1403 
Q 1119 906 1312 657 
Q 1506 409 1894 409 
Q 2359 409 2629 706 
Q 2900 1003 2900 1516 
L 2900 3500 
L 3475 3500 
L 3475 0 
L 2900 0 
L 2900 538 
Q 2691 219 2414 64 
Q 2138 -91 1772 -91 
Q 1169 -91 856 284 
Q 544 659 544 1381 
z
M 1991 3584 
L 1991 3584 
z
" transform="scale(0.015625)"/>
      <path id="DejaVuSans-62" d="M 3116 1747 
Q 3116 2381 2855 2742 
Q 2594 3103 2138 3103 
Q 1681 3103 1420 2742 
Q 1159 2381 1159 1747 
Q 1159 1113 1420 752 
Q 1681 391 2138 391 
Q 2594 391 2855 752 
Q 3116 1113 3116 1747 
z
M 1159 2969 
Q 1341 3281 1617 3432 
Q 1894 3584 2278 3584 
Q 2916 3584 3314 3078 
Q 3713 2572 3713 1747 
Q 3713 922 3314 415 
Q 2916 -91 2278 -91 
Q 1894 -91 1617 61 
Q 1341 213 1159 525 
L 1159 0 
L 581 0 
L 581 4863 
L 1159 4863 
L 1159 2969 
z
" transform="scale(0.015625)"/>
      <path id="DejaVuSans-69" d="M 603 3500 
L 1178 3500 
L 1178 0 
L 603 0 
L 603 3500 
z
M 603 4863 
L 1178 4863 
L 1178 4134 
L 603 4134 
L 603 4863 
z
" transform="scale(0.015625)"/>
      <path id="DejaVuSans-63" d="M 3122 3366 
L 3122 2828 
Q 2878 2963 2633 3030 
Q 2388 3097 2138 3097 
Q 1578 3097 1268 2742 
Q 959 2388 959 1747 
Q 959 1106 1268 751 
Q 1578 397 2138 397 
Q 2388 397 2633 464 
Q 2878 531 3122 666 
L 3122 134 
Q 2881 22 2623 -34 
Q 2366 -91 2075 -91 
Q 1284 -91 818 406 
Q 353 903 353 1747 
Q 353 2603 823 3093 
Q 1294 3584 2113 3584 
Q 2378 3584 2631 3529 
Q 2884 3475 3122 3366 
z
" transform="scale(0.015625)"/>
      <path id="DejaVuSans-20" transform="scale(0.015625)"/>
      <path id="DejaVuSans-72" d="M 2631 2963 
Q 2534 3019 2420 3045 
Q 2306 3072 2169 3072 
Q 1681 3072 1420 2755 
Q 1159 2438 1159 1844 
L 1159 0 
L 581 0 
L 581 3500 
L 1159 3500 
L 1159 2956 
Q 1341 3275 1631 3429 
Q 1922 3584 2338 3584 
Q 2397 3584 2469 3576 
Q 2541 3569 2628 3553 
L 2631 2963 
z
" transform="scale(0.015625)"/>
      <path id="DejaVuSans-76" d="M 191 3500 
L 800 3500 
L 1894 563 
L 2988 3500 
L 3597 3500 
L 2284 0 
L 1503 0 
L 191 3500 
z
" transform="scale(0.015625)"/>
      <path id="DejaVuSans-65" d="M 3597 1894 
L 3597 1613 
L 953 1613 
Q 991 1019 1311 708 
Q 1631 397 2203 397 
Q 2534 397 2845 478 
Q 3156 559 3463 722 
L 3463 178 
Q 3153 47 2828 -22 
Q 2503 -91 2169 -91 
Q 1331 -91 842 396 
Q 353 884 353 1716 
Q 353 2575 817 3079 
Q 1281 3584 2069 3584 
Q 2775 3584 3186 3129 
Q 3597 2675 3597 1894 
z
M 3022 2063 
Q 3016 2534 2758 2815 
Q 2500 3097 2075 3097 
Q 1594 3097 1305 2825 
Q 1016 2553 972 2059 
L 3022 2063 
z
" transform="scale(0.015625)"/>
      <path id="DejaVuSans-3a" d="M 750 794 
L 1409 794 
L 1409 0 
L 750 0 
L 750 794 
z
M 750 3309 
L 1409 3309 
L 1409 2516 
L 750 2516 
L 750 3309 
z
" transform="scale(0.015625)"/>
      <path id="DejaVuSans-Oblique-79" d="M 1588 -325 
Q 1188 -997 936 -1164 
Q 684 -1331 294 -1331 
L -159 -1331 
L -63 -850 
L 269 -850 
Q 509 -850 678 -719 
Q 847 -588 1056 -206 
L 1234 128 
L 459 3500 
L 1069 3500 
L 1650 819 
L 3256 3500 
L 3859 3500 
L 1588 -325 
z
" transform="scale(0.015625)"/>
      <path id="DejaVuSans-3d" d="M 678 2906 
L 4684 2906 
L 4684 2381 
L 678 2381 
L 678 2906 
z
M 678 1631 
L 4684 1631 
L 4684 1100 
L 678 1100 
L 678 1631 
z
" transform="scale(0.015625)"/>
      <path id="DejaVuSans-Oblique-78" d="M 3841 3500 
L 2234 1784 
L 3219 0 
L 2559 0 
L 1819 1388 
L 531 0 
L -166 0 
L 1556 1844 
L 641 3500 
L 1300 3500 
L 1972 2234 
L 3144 3500 
L 3841 3500 
z
" transform="scale(0.015625)"/>
      <path id="DejaVuSans-2b" d="M 2944 4013 
L 2944 2272 
L 4684 2272 
L 4684 1741 
L 2944 1741 
L 2944 0 
L 2419 0 
L 2419 1741 
L 678 1741 
L 678 2272 
L 2419 2272 
L 2419 4013 
L 2944 4013 
z
" transform="scale(0.015625)"/>
     </defs>
     <use xlink:href="#DejaVuSans-43" transform="translate(0 0.765625)"/>
     <use xlink:href="#DejaVuSans-75" transform="translate(69.824219 0.765625)"/>
     <use xlink:href="#DejaVuSans-62" transform="translate(133.203125 0.765625)"/>
     <use xlink:href="#DejaVuSans-69" transform="translate(196.679688 0.765625)"/>
     <use xlink:href="#DejaVuSans-63" transform="translate(224.462891 0.765625)"/>
     <use xlink:href="#DejaVuSans-20" transform="translate(279.443359 0.765625)"/>
     <use xlink:href="#DejaVuSans-43" transform="translate(311.230469 0.765625)"/>
     <use xlink:href="#DejaVuSans-75" transform="translate(381.054688 0.765625)"/>
     <use xlink:href="#DejaVuSans-72" transform="translate(444.433594 0.765625)"/>
     <use xlink:href="#DejaVuSans-76" transform="translate(485.546875 0.765625)"/>
     <use xlink:href="#DejaVuSans-65" transform="translate(544.726562 0.765625)"/>
     <use xlink:href="#DejaVuSans-3a" transform="translate(606.25 0.765625)"/>
     <use xlink:href="#DejaVuSans-20" transform="translate(639.941406 0.765625)"/>
     <use xlink:href="#DejaVuSans-Oblique-79" transform="translate(671.728516 0.765625)"/>
     <use xlink:href="#DejaVuSans-3d" transform="translate(750.390625 0.765625)"/>
     <use xlink:href="#DejaVuSans-Oblique-78" transform="translate(853.662109 0.765625)"/>
     <use xlink:href="#DejaVuSans-33" transform="translate(917.307943 39.046875) scale(0.7)"/>
     <use xlink:href="#DejaVuSans-2b" transform="translate(984.060872 0.765625)"/>
     <use xlink:href="#DejaVuSans-2212" transform="translate(1106.814779 0.765625)"/>
     <use xlink:href="#DejaVuSans-31" transform="translate(1210.086263 0.765625)"/>
     <use xlink:href="#DejaVuSans-Oblique-78" transform="translate(1273.70931 0.765625)"/>
     <use xlink:href="#DejaVuSans-2b" transform="translate(1352.371419 0.765625)"/>
     <use xlink:href="#DejaVuSans-31" transform="translate(1455.642904 0.765625)"/>
    </g>
   </g>
   <g id="legend_1">
    <g id="patch_7">
     <path d="M 405.918182 235.86 
L 542.818182 235.86 
Q 544.818182 235.86 544.818182 233.86 
L 544.818182 202.46 
Q 544.818182 200.46 542.818182 200.46 
L 405.918182 200.46 
Q 403.918182 200.46 403.918182 202.46 
L 403.918182 233.86 
Q 403.918182 235.86 405.918182 235.86 
z
" style="fill: #ffffff; opacity: 0.8; stroke: #cccccc; stroke-linejoin: miter"/>
    </g>
    <g id="line2d_33">
     <path d="M 407.918182 210.06 
L 417.918182 210.06 
L 427.918182 210.06 
" style="fill: none; stroke: #4169e1; stroke-width: 3; stroke-linecap: square"/>
    </g>
    <g id="text_18">
     <!-- $y = x^3 + -1x + 1$ -->
     <g transform="translate(435.918182 213.56) scale(0.1 -0.1)">
      <use xlink:href="#DejaVuSans-Oblique-79" transform="translate(0 0.765625)"/>
      <use xlink:href="#DejaVuSans-3d" transform="translate(78.662109 0.765625)"/>
      <use xlink:href="#DejaVuSans-Oblique-78" transform="translate(181.933594 0.765625)"/>
      <use xlink:href="#DejaVuSans-33" transform="translate(245.579427 39.046875) scale(0.7)"/>
      <use xlink:href="#DejaVuSans-2b" transform="translate(312.332357 0.765625)"/>
      <use xlink:href="#DejaVuSans-2212" transform="translate(435.086263 0.765625)"/>
      <use xlink:href="#DejaVuSans-31" transform="translate(538.357747 0.765625)"/>
      <use xlink:href="#DejaVuSans-Oblique-78" transform="translate(601.980794 0.765625)"/>
      <use xlink:href="#DejaVuSans-2b" transform="translate(680.642904 0.765625)"/>
      <use xlink:href="#DejaVuSans-31" transform="translate(783.914388 0.765625)"/>
     </g>
    </g>
    <g id="line2d_34">
     <path d="M 407.918182 226.26 
L 417.918182 226.26 
L 427.918182 226.26 
" style="fill: none; stroke: #ff0000; stroke-width: 3; stroke-linecap: square"/>
    </g>
    <g id="text_19">
     <!-- $y = -(x^3 + -1x + 1)$ -->
     <g transform="translate(435.918182 229.76) scale(0.1 -0.1)">
      <defs>
       <path id="DejaVuSans-28" d="M 1984 4856 
Q 1566 4138 1362 3434 
Q 1159 2731 1159 2009 
Q 1159 1288 1364 580 
Q 1569 -128 1984 -844 
L 1484 -844 
Q 1016 -109 783 600 
Q 550 1309 550 2009 
Q 550 2706 781 3412 
Q 1013 4119 1484 4856 
L 1984 4856 
z
" transform="scale(0.015625)"/>
       <path id="DejaVuSans-29" d="M 513 4856 
L 1013 4856 
Q 1481 4119 1714 3412 
Q 1947 2706 1947 2009 
Q 1947 1309 1714 600 
Q 1481 -109 1013 -844 
L 513 -844 
Q 928 -128 1133 580 
Q 1338 1288 1338 2009 
Q 1338 2731 1133 3434 
Q 928 4138 513 4856 
z
" transform="scale(0.015625)"/>
      </defs>
      <use xlink:href="#DejaVuSans-Oblique-79" transform="translate(0 0.765625)"/>
      <use xlink:href="#DejaVuSans-3d" transform="translate(78.662109 0.765625)"/>
      <use xlink:href="#DejaVuSans-2212" transform="translate(201.416016 0.765625)"/>
      <use xlink:href="#DejaVuSans-28" transform="translate(304.6875 0.765625)"/>
      <use xlink:href="#DejaVuSans-Oblique-78" transform="translate(343.701172 0.765625)"/>
      <use xlink:href="#DejaVuSans-33" transform="translate(407.347005 39.046875) scale(0.7)"/>
      <use xlink:href="#DejaVuSans-2b" transform="translate(474.099935 0.765625)"/>
      <use xlink:href="#DejaVuSans-2212" transform="translate(596.853841 0.765625)"/>
      <use xlink:href="#DejaVuSans-31" transform="translate(700.125326 0.765625)"/>
      <use xlink:href="#DejaVuSans-Oblique-78" transform="translate(763.748372 0.765625)"/>
      <use xlink:href="#DejaVuSans-2b" transform="translate(842.410482 0.765625)"/>
      <use xlink:href="#DejaVuSans-31" transform="translate(945.681966 0.765625)"/>
      <use xlink:href="#DejaVuSans-29" transform="translate(1009.305013 0.765625)"/>
     </g>
    </g>
   </g>
  </g>
  <g id="axes_2">
   <g id="patch_8">
    <path d="M 630.981818 384.48 
L 1036.8 384.48 
L 1036.8 51.84 
L 630.981818 51.84 
z
" style="fill: #ffffff"/>
   </g>
   <g id="matplotlib.axis_3">
    <g id="xtick_10">
     <g id="line2d_35">
      <path d="M 630.981818 384.48 
L 630.981818 51.84 
" clip-path="url(#pad1d6dd193)" style="fill: none; stroke: #b0b0b0; stroke-width: 0.8; stroke-linecap: square"/>
     </g>
     <g id="line2d_36">
      <g>
       <use xlink:href="#md7f437eaa3" x="630.981818" y="384.48" style="stroke: #000000; stroke-width: 0.8"/>
      </g>
     </g>
     <g id="text_20">
      <!-- −4 -->
      <g transform="translate(623.610724 399.078438) scale(0.1 -0.1)">
       <use xlink:href="#DejaVuSans-2212"/>
       <use xlink:href="#DejaVuSans-34" x="83.789062"/>
      </g>
     </g>
    </g>
    <g id="xtick_11">
     <g id="line2d_37">
      <path d="M 681.709091 384.48 
L 681.709091 51.84 
" clip-path="url(#pad1d6dd193)" style="fill: none; stroke: #b0b0b0; stroke-width: 0.8; stroke-linecap: square"/>
     </g>
     <g id="line2d_38">
      <g>
       <use xlink:href="#md7f437eaa3" x="681.709091" y="384.48" style="stroke: #000000; stroke-width: 0.8"/>
      </g>
     </g>
     <g id="text_21">
      <!-- −3 -->
      <g transform="translate(674.337997 399.078438) scale(0.1 -0.1)">
       <use xlink:href="#DejaVuSans-2212"/>
       <use xlink:href="#DejaVuSans-33" x="83.789062"/>
      </g>
     </g>
    </g>
    <g id="xtick_12">
     <g id="line2d_39">
      <path d="M 732.436364 384.48 
L 732.436364 51.84 
" clip-path="url(#pad1d6dd193)" style="fill: none; stroke: #b0b0b0; stroke-width: 0.8; stroke-linecap: square"/>
     </g>
     <g id="line2d_40">
      <g>
       <use xlink:href="#md7f437eaa3" x="732.436364" y="384.48" style="stroke: #000000; stroke-width: 0.8"/>
      </g>
     </g>
     <g id="text_22">
      <!-- −2 -->
      <g transform="translate(725.06527 399.078438) scale(0.1 -0.1)">
       <use xlink:href="#DejaVuSans-2212"/>
       <use xlink:href="#DejaVuSans-32" x="83.789062"/>
      </g>
     </g>
    </g>
    <g id="xtick_13">
     <g id="line2d_41">
      <path d="M 783.163636 384.48 
L 783.163636 51.84 
" clip-path="url(#pad1d6dd193)" style="fill: none; stroke: #b0b0b0; stroke-width: 0.8; stroke-linecap: square"/>
     </g>
     <g id="line2d_42">
      <g>
       <use xlink:href="#md7f437eaa3" x="783.163636" y="384.48" style="stroke: #000000; stroke-width: 0.8"/>
      </g>
     </g>
     <g id="text_23">
      <!-- −1 -->
      <g transform="translate(775.792543 399.078438) scale(0.1 -0.1)">
       <use xlink:href="#DejaVuSans-2212"/>
       <use xlink:href="#DejaVuSans-31" x="83.789062"/>
      </g>
     </g>
    </g>
    <g id="xtick_14">
     <g id="line2d_43">
      <path d="M 833.890909 384.48 
L 833.890909 51.84 
" clip-path="url(#pad1d6dd193)" style="fill: none; stroke: #b0b0b0; stroke-width: 0.8; stroke-linecap: square"/>
     </g>
     <g id="line2d_44">
      <g>
       <use xlink:href="#md7f437eaa3" x="833.890909" y="384.48" style="stroke: #000000; stroke-width: 0.8"/>
      </g>
     </g>
     <g id="text_24">
      <!-- 0 -->
      <g transform="translate(830.709659 399.078438) scale(0.1 -0.1)">
       <use xlink:href="#DejaVuSans-30"/>
      </g>
     </g>
    </g>
    <g id="xtick_15">
     <g id="line2d_45">
      <path d="M 884.618182 384.48 
L 884.618182 51.84 
" clip-path="url(#pad1d6dd193)" style="fill: none; stroke: #b0b0b0; stroke-width: 0.8; stroke-linecap: square"/>
     </g>
     <g id="line2d_46">
      <g>
       <use xlink:href="#md7f437eaa3" x="884.618182" y="384.48" style="stroke: #000000; stroke-width: 0.8"/>
      </g>
     </g>
     <g id="text_25">
      <!-- 1 -->
      <g transform="translate(881.436932 399.078438) scale(0.1 -0.1)">
       <use xlink:href="#DejaVuSans-31"/>
      </g>
     </g>
    </g>
    <g id="xtick_16">
     <g id="line2d_47">
      <path d="M 935.345455 384.48 
L 935.345455 51.84 
" clip-path="url(#pad1d6dd193)" style="fill: none; stroke: #b0b0b0; stroke-width: 0.8; stroke-linecap: square"/>
     </g>
     <g id="line2d_48">
      <g>
       <use xlink:href="#md7f437eaa3" x="935.345455" y="384.48" style="stroke: #000000; stroke-width: 0.8"/>
      </g>
     </g>
     <g id="text_26">
      <!-- 2 -->
      <g transform="translate(932.164205 399.078438) scale(0.1 -0.1)">
       <use xlink:href="#DejaVuSans-32"/>
      </g>
     </g>
    </g>
    <g id="xtick_17">
     <g id="line2d_49">
      <path d="M 986.072727 384.48 
L 986.072727 51.84 
" clip-path="url(#pad1d6dd193)" style="fill: none; stroke: #b0b0b0; stroke-width: 0.8; stroke-linecap: square"/>
     </g>
     <g id="line2d_50">
      <g>
       <use xlink:href="#md7f437eaa3" x="986.072727" y="384.48" style="stroke: #000000; stroke-width: 0.8"/>
      </g>
     </g>
     <g id="text_27">
      <!-- 3 -->
      <g transform="translate(982.891477 399.078438) scale(0.1 -0.1)">
       <use xlink:href="#DejaVuSans-33"/>
      </g>
     </g>
    </g>
    <g id="xtick_18">
     <g id="line2d_51">
      <path d="M 1036.8 384.48 
L 1036.8 51.84 
" clip-path="url(#pad1d6dd193)" style="fill: none; stroke: #b0b0b0; stroke-width: 0.8; stroke-linecap: square"/>
     </g>
     <g id="line2d_52">
      <g>
       <use xlink:href="#md7f437eaa3" x="1036.8" y="384.48" style="stroke: #000000; stroke-width: 0.8"/>
      </g>
     </g>
     <g id="text_28">
      <!-- 4 -->
      <g transform="translate(1033.61875 399.078438) scale(0.1 -0.1)">
       <use xlink:href="#DejaVuSans-34"/>
      </g>
     </g>
    </g>
    <g id="text_29">
     <!-- x -->
     <g transform="translate(830.931534 412.756563) scale(0.1 -0.1)">
      <use xlink:href="#DejaVuSans-78"/>
     </g>
    </g>
   </g>
   <g id="matplotlib.axis_4">
    <g id="ytick_6">
     <g id="line2d_53">
      <path d="M 630.981818 351.216 
L 1036.8 351.216 
" clip-path="url(#pad1d6dd193)" style="fill: none; stroke: #b0b0b0; stroke-width: 0.8; stroke-linecap: square"/>
     </g>
     <g id="line2d_54">
      <g>
       <use xlink:href="#mc0f7c6c4b7" x="630.981818" y="351.216" style="stroke: #000000; stroke-width: 0.8"/>
      </g>
     </g>
     <g id="text_30">
      <!-- −4 -->
      <g transform="translate(609.239631 355.015219) scale(0.1 -0.1)">
       <use xlink:href="#DejaVuSans-2212"/>
       <use xlink:href="#DejaVuSans-34" x="83.789062"/>
      </g>
     </g>
    </g>
    <g id="ytick_7">
     <g id="line2d_55">
      <path d="M 630.981818 284.688 
L 1036.8 284.688 
" clip-path="url(#pad1d6dd193)" style="fill: none; stroke: #b0b0b0; stroke-width: 0.8; stroke-linecap: square"/>
     </g>
     <g id="line2d_56">
      <g>
       <use xlink:href="#mc0f7c6c4b7" x="630.981818" y="284.688" style="stroke: #000000; stroke-width: 0.8"/>
      </g>
     </g>
     <g id="text_31">
      <!-- −2 -->
      <g transform="translate(609.239631 288.487219) scale(0.1 -0.1)">
       <use xlink:href="#DejaVuSans-2212"/>
       <use xlink:href="#DejaVuSans-32" x="83.789062"/>
      </g>
     </g>
    </g>
    <g id="ytick_8">
     <g id="line2d_57">
      <path d="M 630.981818 218.16 
L 1036.8 218.16 
" clip-path="url(#pad1d6dd193)" style="fill: none; stroke: #b0b0b0; stroke-width: 0.8; stroke-linecap: square"/>
     </g>
     <g id="line2d_58">
      <g>
       <use xlink:href="#mc0f7c6c4b7" x="630.981818" y="218.16" style="stroke: #000000; stroke-width: 0.8"/>
      </g>
     </g>
     <g id="text_32">
      <!-- 0 -->
      <g transform="translate(617.619318 221.959219) scale(0.1 -0.1)">
       <use xlink:href="#DejaVuSans-30"/>
      </g>
     </g>
    </g>
    <g id="ytick_9">
     <g id="line2d_59">
      <path d="M 630.981818 151.632 
L 1036.8 151.632 
" clip-path="url(#pad1d6dd193)" style="fill: none; stroke: #b0b0b0; stroke-width: 0.8; stroke-linecap: square"/>
     </g>
     <g id="line2d_60">
      <g>
       <use xlink:href="#mc0f7c6c4b7" x="630.981818" y="151.632" style="stroke: #000000; stroke-width: 0.8"/>
      </g>
     </g>
     <g id="text_33">
      <!-- 2 -->
      <g transform="translate(617.619318 155.431219) scale(0.1 -0.1)">
       <use xlink:href="#DejaVuSans-32"/>
      </g>
     </g>
    </g>
    <g id="ytick_10">
     <g id="line2d_61">
      <path d="M 630.981818 85.104 
L 1036.8 85.104 
" clip-path="url(#pad1d6dd193)" style="fill: none; stroke: #b0b0b0; stroke-width: 0.8; stroke-linecap: square"/>
     </g>
     <g id="line2d_62">
      <g>
       <use xlink:href="#mc0f7c6c4b7" x="630.981818" y="85.104" style="stroke: #000000; stroke-width: 0.8"/>
      </g>
     </g>
     <g id="text_34">
      <!-- 4 -->
      <g transform="translate(617.619318 88.903219) scale(0.1 -0.1)">
       <use xlink:href="#DejaVuSans-34"/>
      </g>
     </g>
    </g>
    <g id="text_35">
     <!-- y -->
     <g transform="translate(603.159943 221.119375) rotate(-90) scale(0.1 -0.1)">
      <use xlink:href="#DejaVuSans-79"/>
     </g>
    </g>
   </g>
   <g id="line2d_63">
    <path d="M 766.761945 215.603227 
L 767.066385 212.275635 
L 767.573784 209.174407 
L 768.284144 206.166472 
L 769.197463 203.243343 
L 770.313742 200.413854 
L 771.632981 197.691512 
L 773.0537 195.250718 
L 774.677378 192.897426 
L 776.402537 190.77477 
L 778.330655 188.756501 
L 780.360254 186.953097 
L 782.491332 185.348742 
L 784.82537 183.874961 
L 787.260888 182.60491 
L 789.797886 181.531971 
L 792.436364 180.651885 
L 795.277801 179.940424 
L 798.220719 179.432272 
L 801.366596 179.117813 
L 804.715433 179.014451 
L 808.165751 179.130325 
L 811.920507 179.484043 
L 815.878224 180.083015 
L 820.140381 180.952609 
L 824.909937 182.156505 
L 830.491332 183.804298 
L 838.508245 186.43285 
L 847.539958 189.344611 
L 852.106554 190.584701 
L 855.861311 191.3802 
L 859.108668 191.847118 
L 862.051586 192.053728 
L 864.893023 192.028857 
L 867.632981 191.775671 
L 870.271459 191.306677 
L 872.909937 190.61095 
L 875.548414 189.688705 
L 878.288372 188.497057 
L 881.12981 187.020788 
L 884.174207 185.184574 
L 887.421564 182.958912 
L 890.871882 180.320394 
L 894.626638 177.162069 
L 898.685835 173.448875 
L 903.049471 169.151184 
L 907.819027 164.133411 
L 912.893023 158.469898 
L 918.372939 152.0173 
L 924.258774 144.737255 
L 930.550529 136.591925 
L 937.146723 127.683096 
L 944.047357 117.988506 
L 951.353911 107.333774 
L 958.964905 95.833852 
L 966.880338 83.462631 
L 974.998732 70.359288 
L 983.421564 56.339613 
L 992.148837 41.374679 
L 1001.07907 25.616551 
L 1010.313742 8.863702 
L 1015.637568 -1 
L 1015.637568 -1 
" clip-path="url(#pad1d6dd193)" style="fill: none; stroke: #4169e1; stroke-width: 3; stroke-linecap: square"/>
   </g>
   <g id="line2d_64">
    <path d="M 766.761945 220.716773 
L 767.066385 224.044365 
L 767.573784 227.145593 
L 768.284144 230.153528 
L 769.197463 233.076657 
L 770.313742 235.906146 
L 771.632981 238.628488 
L 773.0537 241.069282 
L 774.677378 243.422574 
L 776.402537 245.54523 
L 778.330655 247.563499 
L 780.360254 249.366903 
L 782.491332 250.971258 
L 784.82537 252.445039 
L 787.260888 253.71509 
L 789.797886 254.788029 
L 792.436364 255.668115 
L 795.277801 256.379576 
L 798.220719 256.887728 
L 801.366596 257.202187 
L 804.715433 257.305549 
L 808.165751 257.189675 
L 811.920507 256.835957 
L 815.878224 256.236985 
L 820.140381 255.367391 
L 824.909937 254.163495 
L 830.491332 252.515702 
L 838.508245 249.88715 
L 847.539958 246.975389 
L 852.106554 245.735299 
L 855.861311 244.9398 
L 859.108668 244.472882 
L 862.051586 244.266272 
L 864.893023 244.291143 
L 867.632981 244.544329 
L 870.271459 245.013323 
L 872.909937 245.70905 
L 875.548414 246.631295 
L 878.288372 247.822943 
L 881.12981 249.299212 
L 884.174207 251.135426 
L 887.421564 253.361088 
L 890.871882 255.999606 
L 894.626638 259.157931 
L 898.685835 262.871125 
L 903.049471 267.168816 
L 907.819027 272.186589 
L 912.893023 277.850102 
L 918.372939 284.3027 
L 924.258774 291.582745 
L 930.550529 299.728075 
L 937.146723 308.636904 
L 944.047357 318.331494 
L 951.353911 328.986226 
L 958.964905 340.486148 
L 966.880338 352.857369 
L 974.998732 365.960712 
L 983.421564 379.980387 
L 992.148837 394.945321 
L 1001.07907 410.703449 
L 1010.313742 427.456298 
L 1013.315737 433 
L 1013.315737 433 
" clip-path="url(#pad1d6dd193)" style="fill: none; stroke: #ff0000; stroke-width: 3; stroke-linecap: square"/>
   </g>
   <g id="line2d_65">
    <path d="M 630.981818 218.16 
L 1036.8 218.16 
" clip-path="url(#pad1d6dd193)" style="fill: none; stroke: #1f77b4; stroke-width: 1.5; stroke-linecap: square"/>
   </g>
   <g id="line2d_66">
    <path d="M 833.890909 384.48 
L 833.890909 51.84 
" clip-path="url(#pad1d6dd193)" style="fill: none; stroke: #1f77b4; stroke-width: 1.5; stroke-linecap: square"/>
   </g>
   <g id="patch_9">
    <path d="M 630.981818 384.48 
L 630.981818 51.84 
" style="fill: none; stroke: #000000; stroke-width: 0.8; stroke-linejoin: miter; stroke-linecap: square"/>
   </g>
   <g id="patch_10">
    <path d="M 1036.8 384.48 
L 1036.8 51.84 
" style="fill: none; stroke: #000000; stroke-width: 0.8; stroke-linejoin: miter; stroke-linecap: square"/>
   </g>
   <g id="patch_11">
    <path d="M 630.981818 384.48 
L 1036.8 384.48 
" style="fill: none; stroke: #000000; stroke-width: 0.8; stroke-linejoin: miter; stroke-linecap: square"/>
   </g>
   <g id="patch_12">
    <path d="M 630.981818 51.84 
L 1036.8 51.84 
" style="fill: none; stroke: #000000; stroke-width: 0.8; stroke-linejoin: miter; stroke-linecap: square"/>
   </g>
   <g id="text_36">
    <!-- Elliptic Curve: $y^2 = x^3 + -1x + 1$ -->
    <g transform="translate(736.450909 45.84) scale(0.12 -0.12)">
     <defs>
      <path id="DejaVuSans-45" d="M 628 4666 
L 3578 4666 
L 3578 4134 
L 1259 4134 
L 1259 2753 
L 3481 2753 
L 3481 2222 
L 1259 2222 
L 1259 531 
L 3634 531 
L 3634 0 
L 628 0 
L 628 4666 
z
" transform="scale(0.015625)"/>
      <path id="DejaVuSans-6c" d="M 603 4863 
L 1178 4863 
L 1178 0 
L 603 0 
L 603 4863 
z
" transform="scale(0.015625)"/>
      <path id="DejaVuSans-70" d="M 1159 525 
L 1159 -1331 
L 581 -1331 
L 581 3500 
L 1159 3500 
L 1159 2969 
Q 1341 3281 1617 3432 
Q 1894 3584 2278 3584 
Q 2916 3584 3314 3078 
Q 3713 2572 3713 1747 
Q 3713 922 3314 415 
Q 2916 -91 2278 -91 
Q 1894 -91 1617 61 
Q 1341 213 1159 525 
z
M 3116 1747 
Q 3116 2381 2855 2742 
Q 2594 3103 2138 3103 
Q 1681 3103 1420 2742 
Q 1159 2381 1159 1747 
Q 1159 1113 1420 752 
Q 1681 391 2138 391 
Q 2594 391 2855 752 
Q 3116 1113 3116 1747 
z
" transform="scale(0.015625)"/>
      <path id="DejaVuSans-74" d="M 1172 4494 
L 1172 3500 
L 2356 3500 
L 2356 3053 
L 1172 3053 
L 1172 1153 
Q 1172 725 1289 603 
Q 1406 481 1766 481 
L 2356 481 
L 2356 0 
L 1766 0 
Q 1100 0 847 248 
Q 594 497 594 1153 
L 594 3053 
L 172 3053 
L 172 3500 
L 594 3500 
L 594 4494 
L 1172 4494 
z
" transform="scale(0.015625)"/>
     </defs>
     <use xlink:href="#DejaVuSans-45" transform="translate(0 0.765625)"/>
     <use xlink:href="#DejaVuSans-6c" transform="translate(63.183594 0.765625)"/>
     <use xlink:href="#DejaVuSans-6c" transform="translate(90.966797 0.765625)"/>
     <use xlink:href="#DejaVuSans-69" transform="translate(118.75 0.765625)"/>
     <use xlink:href="#DejaVuSans-70" transform="translate(146.533203 0.765625)"/>
     <use xlink:href="#DejaVuSans-74" transform="translate(210.009766 0.765625)"/>
     <use xlink:href="#DejaVuSans-69" transform="translate(249.21875 0.765625)"/>
     <use xlink:href="#DejaVuSans-63" transform="translate(277.001953 0.765625)"/>
     <use xlink:href="#DejaVuSans-20" transform="translate(331.982422 0.765625)"/>
     <use xlink:href="#DejaVuSans-43" transform="translate(363.769531 0.765625)"/>
     <use xlink:href="#DejaVuSans-75" transform="translate(433.59375 0.765625)"/>
     <use xlink:href="#DejaVuSans-72" transform="translate(496.972656 0.765625)"/>
     <use xlink:href="#DejaVuSans-76" transform="translate(538.085938 0.765625)"/>
     <use xlink:href="#DejaVuSans-65" transform="translate(597.265625 0.765625)"/>
     <use xlink:href="#DejaVuSans-3a" transform="translate(658.789062 0.765625)"/>
     <use xlink:href="#DejaVuSans-20" transform="translate(692.480469 0.765625)"/>
     <use xlink:href="#DejaVuSans-Oblique-79" transform="translate(724.267578 0.765625)"/>
     <use xlink:href="#DejaVuSans-32" transform="translate(787.913411 39.046875) scale(0.7)"/>
     <use xlink:href="#DejaVuSans-3d" transform="translate(854.666341 0.765625)"/>
     <use xlink:href="#DejaVuSans-Oblique-78" transform="translate(957.937826 0.765625)"/>
     <use xlink:href="#DejaVuSans-33" transform="translate(1021.583659 39.046875) scale(0.7)"/>
     <use xlink:href="#DejaVuSans-2b" transform="translate(1088.336589 0.765625)"/>
     <use xlink:href="#DejaVuSans-2212" transform="translate(1211.090495 0.765625)"/>
     <use xlink:href="#DejaVuSans-31" transform="translate(1314.361979 0.765625)"/>
     <use xlink:href="#DejaVuSans-Oblique-78" transform="translate(1377.985026 0.765625)"/>
     <use xlink:href="#DejaVuSans-2b" transform="translate(1456.647135 0.765625)"/>
     <use xlink:href="#DejaVuSans-31" transform="translate(1559.91862 0.765625)"/>
    </g>
   </g>
   <g id="legend_2">
    <g id="patch_13">
     <path d="M 637.981818 92.24 
L 780.081818 92.24 
Q 782.081818 92.24 782.081818 90.24 
L 782.081818 58.84 
Q 782.081818 56.84 780.081818 56.84 
L 637.981818 56.84 
Q 635.981818 56.84 635.981818 58.84 
L 635.981818 90.24 
Q 635.981818 92.24 637.981818 92.24 
z
" style="fill: #ffffff; opacity: 0.8; stroke: #cccccc; stroke-linejoin: miter"/>
    </g>
    <g id="line2d_67">
     <path d="M 639.981818 66.44 
L 649.981818 66.44 
L 659.981818 66.44 
" style="fill: none; stroke: #4169e1; stroke-width: 3; stroke-linecap: square"/>
    </g>
    <g id="text_37">
     <!-- $y^2 = x^3 + -1x + 1$ -->
     <g transform="translate(667.981818 69.94) scale(0.1 -0.1)">
      <use xlink:href="#DejaVuSans-Oblique-79" transform="translate(0 0.765625)"/>
      <use xlink:href="#DejaVuSans-32" transform="translate(63.645833 39.046875) scale(0.7)"/>
      <use xlink:href="#DejaVuSans-3d" transform="translate(130.398763 0.765625)"/>
      <use xlink:href="#DejaVuSans-Oblique-78" transform="translate(233.670247 0.765625)"/>
      <use xlink:href="#DejaVuSans-33" transform="translate(297.316081 39.046875) scale(0.7)"/>
      <use xlink:href="#DejaVuSans-2b" transform="translate(364.06901 0.765625)"/>
      <use xlink:href="#DejaVuSans-2212" transform="translate(486.822917 0.765625)"/>
      <use xlink:href="#DejaVuSans-31" transform="translate(590.094401 0.765625)"/>
      <use xlink:href="#DejaVuSans-Oblique-78" transform="translate(653.717448 0.765625)"/>
      <use xlink:href="#DejaVuSans-2b" transform="translate(732.379557 0.765625)"/>
      <use xlink:href="#DejaVuSans-31" transform="translate(835.651042 0.765625)"/>
     </g>
    </g>
    <g id="line2d_68">
     <path d="M 639.981818 82.64 
L 649.981818 82.64 
L 659.981818 82.64 
" style="fill: none; stroke: #ff0000; stroke-width: 3; stroke-linecap: square"/>
    </g>
    <g id="text_38">
     <!-- $y^2 = -(x^3 + -1x + 1)$ -->
     <g transform="translate(667.981818 86.14) scale(0.1 -0.1)">
      <use xlink:href="#DejaVuSans-Oblique-79" transform="translate(0 0.765625)"/>
      <use xlink:href="#DejaVuSans-32" transform="translate(63.645833 39.046875) scale(0.7)"/>
      <use xlink:href="#DejaVuSans-3d" transform="translate(130.398763 0.765625)"/>
      <use xlink:href="#DejaVuSans-2212" transform="translate(253.152669 0.765625)"/>
      <use xlink:href="#DejaVuSans-28" transform="translate(356.424154 0.765625)"/>
      <use xlink:href="#DejaVuSans-Oblique-78" transform="translate(395.437826 0.765625)"/>
      <use xlink:href="#DejaVuSans-33" transform="translate(459.083659 39.046875) scale(0.7)"/>
      <use xlink:href="#DejaVuSans-2b" transform="translate(525.836589 0.765625)"/>
      <use xlink:href="#DejaVuSans-2212" transform="translate(648.590495 0.765625)"/>
      <use xlink:href="#DejaVuSans-31" transform="translate(751.861979 0.765625)"/>
      <use xlink:href="#DejaVuSans-Oblique-78" transform="translate(815.485026 0.765625)"/>
      <use xlink:href="#DejaVuSans-2b" transform="translate(894.147135 0.765625)"/>
      <use xlink:href="#DejaVuSans-31" transform="translate(997.41862 0.765625)"/>
      <use xlink:href="#DejaVuSans-29" transform="translate(1061.041667 0.765625)"/>
     </g>
    </g>
   </g>
  </g>
 </g>
 <defs>
  <clipPath id="p76807b1639">
   <rect x="144" y="51.84" width="405.818182" height="332.64"/>
  </clipPath>
  <clipPath id="pad1d6dd193">
   <rect x="630.981818" y="51.84" width="405.818182" height="332.64"/>
  </clipPath>
 </defs>
</svg>
