<?xml version="1.0" encoding="utf-8" standalone="no"?>
<!DOCTYPE svg PUBLIC "-//W3C//DTD SVG 1.1//EN"
  "http://www.w3.org/Graphics/SVG/1.1/DTD/svg11.dtd">
<svg xmlns:xlink="http://www.w3.org/1999/xlink" width="576pt" height="432pt" viewBox="0 0 576 432" xmlns="http://www.w3.org/2000/svg" version="1.1">
 <metadata>
  <rdf:RDF xmlns:dc="http://purl.org/dc/elements/1.1/" xmlns:cc="http://creativecommons.org/ns#" xmlns:rdf="http://www.w3.org/1999/02/22-rdf-syntax-ns#">
   <cc:Work>
    <dc:type rdf:resource="http://purl.org/dc/dcmitype/StillImage"/>
    <dc:date>2023-10-29T20:55:03.870489</dc:date>
    <dc:format>image/svg+xml</dc:format>
    <dc:creator>
     <cc:Agent>
      <dc:title>Matplotlib v3.8.0, https://matplotlib.org/</dc:title>
     </cc:Agent>
    </dc:creator>
   </cc:Work>
  </rdf:RDF>
 </metadata>
 <defs>
  <style type="text/css">*{stroke-linejoin: round; stroke-linecap: butt}</style>
 </defs>
 <g id="figure_1">
  <g id="patch_1">
   <path d="M 0 432 
L 576 432 
L 576 0 
L 0 0 
z
" style="fill: #ffffff"/>
  </g>
  <g id="axes_1">
   <g id="patch_2">
    <path d="M 52.94 390.04 
L 562.05 390.04 
L 562.05 29.832 
L 52.94 29.832 
z
" style="fill: #ffffff"/>
   </g>
   <g id="matplotlib.axis_1">
    <g id="xtick_1">
     <g id="line2d_1">
      <path d="M 52.94 390.04 
L 52.94 29.832 
" clip-path="url(#p1776bbcc6b)" style="fill: none; stroke: #b0b0b0; stroke-width: 0.8; stroke-linecap: square"/>
     </g>
     <g id="line2d_2">
      <defs>
       <path id="mc1321aec9b" d="M 0 0 
L 0 3.5 
" style="stroke: #000000; stroke-width: 0.8"/>
      </defs>
      <g>
       <use xlink:href="#mc1321aec9b" x="52.94" y="390.04" style="stroke: #000000; stroke-width: 0.8"/>
      </g>
     </g>
     <g id="text_1">
      <!-- −4 -->
      <g transform="translate(45.568906 404.638438) scale(0.1 -0.1)">
       <defs>
        <path id="DejaVuSans-2212" d="M 678 2272 
L 4684 2272 
L 4684 1741 
L 678 1741 
L 678 2272 
z
" transform="scale(0.015625)"/>
        <path id="DejaVuSans-34" d="M 2419 4116 
L 825 1625 
L 2419 1625 
L 2419 4116 
z
M 2253 4666 
L 3047 4666 
L 3047 1625 
L 3713 1625 
L 3713 1100 
L 3047 1100 
L 3047 0 
L 2419 0 
L 2419 1100 
L 313 1100 
L 313 1709 
L 2253 4666 
z
" transform="scale(0.015625)"/>
       </defs>
       <use xlink:href="#DejaVuSans-2212"/>
       <use xlink:href="#DejaVuSans-34" x="83.789062"/>
      </g>
     </g>
    </g>
    <g id="xtick_2">
     <g id="line2d_3">
      <path d="M 116.57875 390.04 
L 116.57875 29.832 
" clip-path="url(#p1776bbcc6b)" style="fill: none; stroke: #b0b0b0; stroke-width: 0.8; stroke-linecap: square"/>
     </g>
     <g id="line2d_4">
      <g>
       <use xlink:href="#mc1321aec9b" x="116.57875" y="390.04" style="stroke: #000000; stroke-width: 0.8"/>
      </g>
     </g>
     <g id="text_2">
      <!-- −3 -->
      <g transform="translate(109.207656 404.638438) scale(0.1 -0.1)">
       <defs>
        <path id="DejaVuSans-33" d="M 2597 2516 
Q 3050 2419 3304 2112 
Q 3559 1806 3559 1356 
Q 3559 666 3084 287 
Q 2609 -91 1734 -91 
Q 1441 -91 1130 -33 
Q 819 25 488 141 
L 488 750 
Q 750 597 1062 519 
Q 1375 441 1716 441 
Q 2309 441 2620 675 
Q 2931 909 2931 1356 
Q 2931 1769 2642 2001 
Q 2353 2234 1838 2234 
L 1294 2234 
L 1294 2753 
L 1863 2753 
Q 2328 2753 2575 2939 
Q 2822 3125 2822 3475 
Q 2822 3834 2567 4026 
Q 2313 4219 1838 4219 
Q 1578 4219 1281 4162 
Q 984 4106 628 3988 
L 628 4550 
Q 988 4650 1302 4700 
Q 1616 4750 1894 4750 
Q 2613 4750 3031 4423 
Q 3450 4097 3450 3541 
Q 3450 3153 3228 2886 
Q 3006 2619 2597 2516 
z
" transform="scale(0.015625)"/>
       </defs>
       <use xlink:href="#DejaVuSans-2212"/>
       <use xlink:href="#DejaVuSans-33" x="83.789062"/>
      </g>
     </g>
    </g>
    <g id="xtick_3">
     <g id="line2d_5">
      <path d="M 180.2175 390.04 
L 180.2175 29.832 
" clip-path="url(#p1776bbcc6b)" style="fill: none; stroke: #b0b0b0; stroke-width: 0.8; stroke-linecap: square"/>
     </g>
     <g id="line2d_6">
      <g>
       <use xlink:href="#mc1321aec9b" x="180.2175" y="390.04" style="stroke: #000000; stroke-width: 0.8"/>
      </g>
     </g>
     <g id="text_3">
      <!-- −2 -->
      <g transform="translate(172.846406 404.638438) scale(0.1 -0.1)">
       <defs>
        <path id="DejaVuSans-32" d="M 1228 531 
L 3431 531 
L 3431 0 
L 469 0 
L 469 531 
Q 828 903 1448 1529 
Q 2069 2156 2228 2338 
Q 2531 2678 2651 2914 
Q 2772 3150 2772 3378 
Q 2772 3750 2511 3984 
Q 2250 4219 1831 4219 
Q 1534 4219 1204 4116 
Q 875 4013 500 3803 
L 500 4441 
Q 881 4594 1212 4672 
Q 1544 4750 1819 4750 
Q 2544 4750 2975 4387 
Q 3406 4025 3406 3419 
Q 3406 3131 3298 2873 
Q 3191 2616 2906 2266 
Q 2828 2175 2409 1742 
Q 1991 1309 1228 531 
z
" transform="scale(0.015625)"/>
       </defs>
       <use xlink:href="#DejaVuSans-2212"/>
       <use xlink:href="#DejaVuSans-32" x="83.789062"/>
      </g>
     </g>
    </g>
    <g id="xtick_4">
     <g id="line2d_7">
      <path d="M 243.85625 390.04 
L 243.85625 29.832 
" clip-path="url(#p1776bbcc6b)" style="fill: none; stroke: #b0b0b0; stroke-width: 0.8; stroke-linecap: square"/>
     </g>
     <g id="line2d_8">
      <g>
       <use xlink:href="#mc1321aec9b" x="243.85625" y="390.04" style="stroke: #000000; stroke-width: 0.8"/>
      </g>
     </g>
     <g id="text_4">
      <!-- −1 -->
      <g transform="translate(236.485156 404.638438) scale(0.1 -0.1)">
       <defs>
        <path id="DejaVuSans-31" d="M 794 531 
L 1825 531 
L 1825 4091 
L 703 3866 
L 703 4441 
L 1819 4666 
L 2450 4666 
L 2450 531 
L 3481 531 
L 3481 0 
L 794 0 
L 794 531 
z
" transform="scale(0.015625)"/>
       </defs>
       <use xlink:href="#DejaVuSans-2212"/>
       <use xlink:href="#DejaVuSans-31" x="83.789062"/>
      </g>
     </g>
    </g>
    <g id="xtick_5">
     <g id="line2d_9">
      <path d="M 307.495 390.04 
L 307.495 29.832 
" clip-path="url(#p1776bbcc6b)" style="fill: none; stroke: #b0b0b0; stroke-width: 0.8; stroke-linecap: square"/>
     </g>
     <g id="line2d_10">
      <g>
       <use xlink:href="#mc1321aec9b" x="307.495" y="390.04" style="stroke: #000000; stroke-width: 0.8"/>
      </g>
     </g>
     <g id="text_5">
      <!-- 0 -->
      <g transform="translate(304.31375 404.638438) scale(0.1 -0.1)">
       <defs>
        <path id="DejaVuSans-30" d="M 2034 4250 
Q 1547 4250 1301 3770 
Q 1056 3291 1056 2328 
Q 1056 1369 1301 889 
Q 1547 409 2034 409 
Q 2525 409 2770 889 
Q 3016 1369 3016 2328 
Q 3016 3291 2770 3770 
Q 2525 4250 2034 4250 
z
M 2034 4750 
Q 2819 4750 3233 4129 
Q 3647 3509 3647 2328 
Q 3647 1150 3233 529 
Q 2819 -91 2034 -91 
Q 1250 -91 836 529 
Q 422 1150 422 2328 
Q 422 3509 836 4129 
Q 1250 4750 2034 4750 
z
" transform="scale(0.015625)"/>
       </defs>
       <use xlink:href="#DejaVuSans-30"/>
      </g>
     </g>
    </g>
    <g id="xtick_6">
     <g id="line2d_11">
      <path d="M 371.13375 390.04 
L 371.13375 29.832 
" clip-path="url(#p1776bbcc6b)" style="fill: none; stroke: #b0b0b0; stroke-width: 0.8; stroke-linecap: square"/>
     </g>
     <g id="line2d_12">
      <g>
       <use xlink:href="#mc1321aec9b" x="371.13375" y="390.04" style="stroke: #000000; stroke-width: 0.8"/>
      </g>
     </g>
     <g id="text_6">
      <!-- 1 -->
      <g transform="translate(367.9525 404.638438) scale(0.1 -0.1)">
       <use xlink:href="#DejaVuSans-31"/>
      </g>
     </g>
    </g>
    <g id="xtick_7">
     <g id="line2d_13">
      <path d="M 434.7725 390.04 
L 434.7725 29.832 
" clip-path="url(#p1776bbcc6b)" style="fill: none; stroke: #b0b0b0; stroke-width: 0.8; stroke-linecap: square"/>
     </g>
     <g id="line2d_14">
      <g>
       <use xlink:href="#mc1321aec9b" x="434.7725" y="390.04" style="stroke: #000000; stroke-width: 0.8"/>
      </g>
     </g>
     <g id="text_7">
      <!-- 2 -->
      <g transform="translate(431.59125 404.638438) scale(0.1 -0.1)">
       <use xlink:href="#DejaVuSans-32"/>
      </g>
     </g>
    </g>
    <g id="xtick_8">
     <g id="line2d_15">
      <path d="M 498.41125 390.04 
L 498.41125 29.832 
" clip-path="url(#p1776bbcc6b)" style="fill: none; stroke: #b0b0b0; stroke-width: 0.8; stroke-linecap: square"/>
     </g>
     <g id="line2d_16">
      <g>
       <use xlink:href="#mc1321aec9b" x="498.41125" y="390.04" style="stroke: #000000; stroke-width: 0.8"/>
      </g>
     </g>
     <g id="text_8">
      <!-- 3 -->
      <g transform="translate(495.23 404.638438) scale(0.1 -0.1)">
       <use xlink:href="#DejaVuSans-33"/>
      </g>
     </g>
    </g>
    <g id="xtick_9">
     <g id="line2d_17">
      <path d="M 562.05 390.04 
L 562.05 29.832 
" clip-path="url(#p1776bbcc6b)" style="fill: none; stroke: #b0b0b0; stroke-width: 0.8; stroke-linecap: square"/>
     </g>
     <g id="line2d_18">
      <g>
       <use xlink:href="#mc1321aec9b" x="562.05" y="390.04" style="stroke: #000000; stroke-width: 0.8"/>
      </g>
     </g>
     <g id="text_9">
      <!-- 4 -->
      <g transform="translate(558.86875 404.638438) scale(0.1 -0.1)">
       <use xlink:href="#DejaVuSans-34"/>
      </g>
     </g>
    </g>
    <g id="text_10">
     <!-- x -->
     <g transform="translate(304.535625 418.316562) scale(0.1 -0.1)">
      <defs>
       <path id="DejaVuSans-78" d="M 3513 3500 
L 2247 1797 
L 3578 0 
L 2900 0 
L 1881 1375 
L 863 0 
L 184 0 
L 1544 1831 
L 300 3500 
L 978 3500 
L 1906 2253 
L 2834 3500 
L 3513 3500 
z
" transform="scale(0.015625)"/>
      </defs>
      <use xlink:href="#DejaVuSans-78"/>
     </g>
    </g>
   </g>
   <g id="matplotlib.axis_2">
    <g id="ytick_1">
     <g id="line2d_19">
      <path d="M 52.94 29.832 
L 562.05 29.832 
" clip-path="url(#p1776bbcc6b)" style="fill: none; stroke: #b0b0b0; stroke-width: 0.8; stroke-linecap: square"/>
     </g>
     <g id="line2d_20">
      <defs>
       <path id="m1c5e73b446" d="M 0 0 
L -3.5 0 
" style="stroke: #000000; stroke-width: 0.8"/>
      </defs>
      <g>
       <use xlink:href="#m1c5e73b446" x="52.94" y="29.832" style="stroke: #000000; stroke-width: 0.8"/>
      </g>
     </g>
     <g id="text_11">
      <!-- −15 -->
      <g transform="translate(24.835313 33.631219) scale(0.1 -0.1)">
       <defs>
        <path id="DejaVuSans-35" d="M 691 4666 
L 3169 4666 
L 3169 4134 
L 1269 4134 
L 1269 2991 
Q 1406 3038 1543 3061 
Q 1681 3084 1819 3084 
Q 2600 3084 3056 2656 
Q 3513 2228 3513 1497 
Q 3513 744 3044 326 
Q 2575 -91 1722 -91 
Q 1428 -91 1123 -41 
Q 819 9 494 109 
L 494 744 
Q 775 591 1075 516 
Q 1375 441 1709 441 
Q 2250 441 2565 725 
Q 2881 1009 2881 1497 
Q 2881 1984 2565 2268 
Q 2250 2553 1709 2553 
Q 1456 2553 1204 2497 
Q 953 2441 691 2322 
L 691 4666 
z
" transform="scale(0.015625)"/>
       </defs>
       <use xlink:href="#DejaVuSans-2212"/>
       <use xlink:href="#DejaVuSans-31" x="83.789062"/>
       <use xlink:href="#DejaVuSans-35" x="147.412109"/>
      </g>
     </g>
    </g>
    <g id="ytick_2">
     <g id="line2d_21">
      <path d="M 52.94 89.866667 
L 562.05 89.866667 
" clip-path="url(#p1776bbcc6b)" style="fill: none; stroke: #b0b0b0; stroke-width: 0.8; stroke-linecap: square"/>
     </g>
     <g id="line2d_22">
      <g>
       <use xlink:href="#m1c5e73b446" x="52.94" y="89.866667" style="stroke: #000000; stroke-width: 0.8"/>
      </g>
     </g>
     <g id="text_12">
      <!-- −10 -->
      <g transform="translate(24.835313 93.665885) scale(0.1 -0.1)">
       <use xlink:href="#DejaVuSans-2212"/>
       <use xlink:href="#DejaVuSans-31" x="83.789062"/>
       <use xlink:href="#DejaVuSans-30" x="147.412109"/>
      </g>
     </g>
    </g>
    <g id="ytick_3">
     <g id="line2d_23">
      <path d="M 52.94 149.901333 
L 562.05 149.901333 
" clip-path="url(#p1776bbcc6b)" style="fill: none; stroke: #b0b0b0; stroke-width: 0.8; stroke-linecap: square"/>
     </g>
     <g id="line2d_24">
      <g>
       <use xlink:href="#m1c5e73b446" x="52.94" y="149.901333" style="stroke: #000000; stroke-width: 0.8"/>
      </g>
     </g>
     <g id="text_13">
      <!-- −5 -->
      <g transform="translate(31.197813 153.700552) scale(0.1 -0.1)">
       <use xlink:href="#DejaVuSans-2212"/>
       <use xlink:href="#DejaVuSans-35" x="83.789062"/>
      </g>
     </g>
    </g>
    <g id="ytick_4">
     <g id="line2d_25">
      <path d="M 52.94 209.936 
L 562.05 209.936 
" clip-path="url(#p1776bbcc6b)" style="fill: none; stroke: #b0b0b0; stroke-width: 0.8; stroke-linecap: square"/>
     </g>
     <g id="line2d_26">
      <g>
       <use xlink:href="#m1c5e73b446" x="52.94" y="209.936" style="stroke: #000000; stroke-width: 0.8"/>
      </g>
     </g>
     <g id="text_14">
      <!-- 0 -->
      <g transform="translate(39.5775 213.735219) scale(0.1 -0.1)">
       <use xlink:href="#DejaVuSans-30"/>
      </g>
     </g>
    </g>
    <g id="ytick_5">
     <g id="line2d_27">
      <path d="M 52.94 269.970667 
L 562.05 269.970667 
" clip-path="url(#p1776bbcc6b)" style="fill: none; stroke: #b0b0b0; stroke-width: 0.8; stroke-linecap: square"/>
     </g>
     <g id="line2d_28">
      <g>
       <use xlink:href="#m1c5e73b446" x="52.94" y="269.970667" style="stroke: #000000; stroke-width: 0.8"/>
      </g>
     </g>
     <g id="text_15">
      <!-- 5 -->
      <g transform="translate(39.5775 273.769885) scale(0.1 -0.1)">
       <use xlink:href="#DejaVuSans-35"/>
      </g>
     </g>
    </g>
    <g id="ytick_6">
     <g id="line2d_29">
      <path d="M 52.94 330.005333 
L 562.05 330.005333 
" clip-path="url(#p1776bbcc6b)" style="fill: none; stroke: #b0b0b0; stroke-width: 0.8; stroke-linecap: square"/>
     </g>
     <g id="line2d_30">
      <g>
       <use xlink:href="#m1c5e73b446" x="52.94" y="330.005333" style="stroke: #000000; stroke-width: 0.8"/>
      </g>
     </g>
     <g id="text_16">
      <!-- 10 -->
      <g transform="translate(33.215 333.804552) scale(0.1 -0.1)">
       <use xlink:href="#DejaVuSans-31"/>
       <use xlink:href="#DejaVuSans-30" x="63.623047"/>
      </g>
     </g>
    </g>
    <g id="ytick_7">
     <g id="line2d_31">
      <path d="M 52.94 390.04 
L 562.05 390.04 
" clip-path="url(#p1776bbcc6b)" style="fill: none; stroke: #b0b0b0; stroke-width: 0.8; stroke-linecap: square"/>
     </g>
     <g id="line2d_32">
      <g>
       <use xlink:href="#m1c5e73b446" x="52.94" y="390.04" style="stroke: #000000; stroke-width: 0.8"/>
      </g>
     </g>
     <g id="text_17">
      <!-- 15 -->
      <g transform="translate(33.215 393.839219) scale(0.1 -0.1)">
       <use xlink:href="#DejaVuSans-31"/>
       <use xlink:href="#DejaVuSans-35" x="63.623047"/>
      </g>
     </g>
    </g>
    <g id="text_18">
     <!-- y -->
     <g transform="translate(18.755625 212.895375) rotate(-90) scale(0.1 -0.1)">
      <defs>
       <path id="DejaVuSans-79" d="M 2059 -325 
Q 1816 -950 1584 -1140 
Q 1353 -1331 966 -1331 
L 506 -1331 
L 506 -850 
L 844 -850 
Q 1081 -850 1212 -737 
Q 1344 -625 1503 -206 
L 1606 56 
L 191 3500 
L 800 3500 
L 1894 763 
L 2988 3500 
L 3597 3500 
L 2059 -325 
z
" transform="scale(0.015625)"/>
      </defs>
      <use xlink:href="#DejaVuSans-79"/>
     </g>
    </g>
   </g>
   <g id="QuadContourSet_1">
    <path d="M 434.734065 390.04 
L 433.131346 386.401535 
L 427.974793 375.486141 
L 422.317808 364.570747 
L 418.059293 356.951367 
L 412.916768 348.567616 
L 407.774242 340.963159 
L 402.631717 334.099983 
L 397.489192 327.940072 
L 392.346667 322.445412 
L 386.834778 317.270707 
L 382.061616 313.29979 
L 376.919091 309.572798 
L 371.769641 306.355313 
L 366.63404 303.620383 
L 361.491515 301.31893 
L 355.220346 299.078384 
L 351.206465 297.875462 
L 346.063939 296.657418 
L 338.787726 295.439919 
L 335.778889 295.03864 
L 330.636364 294.561876 
L 325.493838 294.256178 
L 315.208788 294.005916 
L 294.638687 293.885538 
L 289.496162 293.712889 
L 284.353636 293.40719 
L 279.211111 292.930427 
L 274.068586 292.244584 
L 268.926061 291.311648 
L 263.783535 290.093605 
L 257.588205 288.16299 
L 253.498485 286.650137 
L 248.35596 284.348684 
L 242.054925 280.886061 
L 238.070909 278.396268 
L 231.654057 273.609131 
L 227.341687 269.970667 
L 222.643333 265.523654 
L 216.687908 259.055273 
L 212.358283 253.869084 
L 207.215758 247.005907 
L 202.073232 239.401451 
L 196.332597 229.947556 
L 191.788182 221.81664 
L 186.643297 211.755232 
L 181.503131 200.810536 
L 175.302729 186.28598 
L 170.955185 175.370586 
L 165.590925 160.816727 
L 159.423213 142.624404 
L 154.810332 128.070545 
L 149.424781 109.878222 
L 144.377362 91.685899 
L 138.714426 69.855111 
L 133.402896 48.024323 
L 129.197888 29.832 
L 129.197888 29.832 
" clip-path="url(#p1776bbcc6b)" style="fill: none; stroke: #ff0000; stroke-width: 1.5"/>
   </g>
   <g id="QuadContourSet_2">
    <path d="M 129.197888 390.04 
L 131.699884 379.124606 
L 136.906645 357.293818 
L 141.493578 339.101495 
L 146.351961 320.909172 
L 151.529262 302.716848 
L 157.082394 284.524525 
L 161.824443 269.970667 
L 166.90457 255.416808 
L 172.390627 240.862949 
L 176.791267 229.947556 
L 181.516893 219.032162 
L 186.645657 208.111744 
L 192.26548 197.201374 
L 196.930707 188.854301 
L 203.061573 179.009051 
L 208.065434 171.732121 
L 213.650381 164.455192 
L 217.500808 159.843005 
L 223.497579 153.539798 
L 227.785859 149.480923 
L 232.928384 145.202723 
L 238.070909 141.475732 
L 243.213434 138.261934 
L 248.748871 135.347475 
L 253.498485 133.221863 
L 258.64101 131.319561 
L 263.783535 129.778395 
L 268.926061 128.560352 
L 274.068586 127.627416 
L 279.211111 126.941573 
L 284.353636 126.46481 
L 289.496162 126.159111 
L 299.781212 125.90885 
L 320.351313 125.788471 
L 325.493838 125.615822 
L 330.636364 125.310124 
L 335.778889 124.83336 
L 340.921414 124.147518 
L 346.063939 123.214582 
L 351.206465 121.996538 
L 356.34899 120.455372 
L 361.491515 118.55307 
L 366.63404 116.251617 
L 371.776566 113.512999 
L 377.499961 109.878222 
L 382.461234 106.239758 
L 387.204141 102.29401 
L 392.346667 97.426588 
L 397.694586 91.685899 
L 403.653038 84.40897 
L 408.975806 77.13204 
L 413.80574 69.855111 
L 418.250691 62.578182 
L 424.253595 51.662788 
L 429.713744 40.747394 
L 434.734065 29.832 
L 434.734065 29.832 
" clip-path="url(#p1776bbcc6b)" style="fill: none; stroke: #4169e1; stroke-width: 1.5"/>
   </g>
   <g id="QuadContourSet_3">
    <path d="M 562.05 108.777587 
L 536.337374 122.131128 
L 520.909798 129.667236 
L 505.482222 136.811508 
L 490.054646 143.527416 
L 479.769596 147.759318 
L 469.484545 151.767494 
L 454.05697 157.307814 
L 448.914444 159.064264 
L 438.629394 162.319354 
L 428.344343 165.280601 
L 423.201818 166.663354 
L 412.916768 169.171048 
L 402.631717 171.341193 
L 387.204141 174.028229 
L 376.710588 175.370586 
L 366.63404 176.437973 
L 356.34899 177.208662 
L 346.063939 177.714517 
L 335.778889 178.011293 
L 320.351313 178.186396 
L 279.211111 178.397798 
L 268.926061 178.694574 
L 258.64101 179.224352 
L 248.35596 180.091376 
L 238.070909 181.319062 
L 229.666082 182.647515 
L 227.785859 183.016221 
L 222.643333 184.163542 
L 214.570844 186.28598 
L 212.358283 187.014809 
L 204.701918 189.924444 
L 202.073232 191.207201 
L 196.930707 194.076572 
L 192.696841 197.201374 
L 191.788182 198.095554 
L 189.23665 200.839838 
L 186.981378 204.478303 
L 185.918351 208.116768 
L 185.918351 211.755232 
L 186.981378 215.393697 
L 189.23665 219.032162 
L 192.696841 222.670626 
L 197.694529 226.309091 
L 202.073232 228.664799 
L 204.701918 229.947556 
L 207.215758 230.969817 
L 214.570844 233.58602 
L 217.500808 234.413288 
L 222.643333 235.708458 
L 229.666082 237.224485 
L 232.928384 237.784246 
L 243.213434 239.215784 
L 253.498485 240.255298 
L 263.783535 240.954118 
L 274.068586 241.348464 
L 289.496162 241.617653 
L 315.208788 241.671375 
L 330.636364 241.773301 
L 340.921414 241.986445 
L 351.206465 242.380791 
L 361.491515 243.012094 
L 371.776566 243.936107 
L 382.061616 245.137868 
L 392.346667 246.646895 
L 402.631717 248.530807 
L 412.916768 250.700952 
L 423.201818 253.208646 
L 433.486869 256.044664 
L 443.771919 259.174493 
L 448.914444 260.807736 
L 459.199495 264.331351 
L 469.484545 268.104506 
L 484.912121 274.210091 
L 495.197172 278.531457 
L 510.624747 285.401827 
L 526.052323 292.679617 
L 541.479899 300.334787 
L 556.907475 308.346199 
L 562.05 311.094413 
L 562.05 311.094413 
" clip-path="url(#p1776bbcc6b)" style="fill: none; stroke: #000000; stroke-width: 1.5"/>
   </g>
   <g id="line2d_33">
    <path d="M 52.94 209.936 
L 562.05 209.936 
" clip-path="url(#p1776bbcc6b)" style="fill: none; stroke: #1f77b4; stroke-width: 1.5; stroke-linecap: square"/>
   </g>
   <g id="line2d_34">
    <path d="M 307.495 390.04 
L 307.495 29.832 
" clip-path="url(#p1776bbcc6b)" style="fill: none; stroke: #1f77b4; stroke-width: 1.5; stroke-linecap: square"/>
   </g>
   <g id="patch_3">
    <path d="M 52.94 390.04 
L 52.94 29.832 
" style="fill: none; stroke: #000000; stroke-width: 0.8; stroke-linejoin: miter; stroke-linecap: square"/>
   </g>
   <g id="patch_4">
    <path d="M 562.05 390.04 
L 562.05 29.832 
" style="fill: none; stroke: #000000; stroke-width: 0.8; stroke-linejoin: miter; stroke-linecap: square"/>
   </g>
   <g id="patch_5">
    <path d="M 52.94 390.04 
L 562.05 390.04 
" style="fill: none; stroke: #000000; stroke-width: 0.8; stroke-linejoin: miter; stroke-linecap: square"/>
   </g>
   <g id="patch_6">
    <path d="M 52.94 29.832 
L 562.05 29.832 
" style="fill: none; stroke: #000000; stroke-width: 0.8; stroke-linejoin: miter; stroke-linecap: square"/>
   </g>
   <g id="patch_7">
    <path d="M 205.673 177.069224 
Q 205.673 182.271039 205.673 186.354819 
" style="fill: none; stroke: #808080; stroke-linecap: round"/>
    <path d="M 207.673 182.354819 
L 205.673 186.354819 
L 203.673 182.354819 
" style="fill: none; stroke: #808080; stroke-linecap: round"/>
   </g>
   <g id="patch_8">
    <path d="M 205.673 242.802776 
Q 205.673 237.600961 205.673 233.517181 
" style="fill: none; stroke: #808080; stroke-linecap: round"/>
    <path d="M 203.673 237.517181 
L 205.673 233.517181 
L 207.673 237.517181 
" style="fill: none; stroke: #808080; stroke-linecap: round"/>
   </g>
   <g id="patch_9">
    <path d="M 237.492375 143.868679 
Q 237.492375 161.608629 237.492375 178.230545 
" style="fill: none; stroke: #808080; stroke-linecap: round"/>
    <path d="M 239.492375 174.230545 
L 237.492375 178.230545 
L 235.492375 174.230545 
" style="fill: none; stroke: #808080; stroke-linecap: round"/>
   </g>
   <g id="patch_10">
    <path d="M 237.492375 276.003321 
Q 237.492375 258.263371 237.492375 241.641455 
" style="fill: none; stroke: #808080; stroke-linecap: round"/>
    <path d="M 235.492375 245.641455 
L 237.492375 241.641455 
L 239.492375 245.641455 
" style="fill: none; stroke: #808080; stroke-linecap: round"/>
   </g>
   <g id="patch_11">
    <path d="M 269.31175 130.481002 
Q 269.31175 153.570471 269.31175 175.541906 
" style="fill: none; stroke: #808080; stroke-linecap: round"/>
    <path d="M 271.31175 171.541906 
L 269.31175 175.541906 
L 267.31175 171.541906 
" style="fill: none; stroke: #808080; stroke-linecap: round"/>
   </g>
   <g id="patch_12">
    <path d="M 269.31175 289.390998 
Q 269.31175 266.301529 269.31175 244.330094 
" style="fill: none; stroke: #808080; stroke-linecap: round"/>
    <path d="M 267.31175 248.330094 
L 269.31175 244.330094 
L 271.31175 248.330094 
" style="fill: none; stroke: #808080; stroke-linecap: round"/>
   </g>
   <g id="patch_13">
    <path d="M 301.131125 127.899851 
Q 301.131125 152.036648 301.131125 175.055411 
" style="fill: none; stroke: #808080; stroke-linecap: round"/>
    <path d="M 303.131125 171.055411 
L 301.131125 175.055411 
L 299.131125 171.055411 
" style="fill: none; stroke: #808080; stroke-linecap: round"/>
   </g>
   <g id="patch_14">
    <path d="M 301.131125 291.972149 
Q 301.131125 267.835352 301.131125 244.816589 
" style="fill: none; stroke: #808080; stroke-linecap: round"/>
    <path d="M 299.131125 248.816589 
L 301.131125 244.816589 
L 303.131125 248.816589 
" style="fill: none; stroke: #808080; stroke-linecap: round"/>
   </g>
   <g id="patch_15">
    <path d="M 332.9505 127.117804 
Q 332.9505 151.571859 332.9505 174.90788 
" style="fill: none; stroke: #808080; stroke-linecap: round"/>
    <path d="M 334.9505 170.90788 
L 332.9505 174.90788 
L 330.9505 170.90788 
" style="fill: none; stroke: #808080; stroke-linecap: round"/>
   </g>
   <g id="patch_16">
    <path d="M 332.9505 292.754196 
Q 332.9505 268.300141 332.9505 244.96412 
" style="fill: none; stroke: #808080; stroke-linecap: round"/>
    <path d="M 330.9505 248.96412 
L 332.9505 244.96412 
L 334.9505 248.96412 
" style="fill: none; stroke: #808080; stroke-linecap: round"/>
   </g>
   <g id="patch_17">
    <path d="M 364.769875 119.132763 
Q 364.769875 146.843476 364.769875 173.436154 
" style="fill: none; stroke: #808080; stroke-linecap: round"/>
    <path d="M 366.769875 169.436154 
L 364.769875 173.436154 
L 362.769875 169.436154 
" style="fill: none; stroke: #808080; stroke-linecap: round"/>
   </g>
   <g id="patch_18">
    <path d="M 364.769875 300.739237 
Q 364.769875 273.028524 364.769875 246.435846 
" style="fill: none; stroke: #808080; stroke-linecap: round"/>
    <path d="M 362.769875 250.435846 
L 364.769875 246.435846 
L 366.769875 250.435846 
" style="fill: none; stroke: #808080; stroke-linecap: round"/>
   </g>
   <g id="patch_19">
    <path d="M 396.58925 94.944829 
Q 396.58925 132.699779 396.58925 169.336696 
" style="fill: none; stroke: #808080; stroke-linecap: round"/>
    <path d="M 398.58925 165.336696 
L 396.58925 169.336696 
L 394.58925 165.336696 
" style="fill: none; stroke: #808080; stroke-linecap: round"/>
   </g>
   <g id="patch_20">
    <path d="M 396.58925 324.927171 
Q 396.58925 287.172221 396.58925 250.535304 
" style="fill: none; stroke: #808080; stroke-linecap: round"/>
    <path d="M 394.58925 254.535304 
L 396.58925 250.535304 
L 398.58925 254.535304 
" style="fill: none; stroke: #808080; stroke-linecap: round"/>
   </g>
   <g id="patch_21">
    <path d="M 428.408625 45.533834 
Q 428.408625 104.386296 428.408625 162.120723 
" style="fill: none; stroke: #808080; stroke-linecap: round"/>
    <path d="M 430.408625 158.120723 
L 428.408625 162.120723 
L 426.408625 158.120723 
" style="fill: none; stroke: #808080; stroke-linecap: round"/>
   </g>
   <g id="patch_22">
    <path d="M 428.408625 374.338166 
Q 428.408625 315.485704 428.408625 257.751277 
" style="fill: none; stroke: #808080; stroke-linecap: round"/>
    <path d="M 426.408625 261.751277 
L 428.408625 257.751277 
L 430.408625 261.751277 
" style="fill: none; stroke: #808080; stroke-linecap: round"/>
   </g>
   <g id="text_19">
    <!-- $y^2 = x^3  - 7$ -->
    <g transform="translate(275.635 23.832) scale(0.12 -0.12)">
     <defs>
      <path id="DejaVuSans-Oblique-79" d="M 1588 -325 
Q 1188 -997 936 -1164 
Q 684 -1331 294 -1331 
L -159 -1331 
L -63 -850 
L 269 -850 
Q 509 -850 678 -719 
Q 847 -588 1056 -206 
L 1234 128 
L 459 3500 
L 1069 3500 
L 1650 819 
L 3256 3500 
L 3859 3500 
L 1588 -325 
z
" transform="scale(0.015625)"/>
      <path id="DejaVuSans-3d" d="M 678 2906 
L 4684 2906 
L 4684 2381 
L 678 2381 
L 678 2906 
z
M 678 1631 
L 4684 1631 
L 4684 1100 
L 678 1100 
L 678 1631 
z
" transform="scale(0.015625)"/>
      <path id="DejaVuSans-Oblique-78" d="M 3841 3500 
L 2234 1784 
L 3219 0 
L 2559 0 
L 1819 1388 
L 531 0 
L -166 0 
L 1556 1844 
L 641 3500 
L 1300 3500 
L 1972 2234 
L 3144 3500 
L 3841 3500 
z
" transform="scale(0.015625)"/>
      <path id="DejaVuSans-37" d="M 525 4666 
L 3525 4666 
L 3525 4397 
L 1831 0 
L 1172 0 
L 2766 4134 
L 525 4134 
L 525 4666 
z
" transform="scale(0.015625)"/>
     </defs>
     <use xlink:href="#DejaVuSans-Oblique-79" transform="translate(0 0.765625)"/>
     <use xlink:href="#DejaVuSans-32" transform="translate(63.645833 39.046875) scale(0.7)"/>
     <use xlink:href="#DejaVuSans-3d" transform="translate(130.398763 0.765625)"/>
     <use xlink:href="#DejaVuSans-Oblique-78" transform="translate(233.670247 0.765625)"/>
     <use xlink:href="#DejaVuSans-33" transform="translate(297.316081 39.046875) scale(0.7)"/>
     <use xlink:href="#DejaVuSans-2212" transform="translate(364.06901 0.765625)"/>
     <use xlink:href="#DejaVuSans-37" transform="translate(467.340495 0.765625)"/>
    </g>
   </g>
  </g>
 </g>
 <defs>
  <clipPath id="p1776bbcc6b">
   <rect x="52.94" y="29.832" width="509.11" height="360.208"/>
  </clipPath>
 </defs>
</svg>
